<svg xmlns="http://www.w3.org/2000/svg" width="49.517" height="45.478" viewBox="662.775 209.236 123.792 113.696"><path d="M726.402 216.64c-16.716-.773-33.457 7.092-43.405 21.989-13.59 20.352-9.901 48.601 8.462 64.789 5.585 4.923 10.47 7.655 18.427 10.307 7.728 2.574 23.22 2.04 31.244-1.077 26.286-10.21 38.806-41.931 26.68-67.595-3.577-7.57-12.857-18.094-19.27-21.852a48.1 48.1 0 0 0-22.138-6.56m-3.828 3.948c21.397-.56 41.755 16.077 45.275 38.986 2.93 19.07-7.73 38.816-25.768 47.73-6.658 3.292-8.368 3.7-16.56 3.964-14.375.462-25.538-4.248-34.998-14.77-3.984-4.43-10.281-15.63-9.326-16.586.22-.22 3.728.868 7.795 2.418 5.654 2.155 7.467 3.317 7.703 4.94.822 5.655 9.626 10.17 16.172 8.292 4.684-1.343 8.943-5.73 9.673-9.962.476-2.755 1.944-4.656 6.602-8.543 7.547-6.3 7.503-6.275 11.965-6.987 10.905-1.74 16.743-15.926 10.46-25.42-2.798-4.228-9.57-8.093-14.18-8.093-7.125 0-14.697 6.586-16.134 14.035-.367 1.905-3.069 6.817-6.004 10.914-4.702 6.564-5.864 7.583-9.777 8.576-4.189 1.064-5.068.877-15.537-3.312l-11.096-4.44.658-3.637c3.19-17.627 16.59-32.171 33.89-36.78a39.7 39.7 0 0 1 9.187-1.325m14.418 21.097c7.38-.285 14.35 7.074 11.974 15-.613 2.049-2.491 4.882-4.173 6.297-5.354 4.505-14.2 2.774-17.393-3.402-3.072-5.941-1.106-13.061 4.527-16.389a10.7 10.7 0 0 1 5.065-1.506m.859 3.983a8.52 8.52 0 0 0-8.021 5.537c-1.231 3.237 1.18 9.068 4.261 10.305 3.15 1.264 4.565 1.239 7.112-.118 5.282-2.813 6.354-9.254 2.228-13.38a7.9 7.9 0 0 0-5.58-2.344m-27.947 26.889c4.538 0 8.982 4.694 8.982 9.488 0 4.687-1.348 7.123-4.98 9.002-4.24 2.192-7.526 1.86-10.713-1.078-2.183-2.014-2.363-2.437-.807-1.903 1.1.378 3.636.92 5.635 1.205 7.088 1.01 10.637-7.033 5.41-12.26-1.35-1.35-3.122-2.454-3.94-2.454-.817 0-1.765-.45-2.105-1-.362-.586.682-1 2.518-1" style="fill:#000"/></svg>