<?xml version='1.0' encoding='utf-8'?>
<svg xmlns="http://www.w3.org/2000/svg" viewBox="651.195 604.752 140.439 71.9336" width="56.1755" height="28.7734"><path d="M 720.4499 612.6090 C 681.4156 612.9005 681.0652 612.9220 675.8190 615.2926 C 665.1999 620.0911 658.8953 630.9631 659.8483 642.8356 C 660.8826 655.7212 669.6140 665.8937 681.7526 668.3551 C 684.1468 668.8406 703.4311 669.1620 724.6061 669.0700 C 761.3793 668.9102 763.3079 668.8082 767.6061 666.8102 C 774.0900 663.7961 778.3246 659.8670 781.3854 654.0231 C 783.6363 649.7256 784.0706 647.6172 784.0866 640.9020 C 784.1100 631.2166 781.5315 625.2674 774.7038 619.2575 C 767.0422 612.5138 765.1059 612.2754 720.4499 612.6090 Z  M 719.8151 616.5934 C 762.3922 616.1910 765.4543 616.5604 772.5280 622.9508 C 784.0595 633.3689 782.7122 651.7589 769.7487 660.8727 L 765.4362 663.9020 L 723.7722 664.1813 L 682.1061 664.4606 L 676.9382 661.8825 C 658.7183 652.7949 659.7092 627.0282 678.6061 618.5251 C 681.5415 617.2042 688.1894 616.8923 719.8151 616.5934 Z  M 698.8190 636.6462 C 694.8866 636.6362 692.3321 641.3378 695.1706 644.4743 C 696.1304 645.5349 697.9568 646.4020 699.2272 646.4020 C 704.1707 646.4020 704.9145 638.0200 700.0788 636.8063 C 699.6469 636.6979 699.2258 636.6469 698.8190 636.6462 Z  M 722.1823 636.6992 C 721.3851 636.6992 720.5481 636.8997 719.7331 637.3359 C 717.3566 638.6078 716.8152 643.2110 718.8073 645.2031 C 719.4673 645.8631 720.9511 646.4023 722.1061 646.4023 C 724.9942 646.4023 726.6061 644.5327 726.6061 641.1816 C 726.6061 638.5048 724.5739 636.6991 722.1823 636.6992 Z  M 745.1823 636.6992 C 744.3851 636.6992 743.5481 636.8997 742.7331 637.3359 C 740.3566 638.6078 739.8152 643.2110 741.8073 645.2031 C 742.4673 645.8631 743.9511 646.4023 745.1061 646.4023 C 747.9942 646.4023 749.6061 644.5327 749.6061 641.1816 C 749.6061 638.5048 747.5739 636.6991 745.1823 636.6992 Z " style="fill:#000000" /></svg>