<svg xmlns="http://www.w3.org/2000/svg" width="56.175" height="28.773" viewBox="651.195 604.752 140.439 71.934"><path d="M720.45 612.609c-39.034.291-39.385.313-44.631 2.684-10.62 4.798-16.924 15.67-15.97 27.543 1.034 12.885 9.765 23.058 21.904 25.52 2.394.485 21.678.806 42.853.714 36.773-.16 38.702-.262 43-2.26 6.484-3.014 10.719-6.943 13.78-12.787 2.25-4.297 2.685-6.406 2.7-13.121.024-9.685-2.554-15.635-9.382-21.644-7.662-6.744-9.598-6.983-54.254-6.649m-.635 3.984c42.577-.402 45.64-.033 52.713 6.358 11.531 10.418 10.184 28.808-2.78 37.922l-4.312 3.029-41.664.28-41.666.279-5.168-2.578c-18.22-9.088-17.229-34.855 1.668-43.358 2.936-1.32 9.583-1.633 41.21-1.932m-20.996 20.053c-3.932-.01-6.487 4.692-3.648 7.828.96 1.06 2.786 1.928 4.056 1.928 4.944 0 5.688-8.382.852-9.596a5.2 5.2 0 0 0-1.26-.16m23.363.053c-.797 0-1.634.2-2.449.637-2.376 1.272-2.918 5.875-.926 7.867.66.66 2.144 1.2 3.3 1.2 2.887 0 4.5-1.87 4.5-5.221 0-2.677-2.033-4.483-4.425-4.483m23 0c-.797 0-1.634.2-2.449.637-2.376 1.272-2.918 5.875-.926 7.867.66.66 2.144 1.2 3.3 1.2 2.887 0 4.5-1.87 4.5-5.221 0-2.677-2.033-4.483-4.425-4.483" style="fill:#000"/></svg>