<svg xmlns="http://www.w3.org/2000/svg" width="99.027" height="99.593" viewBox="165.695 142.362 247.568 248.983"><path d="M278.559 156.166c-7.765.463-14.514 1.385-18.428 2.659-6.381 2.077-12.245 8.712-13.701 15.504-.589 2.743-1.07 13.895-1.07 24.783 0 17.583-.196 19.972-1.75 21.379-1.464 1.324-5.437 1.637-24.25 1.906-21.852.312-22.63.392-26.96 2.82-5.145 2.885-9.86 9.747-11.152 16.229-1.707 8.563-2.214 33.157-.926 44.85 1.305 11.842 3.003 16.706 7.203 20.624 5.112 4.769 8.285 5.297 31.746 5.297 21.576 0 22.003.041 23.532 2.223 1.295 1.849 1.556 5.94 1.556 24.342 0 21.219.094 22.301 2.325 26.529 4.213 7.988 9.38 10.22 27.175 11.744 11.113.951 24.499.67 38.817-.818 9.838-1.022 15.947-4.47 19.357-10.926 2.23-4.222 2.326-5.318 2.326-26.115 0-20.447.12-21.862 2.073-24.344l2.074-2.635h21.748c21.742 0 21.75 0 27.178-2.75 10.332-5.233 12.492-14.56 11.677-50.394-.427-18.796-.67-21.06-2.71-25.278-2.43-5.019-6.576-8.644-11.938-10.44-2.106-.704-11.303-1.138-24.178-1.138h-20.777l-2.074-2.635c-1.957-2.487-2.073-3.886-2.073-25.039 0-20.346-.18-22.761-1.976-26.28-4.055-7.95-10.78-10.61-30.313-11.997-7.97-.566-16.747-.562-24.511-.1m16.8 3.711c25.202 1.905 30.194 3.329 34.1 9.735 1.708 2.8 1.896 5.287 1.896 25.404.005 32.555-1.23 31.201 28.516 31.201 19.857 0 21.322.13 25.527 2.25 7.47 3.767 8.858 7.875 9.565 28.297.323 9.325.141 22.223-.403 28.664-1.16 13.744-2.889 17.492-9.554 20.719-3.924 1.9-6.073 2.07-25.945 2.07h-21.67l-3.266 2.916-3.266 2.916-.5 23.334c-.474 22.118-.618 23.527-2.787 27.014-3.34 5.371-8.712 7.514-20.713 8.266-5.5.344-12.25.798-15 1.01-2.75.21-11.137-.187-18.638-.885-15.903-1.48-19.885-3.21-22.957-9.975-1.625-3.576-1.862-6.794-1.881-25.395-.023-22.354-.619-25.843-4.737-27.814-.982-.47-12.217-1.087-24.966-1.371-21.508-.479-23.384-.666-26-2.608-7.476-5.546-8.893-11.795-8.704-38.408.186-26.142 2.543-34.372 11.045-38.593 3.355-1.666 6.552-1.94 25.338-2.182 13.811-.178 22.318-.692 23.785-1.438 1.257-.638 3.17-2.592 4.25-4.341 1.797-2.907 1.965-5.053 1.965-24.88 0-14.075.395-22.465 1.123-23.882 2.266-4.41 6.426-7.787 11.35-9.217 6.054-1.758 24.897-3.383 32.527-2.807m-17.892 12.153c-8.254.515-14.802 1.542-16.291 2.873-1.469 1.312-1.725 4.47-2 24.66-.363 26.611-1.032 29.295-8.317 33.379-3.82 2.14-5.04 2.244-27.058 2.26-17.105.012-23.51.346-24.805 1.293-2.66 1.945-3.645 7.71-4.309 25.222-.591 15.613.63 31.193 2.711 34.567.715 1.159 5.575 1.53 25.354 1.933 27.177.556 27.322.592 32.357 7.99 2.173 3.194 2.25 4.095 2.25 26.467 0 17.995.305 23.577 1.366 25.028 1.01 1.382 3.282 2.06 8.75 2.611 8.049.811 42.377.302 47.671-.707 5.707-1.088 6.213-3.393 6.213-28.192 0-21.066.086-22.03 2.258-25.298 1.242-1.87 4.263-4.411 6.713-5.649 4.221-2.132 5.615-2.25 26.719-2.25 21.993 0 22.283-.027 23.715-2.25 4.371-6.785 4.12-54.62-.31-59.06-.822-.824-8.54-1.344-25.071-1.69-22.292-.467-24.071-.64-26.703-2.605-6.386-4.766-6.772-6.513-7.32-33.184-.393-19.046-.794-24.47-1.866-25.13-.752-.464-7.727-1.393-15.5-2.065-8.313-.72-18.273-.718-26.527-.203m-9.108 4.851c5.716-1.136 36.888-1.133 43.5 0l5 .858.5 23.488c.498 23.397.512 23.508 3.243 28.152 1.507 2.565 4.432 5.715 6.5 7 3.59 2.232 4.814 2.36 27.257 2.838l23.5.5.805 5.5c1.028 7.031 1.02 34.66-.014 42.5l-.79 6-23 .5c-25.952.564-28.167 1.108-33.936 8.342l-3.065 3.844-.859 24.156c-.473 13.287-.95 24.26-1.06 24.385s-3.325.679-7.141 1.23c-11.768 1.701-40.15.902-45.863-1.29-1.19-.457-1.5-4.77-1.76-24.52l-.317-23.965-3.105-3.842c-6.145-7.598-6.984-7.8-33.58-8.154l-23.686-.315-.814-5.685c-1.047-7.313-.797-38.319.355-44.186l.883-4.5 24.475-.5c23.467-.48 24.628-.597 28.232-2.838 2.067-1.285 4.992-4.435 6.5-7 2.73-4.644 2.742-4.756 3.24-28.136l.5-23.473Z" style="fill:#000"/></svg>