<svg xmlns="http://www.w3.org/2000/svg" width="49" height="32" viewBox="0 0 49 32"><g transform="scale(0.48060,0.93805) translate(-86.9496,-3.2676)"><g transform="scale(0.5)"><g transform="translate(-33.923347,-55.346467)"><path xmlns="http://www.w3.org/2000/svg" id="LB" d="M178.069 67.15c1.581-8.117 8.507-20.262 15.04-26.373 13.414-12.547 37.932-21.74 74.618-27.977 20.031-3.406 79.868-3.42 89.602-.023 7.15 2.496 18.355 11.088 16.595 12.725-.586.544-11.057 1.965-23.268 3.157-70.366 6.867-116.183 17.113-154.759 34.608-8.26 3.747-15.846 7.157-16.858 7.58-1.462.61-1.661-.148-.97-3.696z" style="fill:#666;fill-opacity:1;stroke:#1a1a1a;stroke-width:7.404" transform="translate(33.923347,55.346467)"/></g></g></g></svg>