<svg xmlns="http://www.w3.org/2000/svg" width="49" height="32" viewBox="0 0 49 32"><g transform="scale(0.60057,0.38813) translate(-47.8949,-249.6440)"><g xmlns="http://www.w3.org/2000/svg" xmlns:inkscape="http://www.inkscape.org/namespaces/inkscape" xmlns:sodipodi="http://sodipodi.sourceforge.net/DTD/sodipodi-0.dtd" inkscape:label="#LGRIP" id="LGRIP" transform="matrix(1.1060296,0,0,1.1060296,-33.696232,-32.921155)"><path sodipodi:nodetypes="cssssssccssssssssssssssssssscccsssssssssccc" id="LGRIP-9" d="M113.88 256.99c-15.79-2.113-31.563 10-36.92 24.502-1.786 4.833-2.078 10.01-1.858 15.116.407 9.478 5.633 18.848 12.855 24.698 4.49 3.638 10.372 6.312 16.03 7.088 12.043 1.652 24.438-2.453 32.831-11.632 14.14-15.466 12.372-41.428-5.127-53.54-5.432-3.76-11.396-5.374-17.81-6.232m1.583 3.83c-3.154-.423-6.739.193-9.895.997-.926.236-1.644.548-2.572.836-1.366.423-1.47.023-2.969.67-7.197 3.11-13.707 8.526-17.254 15.75-6.757 13.763-3.056 31.778 9.537 40.704 4.098 2.905 8.938 4.533 13.852 5.191 1.295.173 3.775.342 4.947.247.939-.077.994-.485 2.177-.582.915-.074 1.37.011 2.177-.097 1.572-.21 3.575-.521 5.145-.98 1.649-.483 3.235-1 4.75-1.694a31 31 0 0 0 7.717-5.09c2.733-2.467 5.066-5.316 6.841-8.475.348-.619.612-1.173.925-1.814 4.075-8.32 4.65-18.268.88-26.805-.496-1.125-1.02-2.152-1.573-3.224a22 22 0 0 0-1.284-2.217c-2.061-3.106-4.529-5.829-7.57-7.927-1.109-.765-2.346-1.571-3.562-2.2-3.921-2.024-7.949-2.713-12.27-3.29m-14.643 2.13.791.807c-3.546 2.57-7.114 4.37-10.005 7.86-4.028 4.86-6.544 10.949-7.49 17.13a27 27 0 0 0-.315 4.031c0 .714 0 1.166.084 1.814.167 1.29.415 3.194.708 4.636.91 4.47 2.77 8.76 5.35 12.495 3.226 4.67 7.864 8.307 13.054 10.44 1.96.805 4.07 1.414 6.134 1.766.458.079 1.887.257 2.172.307.605.106.763.26.994.386m-10.29-61.47-.396.605" style="fill:#6c6c6c;fill-opacity:1;stroke:#1a1a1a;stroke-width:2.53788;stroke-dasharray:none;stroke-opacity:1;opacity:1"/><text x="98.911" y="301.325" style="font-size:31.5824px;line-height:1.25;font-family:&quot;Bitstream Vera Sans Mono&quot;;letter-spacing:3.158px;word-spacing:0;fill:#1a1a1a;opacity:1"><tspan x="98.911" y="301.325" style="font-style:normal;font-variant:normal;font-weight:700;font-stretch:normal;font-size:31.5824px;font-family:&quot;Apolonia Nova OT&quot;;-inkscape-font-specification:&quot;Apolonia Nova OT Bold&quot;;fill:#1a1a1a">L4</tspan></text></g></g></svg>