<svg xmlns="http://www.w3.org/2000/svg" width="86.016" height="98" preserveAspectRatio="none" viewBox="32.786 451.549 258.302 588.576"><g id="LGRIPTOUCH" transform="translate(-735.54339,-5.5408165)"><path id="path4" d="M820.14 467.926c7.404-29.001 92.122 23.999 103.052 85.725s11.018 49.248.115 98.781c-18.518 84.13-19.316 72.223-27.945 155.048-2.624 25.185-.723 108.629 25.866 129.817 34.933 26.636 114.599 53.686 100.007 71.068-10.586 15.852-24.993 26.062-43.53 30.846-9.773 2.523-31.028 3.486-44.9 2.035-39.773-4.16-70.274-17.36-95.836-41.474-37.229-35.12-57.443-89.494-63.943-171.995-1.945-24.682-.85-87.241 2.057-117.591 7.292-76.137 17.44-134.097 45.056-242.26z" style="fill:#666;stroke:#1a1a1a;stroke-width:4"/><path id="path5" d="M825.468 457.09q-.293.105-.584.22c-4.023 1.592-7.161 5.125-8.33 9.7-27.64 108.26-37.85 166.54-45.156 242.823-2.945 30.743-4.054 92.957-2.063 118.236 6.538 82.973 26.964 138.427 65.094 174.397 26.141 24.66 57.608 38.238 97.992 42.462 14.43 1.51 35.401.658 46.211-2.132 19.258-4.97 34.543-15.773 45.575-32.215 2.397-2.975 3.02-7.006 1.853-10.38a15.5 15.5 0 0 0-1.23-2.667l-5.453 6.545c-.016.59-.303 1.103-.977 1.906l-.13.156-.112.168c-10.132 15.173-23.626 24.737-41.377 29.319-8.737 2.255-30.276 3.33-43.59 1.937-39.163-4.097-68.696-16.918-93.68-40.486-36.328-34.27-56.33-87.563-62.793-169.592-1.897-24.085-.818-86.99 2.051-116.947 7.278-75.99 17.367-133.63 44.959-241.697.272-1.067.615-1.893 1.06-2.551-.332.206-.49.345-.49.345l1.172-9.546z" style="fill:#666;stroke:#1a1a1a;stroke-width:4"/></g></svg>