<svg xmlns="http://www.w3.org/2000/svg" width="49" height="32" viewBox="0 0 49 32"><g transform="scale(0.60507,0.37823) translate(-53.8548,-336.9460)"><g xmlns="http://www.w3.org/2000/svg" xmlns:inkscape="http://www.inkscape.org/namespaces/inkscape" xmlns:sodipodi="http://sodipodi.sourceforge.net/DTD/sodipodi-0.dtd" inkscape:label="#LGRIP2" id="LGRIP2" transform="matrix(0.23391414,0,0,0.23391414,2.1424689,154.79522)"><path sodipodi:nodetypes="csssssssssccsssssscscssssssssssssssscccccsssssssssc" id="LGRIP2-9" d="M418.15 785.575c-20.647-2.73-45.443 1.422-65.316 8.069-39.235 13.122-73.566 39.62-95.836 74.722-16.783 26.454-26.914 57.162-29.036 88.1-.318 4.64-.888 6.966-.888 11.748 0 5.052.69 7.602.937 12.725 3.803 78.55 66.152 143.159 143.345 152.429 118.4 14.218 216.165-121.357 183.55-231.72-12.27-41.52-37.611-77.747-76.313-98.39-13.709-7.311-28.7-12.366-43.87-15.353-5.34-1.052-11.418-1.648-16.572-2.33m-40.945 27.973c-7.312-6.632-15.76-1.577-24.372 1.773-21.34 8.301-40.47 22.197-56.543 38.362-48.487 48.762-62.674 127.3-30.33 188.927 12.84 24.464 32.868 45.971 57.626 58.491 11.703 5.918 25.199 11.311 38.02 13.492 6.17 1.05 6.151-.787 11.7-.148 2.825.325 6.893.789 9.748 1.167 4.691.62 10.058.415 14.623.415 2.93 0 4.777.032 7.8 0 9.48-.113 22.723-2.602 32.17-5.31 7.96-2.28 15.25-5.527 22.422-9.128 4.613-2.315 8.35-4.226 12.674-7.098 18.004-11.954 33.82-28.013 45.818-46.004 5.644-8.463 11.02-17.37 15.024-26.43 1.482-3.355 2.583-6.388 3.938-9.79 9.772-24.53 13.973-51.586 12.148-78.311-1.084-15.886-6.086-32.489-12.312-46.987-1.476-3.436-2.696-6.4-4.426-9.789-3.314-6.491-7.29-12.72-11.447-18.599-14.166-20.03-35.372-37.454-58.492-45.671-13.972-4.967-30.264-8.167-44.844-8.168h-9.75c-4.563 0-9.275.537-13.648 1.36-3.56.669-8.698 1.213-12.581 3.05-3.287 1.555-3.917 3.203-4.966 4.4m2.924-3.916c-2.001-.952-2.884-1.875-6.824 0m2.925 2.937c-19.659 12.268-39.37 19.546-56.505 36.307-20.785 20.328-35.101 47.879-42.933 75.283-2.43 8.5-5.329 20.607-5.815 29.367-.138 2.492-.262 4.301-.595 6.852-.367 2.805-.414 4.79-.414 7.832 0 3.361.155 5.715.561 8.81 1.756 13.387 3.53 26.705 7.89 40.134 9.107 28.049 24.903 53.475 48.092 71.998 8.231 6.575 17.588 12.035 27.297 16.092 3.09 1.292 9.295 3.577 11.674 4.675 2.96 1.366 3.715 2.258 4.898 3.167" style="fill:#6c6c6c;fill-opacity:1;stroke:#1a1a1a;stroke-width:12;stroke-dasharray:none;stroke-opacity:1;opacity:1"/><text xml:space="preserve" id="text2-3" x="327.878" y="998.578" style="font-size:149.333px;line-height:1.25;font-family:&quot;Bitstream Vera Sans Mono&quot;;-inkscape-font-specification:&quot;Bitstream Vera Sans Mono&quot;;letter-spacing:14.933px;word-spacing:0;fill:#1a1a1a;opacity:1"><tspan sodipodi:role="line" id="tspan2-0" x="327.878" y="998.578" style="font-style:normal;font-variant:normal;font-weight:700;font-stretch:normal;font-size:149.333px;font-family:&quot;Apolonia Nova OT&quot;;-inkscape-font-specification:&quot;Apolonia Nova OT Bold&quot;;fill:#1a1a1a">L5</tspan></text></g></g></svg>