<svg xmlns="http://www.w3.org/2000/svg" width="115.939" height="117.643" viewBox="247.474 406.764 347.816 352.93"><path d="M481.908 740.324c-1.796-.345-37.645-6.512-79.665-13.704s-82.137-14.182-89.149-15.532c-14.894-2.869-26.187-8.327-33.13-16.012-6.526-7.223-12.351-20.256-13.12-29.353-.463-5.477 2.747-29.585 11.868-89.131 18.642-121.714 18.36-120.375 27.877-132.875 4.81-6.317 17.584-14.287 25.873-16.142 8.509-1.904 13.02-1.404 67.164 7.442 108.34 17.702 145.538 24.705 152.369 28.684 7.037 4.1 14.244 12.44 18.556 21.472 5.832 12.218 5.086 20.616-10.103 113.62-16.57 101.457-17.928 108.73-21.709 116.19-4.199 8.287-12.753 16.486-22.168 21.25-6.778 3.428-9.549 4.042-19.645 4.355-6.464.2-13.223.08-15.018-.264Z" style="fill:#666;stroke:#1a1a1a;stroke-width:7.404"/></svg>