<svg xmlns="http://www.w3.org/2000/svg" width="49" height="32" viewBox="0 0 49 32"><g transform="scale(0.65334,0.96082) translate(-83.6604,13.6804)"><path xmlns="http://www.w3.org/2000/svg" id="LT" d="M108.548-11.764c-4.24-.064-8.635.332-12.58 1.886-3.17 1.25-6.674 2.864-8.43 5.785-2.107 3.508-2.413 8.241-1.38 12.202.923 3.542 6.405 8.918 6.405 8.918s4.755-4.13 7.48-5.663c5.155-2.9 10.869-4.717 16.498-6.53 5.381-1.735 9.49-3.046 16.448-4.138s25.244-1.643 25.244-1.643-11.738-2.69-17.61-4.026c-6.098-1.39-12.542-3.093-18.867-4.402-4.38-.907-8.734-2.322-13.208-2.39z" style="fill:#6c6c6c;fill-opacity:1;stroke:#1a1a1a;stroke-width:3.81946;stroke-dasharray:none;stroke-opacity:1"/></g></svg>