<?xml version='1.0' encoding='utf-8'?>
<svg xmlns="http://www.w3.org/2000/svg" viewBox="1146.49 451.549 258.302 588.576" preserveAspectRatio="none" width="86.0164" height="98"><g id="RGRIPTOUCH" transform="matrix(-1,0,0,1,2173.122,-5.5408165)"><path style="fill:#666666;stroke:#1a1a1a;stroke-width:4" d="m 820.13947,467.92567 c 7.40454,-29.0009 92.12215,23.99895 103.05287,85.72488 10.93071,61.72592 11.01799,49.24823 0.115,98.78194 -18.51804,84.12995 -19.3165,72.22208 -27.94535,155.04744 -2.62385,25.18536 -0.72265,108.62887 25.86573,129.81689 34.93346,26.63583 114.59908,53.68574 100.00728,71.06838 -10.5857,15.8521 -24.9935,26.0615 -43.52934,30.8457 -9.77355,2.5226 -31.0282,3.4864 -44.90039,2.0352 -39.7737,-4.161 -70.2738,-17.3606 -95.83594,-41.47457 -37.22893,-35.11988 -57.44331,-89.4935 -63.94336,-171.99414 -1.94465,-24.68215 -0.85021,-87.24158 2.05664,-117.59179 7.29215,-76.13665 17.4405,-134.09671 45.05686,-242.25993 z" id="path6" /><path id="path7" style="fill:#666666;stroke:#1a1a1a;stroke-width:4" d="m 825.46827,457.09061 c -0.19662,0.0692 -0.39019,0.14205 -0.58399,0.21875 -4.02301,1.59218 -7.16177,5.12538 -8.33007,9.70117 -27.641,108.25973 -37.85002,166.53863 -45.15625,242.82227 -2.94447,30.74303 -4.05416,92.95745 -2.0625,118.23632 6.53725,82.9728 26.96402,138.42684 65.09375,174.39648 26.14084,24.6599 57.60749,38.238 97.99218,42.4629 14.43006,1.5096 35.40076,0.6574 46.21094,-2.1328 19.25805,-4.9706 34.54277,-15.7729 45.57427,-32.2149 2.3977,-2.9745 3.0213,-7.0058 1.8535,-10.3789 -0.3196,-0.92297 -0.735,-1.80968 -1.2305,-2.66793 l -5.4531,6.54493 c -0.016,0.5906 -0.3025,1.1033 -0.9766,1.9062 l -0.1308,0.1563 -0.1114,0.168 c -10.1318,15.1724 -23.62562,24.7366 -41.37693,29.3183 -8.73693,2.255 -30.27552,3.3303 -43.58984,1.9375 -39.1627,-4.0971 -68.69625,-16.9183 -93.67969,-40.48631 -36.32813,-34.27011 -56.33012,-87.56331 -62.79297,-169.5918 -1.89764,-24.08543 -0.81845,-86.98986 2.05078,-116.94726 7.27807,-75.98966 17.36726,-133.63056 44.95898,-241.69727 0.27243,-1.06699 0.61486,-1.89236 1.06055,-2.55078 -0.33283,0.20599 -0.49023,0.3457 -0.49023,0.3457 l 1.17187,-9.54687 c -5.8e-4,2e-4 -0.001,-2.1e-4 -0.002,0 z" /></g></svg>