<svg xmlns="http://www.w3.org/2000/svg" width="49" height="32" viewBox="0 0 49 32"><g transform="scale(0.60057,0.38813) translate(-558.7300,-249.6440)"><g xmlns="http://www.w3.org/2000/svg" xmlns:inkscape="http://www.inkscape.org/namespaces/inkscape" xmlns:sodipodi="http://sodipodi.sourceforge.net/DTD/sodipodi-0.dtd" inkscape:label="#RGRIP" id="RGRIP" transform="matrix(0.23391414,0,0,0.23391414,410.62356,166.93414)"><path sodipodi:nodetypes="cssssssccssssssssssssssssssscccsssssssssccc" id="RGRIP-5" d="M792.307 360.744c74.663-9.988 149.245 47.282 174.577 115.856 8.441 22.85 9.82 47.327 8.782 71.471-1.927 44.818-26.638 89.12-60.783 116.785-21.232 17.201-49.043 29.843-75.792 33.513-56.947 7.813-115.558-11.598-155.241-55.003-66.86-73.128-58.5-195.883 24.244-253.157 25.682-17.777 53.882-25.407 84.213-29.465m-7.486 18.106c14.914-1.994 31.863.917 46.785 4.718 4.379 1.115 7.772 2.59 12.164 3.951 6.457 2.002 6.946.11 14.035 3.172 34.032 14.704 64.814 40.313 81.585 74.473 31.948 65.075 14.447 150.252-45.093 192.46-19.38 13.737-42.265 21.434-65.498 24.545-6.123.82-17.853 1.619-23.393 1.166-4.438-.362-4.697-2.291-10.292-2.748-4.329-.354-6.48.051-10.293-.46-7.436-.997-16.907-2.465-24.328-4.637-7.798-2.283-15.298-4.722-22.457-8.009-12.995-5.966-25.627-14.261-36.492-24.067-12.924-11.664-23.956-25.137-32.35-40.072-1.644-2.926-2.889-5.546-4.373-8.576-19.268-39.343-21.98-86.377-4.161-126.743 2.349-5.321 4.828-10.178 7.438-15.247 1.983-3.85 3.787-7.039 6.073-10.483 9.747-14.686 21.415-27.56 35.794-37.479 5.244-3.616 11.09-7.43 16.843-10.4 18.54-9.575 37.584-12.832 58.013-15.564m69.242 10.078-3.743 3.812c16.766 12.157 33.64 20.666 47.31 37.165 19.043 22.985 30.939 51.771 35.414 81.001.945 6.173 1.488 12.707 1.488 19.06 0 3.374 0 5.512-.397 8.576-.789 6.1-1.962 15.101-3.348 21.918-4.299 21.135-13.094 41.418-25.295 59.083-15.252 22.082-37.186 39.278-61.722 49.362-9.267 3.809-19.248 6.686-29.007 8.353-2.165.37-8.923 1.212-10.27 1.449-2.858.502-3.608 1.23-4.7 1.825m48.655-290.651 1.872 2.859" style="fill:#6c6c6c;fill-opacity:1;stroke:#1a1a1a;stroke-width:12;stroke-dasharray:none;stroke-opacity:1;opacity:1"/><text xml:space="preserve" id="text2-0" x="714.955" y="571.23" style="font-size:149.333px;line-height:1.25;font-family:&quot;Bitstream Vera Sans Mono&quot;;-inkscape-font-specification:&quot;Bitstream Vera Sans Mono&quot;;letter-spacing:14.933px;word-spacing:0;fill:#1a1a1a;opacity:1"><tspan sodipodi:role="line" id="tspan2-5" x="714.955" y="571.23" style="font-style:normal;font-variant:normal;font-weight:700;font-stretch:normal;font-size:149.333px;font-family:&quot;Apolonia Nova OT&quot;;-inkscape-font-specification:&quot;Apolonia Nova OT Bold&quot;;fill:#1a1a1a">R4</tspan></text></g></g></svg>