<svg xmlns="http://www.w3.org/2000/svg" width="49" height="32" viewBox="0 0 49 32"><g transform="scale(0.60507,0.37823) translate(-553.0940,-336.9460)"><g xmlns="http://www.w3.org/2000/svg" xmlns:inkscape="http://www.inkscape.org/namespaces/inkscape" xmlns:sodipodi="http://sodipodi.sourceforge.net/DTD/sodipodi-0.dtd" inkscape:label="#RGRIP2" id="RGRIP2" transform="matrix(0.23391414,0,0,0.23391414,404.6299,153.08091)"><path sodipodi:nodetypes="csssssssssccsssssscscssssssssssssssscccccsssssssssc" id="RGRIP2-0" d="M783.822 792.904c20.648-2.73 45.444 1.422 65.317 8.068 39.235 13.122 73.566 39.62 95.835 74.723 16.783 26.454 26.915 57.162 29.037 88.1.318 4.64.888 6.966.888 11.747 0 5.053-.69 7.603-.938 12.726-3.802 78.55-66.151 143.158-143.345 152.428-118.4 14.219-216.164-121.357-183.55-231.719 12.27-41.52 37.612-77.747 76.313-98.39 13.71-7.311 28.701-12.366 43.87-15.354 5.34-1.051 11.419-1.647 16.573-2.329m40.945 27.973c7.311-6.632 15.76-1.578 24.372 1.772 21.34 8.302 40.47 22.198 56.543 38.362 48.487 48.762 62.674 127.301 30.33 188.928-12.84 24.464-32.868 45.971-57.627 58.49-11.702 5.918-25.198 11.312-38.02 13.493-6.169 1.05-6.15-.787-11.698-.149-2.827.326-6.894.79-9.75 1.167-4.69.62-10.057.416-14.622.416-2.93 0-4.777.032-7.8 0-9.48-.113-22.723-2.602-32.17-5.31-7.96-2.28-15.251-5.527-22.423-9.128-4.612-2.316-8.349-4.227-12.673-7.098-18.004-11.954-33.821-28.013-45.819-46.004-5.644-8.464-11.02-17.37-15.023-26.43-1.483-3.355-2.583-6.388-3.938-9.79-9.772-24.53-13.973-51.586-12.148-78.311 1.084-15.886 6.086-32.489 12.312-46.987 1.476-3.437 2.696-6.401 4.426-9.79 3.314-6.49 7.29-12.72 11.447-18.598 14.165-20.03 35.372-37.454 58.492-45.672 13.972-4.966 30.263-8.167 44.844-8.168h9.749c4.564 0 9.276.537 13.648 1.36 3.56.67 8.698 1.214 12.582 3.05 3.287 1.556 3.917 3.204 4.966 4.4m-2.925-3.915c2.002-.953 2.885-1.875 6.825 0m-2.925 2.937c19.658 12.268 39.37 19.546 56.505 36.306 20.785 20.328 35.1 47.88 42.933 75.284 2.429 8.5 5.328 20.607 5.814 29.367.139 2.492.262 4.3.596 6.852.367 2.805.414 4.79.414 7.831 0 3.362-.155 5.716-.561 8.81-1.756 13.388-3.531 26.706-7.891 40.135-9.106 28.049-24.903 53.475-48.091 71.998-8.231 6.575-17.588 12.035-27.297 16.092-3.091 1.291-9.295 3.577-11.674 4.675-2.96 1.366-3.715 2.258-4.899 3.167" style="fill:#6c6c6c;fill-opacity:1;stroke:#1a1a1a;stroke-width:12;stroke-dasharray:none;stroke-opacity:1;opacity:1"/><text xml:space="preserve" id="text2-0-2" x="710.223" y="1004.972" style="font-size:149.333px;line-height:1.25;font-family:&quot;Bitstream Vera Sans Mono&quot;;-inkscape-font-specification:&quot;Bitstream Vera Sans Mono&quot;;letter-spacing:14.933px;word-spacing:0;fill:#1a1a1a;opacity:1"><tspan sodipodi:role="line" id="tspan2-5-2" x="710.223" y="1004.972" style="font-style:normal;font-variant:normal;font-weight:700;font-stretch:normal;font-size:149.333px;font-family:&quot;Apolonia Nova OT&quot;;-inkscape-font-specification:&quot;Apolonia Nova OT Bold&quot;;fill:#1a1a1a">R5</tspan></text></g></g></svg>