<svg xmlns="http://www.w3.org/2000/svg" width="115.746" height="118.004" viewBox="782.676 408.139 347.237 354.013"><path d="M868.479 740.737c-14.41-4.164-24.732-12.156-30.976-23.986-4.702-8.91-5.147-11.286-19.894-106.204-15.598-100.391-15.969-103.109-15.085-110.502 2.21-18.486 17.339-35.68 34.826-39.582 19.785-4.414 191.373-33.155 198.31-33.216 16.111-.143 32.852 10.833 40.726 26.7 4.097 8.259 4.378 9.88 20.692 119.38 13.52 90.75 13.87 96.077 7.168 109.451-4.845 9.67-15.022 20.026-23.48 23.892-7.315 3.344-37.619 9.06-130.663 24.65-65.695 11.008-73.145 11.868-81.624 9.417Z" style="fill:#666;stroke:#1a1a1a;stroke-width:7.404"/></svg>