<?xml version='1.0' encoding='utf-8'?>
<svg xmlns="http://www.w3.org/2000/svg" viewBox="812.042 263.612 227.443 223.203" width="90.9772" height="89.2813"><path d="M 924.8148 276.8046 C 916.2509 277.1407 907.6078 278.6387 899.0492 281.3379 C 862.5955 292.8342 837.2250 321.9909 830.9789 359.5643 C 825.8804 390.2346 835.9408 420.8922 858.7992 444.3417 C 872.9372 458.8454 888.2870 467.4765 907.5257 471.7382 C 920.5833 474.6307 942.9307 473.8666 954.5257 470.1327 C 985.2780 460.2295 1007.6628 439.3045 1018.9574 409.9004 C 1024.3017 395.9873 1025.8567 386.3555 1025.2191 371.1327 C 1024.5703 355.6445 1022.2860 346.1690 1015.9691 332.7811 C 1010.3212 320.8110 1004.6277 312.8813 995.3988 304.1288 C 975.4924 285.2499 950.5066 275.7963 924.8148 276.8046 Z  M 932.9730 281.9139 C 952.8221 282.8897 970.6142 291.3308 984.8050 306.5018 C 1005.1928 328.2980 1011.4378 357.8642 1001.6488 386.2636 C 997.8928 397.1606 993.5354 404.3764 985.5511 412.9219 C 974.1971 425.0738 961.5745 432.6559 946.1156 436.6093 C 935.7236 439.2668 920.1160 439.2477 909.1878 436.5623 C 887.2047 431.1607 866.4521 413.5829 857.1429 392.4803 C 844.4488 363.7043 850.2435 330.0421 871.8714 306.9217 C 888.5417 289.1012 908.9831 280.7344 932.9730 281.9138 Z  M 890.9359 288.6327 C 890.9664 288.6327 890.9876 288.6427 891.0004 288.6507 L 891.0024 288.6507 C 891.0044 288.6507 891.0074 288.6607 891.0084 288.6607 C 891.1207 288.9396 888.3609 291.0125 884.5260 293.5044 C 871.0293 302.2744 859.6900 315.8127 853.2271 330.8716 C 839.6708 362.4588 847.2630 397.3827 872.9010 421.3658 C 881.1673 429.0985 890.6972 434.7869 902.1119 438.7994 C 909.7492 441.4841 912.8150 441.9987 923.5260 442.3990 C 941.1727 443.0585 949.7928 441.2942 964.5260 434.0084 C 974.9730 428.8422 976.9520 427.3960 986.1412 418.2154 C 995.2599 409.1051 996.7536 407.0755 1001.2955 397.6197 C 1008.0029 383.6559 1010.0469 375.0356 1009.9479 361.1314 C 1009.8899 352.9904 1009.2890 348.0522 1007.6354 342.1314 C 1002.2901 322.9929 989.5172 305.0215 973.5260 294.1392 C 971.0563 292.4586 969.5260 291.2217 969.6197 291.0181 C 969.6202 291.0172 969.6227 291.0081 969.6237 291.0081 L 969.6257 291.0081 L 969.6277 291.0081 C 969.6622 290.9771 969.7658 290.9851 969.9383 291.0431 C 973.3687 292.2059 984.8878 300.3421 991.1766 306.0431 C 1016.4944 328.9943 1027.3002 366.5251 1018.0145 399.2580 C 1008.6315 432.3339 983.0805 457.9961 950.9051 466.6564 C 942.0523 469.0392 921.3481 470.1339 913.1863 468.6505 C 883.5058 463.2562 857.6704 443.8872 844.2039 416.9318 C 824.2262 376.9432 834.2712 330.5566 869.0848 302.0294 C 873.9231 298.0648 889.3091 288.6309 890.9363 288.6311 Z  M 924.9769 294.9413 C 896.2016 296.5543 872.0649 316.3449 865.0355 344.0917 C 863.0885 351.7772 863.0962 367.5362 865.0511 375.1719 C 867.8490 386.1008 873.7257 396.7874 881.3343 404.7792 C 891.4660 415.4213 903.6885 422.0489 917.8890 424.6054 C 924.7630 425.8430 938.7375 425.0625 945.5257 423.0604 C 979.4305 413.0605 1000.0341 377.6667 991.5238 344.0430 C 988.3461 331.4881 984.1961 324.2801 974.5413 314.5527 C 967.7276 307.6879 964.3274 305.1379 957.5257 301.7851 C 946.4433 296.3220 936.7408 294.2819 924.9769 294.9413 Z  M 927.9984 299.2969 C 948.0332 299.0768 967.1370 308.7516 979.0414 326.6581 C 987.3091 339.0947 990.8832 354.2167 988.7660 367.8026 C 987.3796 376.6992 982.8096 388.1137 978.0257 394.6307 C 969.6298 406.0682 955.7118 415.7854 942.9730 419.1034 C 935.1074 421.1522 919.7397 420.9841 912.0257 418.7636 C 902.2294 415.9437 893.6165 410.7826 885.9847 403.1620 C 866.9211 384.1265 862.3455 356.8371 874.1586 332.6327 C 878.9833 322.7473 891.0338 310.5974 900.6898 305.8847 C 909.5919 301.5399 918.8917 299.3967 927.9984 299.2969 Z " style="fill:#000000" /></svg>