<svg xmlns="http://www.w3.org/2000/svg" width="90.977" height="89.281" viewBox="812.042 263.612 227.443 223.203"><path d="M924.815 276.805c-8.564.336-17.207 1.834-25.766 4.533-36.453 11.496-61.824 40.653-68.07 78.226-5.099 30.67 4.962 61.328 27.82 84.778 14.138 14.503 29.488 23.135 48.727 27.396 13.057 2.893 35.405 2.129 47-1.605 30.752-9.904 53.137-30.828 64.431-60.233 5.345-13.913 6.9-23.544 6.262-38.767-.649-15.488-2.933-24.964-9.25-38.352-5.648-11.97-11.341-19.9-20.57-28.652-19.907-18.88-44.892-28.333-70.584-27.324m8.158 5.109c19.85.976 37.641 9.417 51.832 24.588 20.388 21.796 26.633 51.362 16.844 79.762-3.756 10.897-8.114 18.112-16.098 26.658-11.354 12.152-23.977 19.734-39.435 23.687-10.392 2.658-26 2.639-36.928-.047-21.983-5.401-42.736-22.98-52.045-44.082-12.694-28.776-6.9-62.438 14.728-85.558 16.67-17.82 37.112-26.188 61.102-25.008m-42.037 6.719c.03 0 .052.01.064.018h.002c.002 0 .005.01.006.01.113.279-2.647 2.351-6.482 4.843-13.497 8.77-24.836 22.309-31.299 37.368-13.556 31.587-5.964 66.51 19.674 90.494 8.266 7.733 17.796 13.42 29.21 17.433 7.638 2.685 10.704 3.2 21.415 3.6 17.647.66 26.267-1.105 41-8.39 10.447-5.167 12.426-6.613 21.615-15.794 9.119-9.11 10.613-11.14 15.154-20.595 6.708-13.964 8.752-22.584 8.653-36.489-.058-8.14-.659-13.079-2.313-19-5.345-19.138-18.118-37.11-34.109-47.992-2.47-1.68-4-2.917-3.906-3.12l.004-.01h.004c.034-.032.138-.024.31.034 3.43 1.163 14.95 9.3 21.239 15 25.317 22.951 36.123 60.482 26.837 93.215-9.383 33.076-34.933 58.738-67.109 67.398-8.853 2.383-29.557 3.478-37.719 1.995-29.68-5.395-55.516-24.764-68.982-51.72-19.978-39.988-9.933-86.374 24.88-114.902 4.84-3.964 20.225-13.398 21.852-13.398Zm34.04 6.308c-28.774 1.613-52.911 21.404-59.94 49.15-1.947 7.686-1.94 23.445.015 31.08 2.798 10.93 8.675 21.616 16.283 29.608 10.132 10.642 22.355 17.27 36.555 19.826 6.874 1.238 20.848.457 27.637-1.545 33.905-10 54.508-45.393 45.998-79.017-3.178-12.555-7.328-19.763-16.983-29.49-6.813-6.865-10.214-9.415-17.015-12.768-11.083-5.463-20.785-7.503-32.55-6.844m3.022 4.356c20.035-.22 39.139 9.455 51.043 27.361 8.268 12.437 11.842 27.559 9.725 41.145-1.386 8.896-5.956 20.31-10.74 26.828-8.396 11.437-22.314 21.154-35.053 24.472-7.866 2.05-23.233 1.881-30.947-.34-9.797-2.82-18.41-7.98-26.041-15.601-19.064-19.035-23.64-46.325-11.826-70.53 4.824-9.885 16.875-22.035 26.53-26.747 8.903-4.345 18.203-6.488 27.31-6.588" style="fill:#000"/></svg>