<svg xmlns="http://www.w3.org/2000/svg" width="49" height="32" viewBox="0 0 49 32"><g transform="scale(0.65333,0.96075) translate(-530.3470,13.6804)"><path xmlns="http://www.w3.org/2000/svg" id="RT" d="M580.46-11.764c-4.473.067-8.826 1.482-13.207 2.39-6.325 1.308-12.771 3.014-18.87 4.403-5.87 1.337-17.61 4.026-17.61 4.026s18.287.549 25.245 1.641 11.067 2.406 16.448 4.14c5.63 1.813 11.345 3.628 16.5 6.528 2.725 1.533 7.478 5.665 7.478 5.665s5.484-5.376 6.407-8.918c1.032-3.96.723-8.693-1.385-12.202-1.755-2.921-5.255-4.538-8.426-5.787-3.944-1.554-8.34-1.95-12.58-1.886z" style="fill:#6c6c6c;fill-opacity:1;stroke:#1a1a1a;stroke-width:3.81946;stroke-dasharray:none;stroke-opacity:1"/></g></svg>