<svg xmlns="http://www.w3.org/2000/svg" width="89.798" height="88.251" viewBox="402.975 265.276 224.496 220.627"><path d="M517.716 277.39c-17.035.112-24.17 1.483-38.258 7.348-15.43 6.423-33.277 20.94-41.957 34.127-19.305 29.328-22.5 62.4-9.035 93.552 14.282 33.045 44.59 56.31 78.496 60.254 10.36 1.206 10.346 1.205 20.254.03 11.69-1.388 19.949-3.853 31.017-9.263 11.05-5.4 19.012-11.331 28.196-21 12.377-13.03 21.235-28.449 25.37-44.164 2.693-10.232 3.645-29.686 1.962-40.12-6.066-37.602-34.38-68.485-72.045-78.587-7.236-1.94-10.806-2.264-24-2.177m-.534 4.754c7.707-.083 15.343.587 20.034 2.039 18.688 5.783 34.691 17.755 45.152 33.781 8.44 12.93 12.348 26.328 12.348 42.34 0 21.74-8.23 40.635-24.663 56.623-11.103 10.804-21.157 16.391-35.837 19.914-16.92 4.06-35.38 1.705-51.366-6.55-15.879-8.202-27.136-19.712-35.224-36.016-21.245-42.823 2.108-94.989 49.09-109.659 4.98-1.555 12.76-2.39 20.466-2.472m38.19 6.799c2.204-.08 16.24 8.84 23.174 14.832 13.678 11.818 24.204 28.478 29.375 46.5 1.97 6.866 2.285 10.195 2.228 23.5-.06 13.933-.342 16.404-2.803 24.449-5.32 17.397-14.398 32.238-27.29 44.619-12.732 12.226-25.373 19.278-42.208 23.549-19.055 4.834-40.694 2.428-58.632-6.518-19.637-9.793-35.081-25.258-44.534-44.6-7.863-16.089-9.471-23.165-9.44-41.5.033-18.04 1.672-25.377 9.052-40.5 8.124-16.648 22.823-32.104 38.457-40.437 8.278-4.412 8.2-3.778-.223 1.856-22.489 15.041-36.83 41.647-36.807 68.289.038 44.235 40.653 82.016 85.454 79.492 11.837-.667 19.4-2.518 29.232-7.154 31.34-14.78 49.711-44.418 48.04-77.5-1.333-26.358-17.057-52.995-38.526-65.262-2.913-1.664-5.067-3.256-4.786-3.537q.074-.074.237-.078m-35.293 6.107a62 62 0 0 0-5.863.092c-10.993.694-17.762 2.602-27.28 7.69-9.296 4.969-15.229 9.915-20.904 17.427-20.825 27.566-17.8 63.996 7.264 87.442 9.833 9.198 20.737 14.655 34.177 17.105 6.505 1.186 20.59.357 27.243-1.603 17.174-5.062 32.657-18.01 40.572-33.928 6.683-13.443 8.893-28.983 6.045-42.5-6.171-29.286-32.125-50.788-61.254-51.725m-1.799 4.445c5.569 0 11.033.565 14.936 1.705 10.117 2.957 19.412 8.478 27.05 16.069 11.917 11.842 17.757 26.038 17.69 43.006-.106 26.924-19.776 52.178-45.885 58.914-7.572 1.953-21.915 1.959-29.355.014-26.239-6.86-46-32.199-46-58.98 0-27.121 19.346-51.935 46-59.003 4.321-1.146 9.995-1.723 15.564-1.726Z" style="fill:#000"/></svg>