<?xml version='1.0' encoding='utf-8'?>
<svg xmlns="http://www.w3.org/2000/svg" viewBox="402.975 265.276 224.496 220.627" width="89.7982" height="88.2508"><path d="M 517.7156 277.3899 C 500.6814 277.5024 493.5454 278.8728 479.4578 284.7375 C 464.0276 291.1611 446.1807 305.6778 437.5008 318.8645 C 418.1956 348.1932 415.0014 381.2656 428.4656 412.4172 C 442.7480 445.4616 473.0566 468.7272 506.9617 472.6711 C 517.3224 473.8766 517.3085 473.8758 527.2156 472.7001 C 538.9060 471.3131 547.1650 468.8480 558.2332 463.4384 C 569.2835 458.0376 577.2446 452.1067 586.4285 442.4384 C 598.8064 429.4077 607.6638 413.9892 611.7996 398.2743 C 614.4925 388.0418 615.4439 368.5883 613.7605 358.1532 C 607.6948 320.5523 579.3818 289.6686 541.7156 279.5673 C 534.4797 277.6268 530.9105 277.3026 517.7156 277.3896 Z  M 517.1824 282.1438 C 524.8895 282.0608 532.5248 282.7312 537.2156 284.1828 C 555.9045 289.9661 571.9071 301.9379 582.3679 317.9641 C 590.8081 330.8946 594.7156 344.2918 594.7156 360.3039 C 594.7156 382.0438 586.4858 400.9387 570.0535 416.9270 C 558.9496 427.7308 548.8956 433.3183 534.2156 436.8410 C 517.2964 440.9009 498.8359 438.5465 482.8504 430.2903 C 466.9713 422.0891 455.7141 410.5785 447.6258 394.2746 C 426.3814 351.4515 449.7337 299.2864 496.7156 284.6164 C 501.6964 283.0612 509.4753 282.2264 517.1824 282.1438 Z  M 555.3718 288.9426 C 557.5759 288.8626 571.6119 297.7839 578.5457 303.7746 C 592.2239 315.5926 602.7496 332.2528 607.9207 350.2746 C 609.8911 357.1414 610.2062 360.4702 610.1492 373.7746 C 610.0894 387.7082 609.8066 390.1793 607.3465 398.2238 C 602.0263 415.6206 592.9476 430.4622 580.0554 442.8430 C 567.3241 455.0692 554.6835 462.1213 537.8484 466.3918 C 518.7927 471.2257 497.1541 468.8199 479.2156 459.8742 C 459.5786 450.0815 444.1350 434.6165 434.6824 415.2746 C 426.8194 399.1853 425.2109 392.1090 425.2429 373.7746 C 425.2746 355.7341 426.9145 348.3973 434.2937 333.2746 C 442.4175 316.6259 457.1166 301.1700 472.7507 292.8371 C 481.0288 288.4249 480.9515 289.0587 472.5281 294.6926 C 450.0390 309.7342 435.6984 336.3399 435.7214 362.9817 C 435.7588 407.2169 476.3739 444.9982 521.1746 442.4738 C 533.0122 441.8068 540.5749 439.9562 550.4070 435.3196 C 581.7466 420.5406 600.1180 390.9019 598.4461 357.8196 C 597.1141 331.4623 581.3897 304.8246 559.9207 292.5578 C 557.0082 290.8936 554.8543 289.3019 555.1355 289.0207 C 555.1844 288.9717 555.2634 288.9467 555.3718 288.9427 Z  M 520.0789 295.0500 C 518.1369 294.9880 516.1808 295.0180 514.2156 295.1420 C 503.2233 295.8362 496.4542 297.7437 486.9363 302.8315 C 477.6405 307.8005 471.7072 312.7469 466.0320 320.2592 C 445.2065 347.8254 448.2328 384.2555 473.2957 407.7006 C 483.1294 416.8995 494.0326 422.3558 507.4734 424.8061 C 513.9779 425.9920 528.0636 425.1632 534.7156 423.2026 C 551.8905 418.1407 567.3731 405.1939 575.2879 389.2748 C 581.9715 375.8320 584.1812 360.2923 581.3328 346.7748 C 575.1616 317.4885 549.2081 295.9872 520.0789 295.0502 Z  M 518.2801 299.4953 C 523.8488 299.4953 529.3125 300.0600 533.2156 301.2004 C 543.3331 304.1567 552.6282 309.6783 560.2664 317.2688 C 572.1834 329.1113 578.0228 343.3074 577.9558 360.2746 C 577.8497 387.1988 558.1800 412.4528 532.0711 419.1887 L 532.0711 419.1887 C 524.4992 421.1417 510.1565 421.1479 502.7156 419.2027 C 476.4772 412.3423 456.7156 387.0043 456.7156 360.2222 C 456.7156 333.1016 476.0615 308.2883 502.7156 301.2203 C 507.0374 300.0740 512.7113 299.4975 518.2801 299.4937 Z " style="fill:#000000" /></svg>