<svg xmlns="http://www.w3.org/2000/svg" width="24" height="24" viewBox="0 0 24 24"><g fill-rule="evenodd"><path fill="#00135f" stroke="#7792ff" stroke-width=".45" d="M5 3.6c2-.9 4-.9 5.6-.2l-.4 1.1c-1.5-.6-3.4-.6-4.8.1Zm14 0c-2-.9-4-.9-5.6-.2l.4 1.1c1.5-.6 3.4-.6 4.8.1Z"/><path fill="#00135f" stroke="#7792ff" stroke-width=".8" d="M6 4h12c2.5 0 4 2 4.3 4.5.5 3.5.9 6.5.1 9.5-.5 2-1.4 3-2.9 3-1 0-1.7-1-2.5-2.5-.7-1.5-1.5-2-2.5-2h-5c-1 0-1.8.5-2.5 2C6.2 20 5.5 21 4.5 21c-1.5 0-2.4-1-2.9-3-.8-3-.4-6 .1-9.5C2 6 3.5 4 6 4Z"/><path fill="#7792ff" d="M6.5 5.6h1v1h1v1h-1v1h-1v-1h-1v-1h1Z"/><circle cx="17" cy="5.8" r=".62" fill="#7792ff"/><circle cx="15.9" cy="6.9" r=".62" fill="#7792ff"/><circle cx="18.1" cy="6.9" r=".62" fill="#7792ff"/><circle cx="17" cy="8" r=".62" fill="#7792ff"/><circle cx="11.3" cy="5.9" r=".4" fill="#7792ff"/><circle cx="12.7" cy="5.9" r=".4" fill="#7792ff"/><circle cx="7" cy="11.1" r="1.85" fill="#000828" stroke="#7792ff" stroke-width=".55"/><circle cx="7" cy="11.1" r=".75" fill="#7792ff"/><circle cx="17" cy="11.1" r="1.85" fill="#000828" stroke="#7792ff" stroke-width=".55"/><circle cx="17" cy="11.1" r=".75" fill="#7792ff"/><rect width="3.2" height="2.9" x="5.4" y="13.5" fill="#000828" stroke="#7792ff" stroke-width=".5" rx=".8"/><rect width="3.2" height="2.9" x="15.4" y="13.5" fill="#000828" stroke="#7792ff" stroke-width=".5" rx=".8"/></g></svg>