<?xml version="1.0" encoding="UTF-8" standalone="no"?>
<!-- Created with Inkscape (http://www.inkscape.org/) -->

<svg
   version="1.1"
   id="svg1"
   width="1370.9014"
   height="986.0376"
   viewBox="0 0 1370.9014 986.0376"
   sodipodi:docname="scnovo-grips-fim.svg"
   inkscape:version="1.4.4 (dcaf3e7d9e, 2026-05-05)"
   xml:space="preserve"
   xmlns:inkscape="http://www.inkscape.org/namespaces/inkscape"
   xmlns:sodipodi="http://sodipodi.sourceforge.net/DTD/sodipodi-0.dtd"
   xmlns="http://www.w3.org/2000/svg"
   xmlns:svg="http://www.w3.org/2000/svg"><defs
     id="defs1"><inkscape:path-effect
       effect="powerstroke"
       message=""
       id="path-effect1"
       is_visible="true"
       lpeversion="1.3"
       scale_width="1"
       interpolator_type="CentripetalCatmullRom"
       interpolator_beta="0.2"
       start_linecap_type="zerowidth"
       end_linecap_type="zerowidth"
       offset_points="6.5,3.7019999 | 18.5,3.7019999"
       linejoin_type="round"
       miter_limit="4"
       not_jump="false"
       sort_points="true" /><inkscape:path-effect
       effect="fill_between_many"
       method="bsplinespiro"
       autoreverse="false"
       close="false"
       join="false"
       linkedpaths="#path126,0,1"
       id="path-effect2" /></defs><sodipodi:namedview
     id="namedview1"
     pagecolor="#505050"
     bordercolor="#eeeeee"
     borderopacity="1"
     inkscape:showpageshadow="0"
     inkscape:pageopacity="0"
     inkscape:pagecheckerboard="0"
     inkscape:deskcolor="#505050"
     inkscape:zoom="1.0828729"
     inkscape:cx="755.85971"
     inkscape:cy="709.22451"
     inkscape:window-width="3440"
     inkscape:window-height="1385"
     inkscape:window-x="0"
     inkscape:window-y="0"
     inkscape:window-maximized="1"
     inkscape:current-layer="g1" /><g
     inkscape:groupmode="layer"
     inkscape:label="Image"
     id="g1"
     transform="translate(-33.923347,-55.346467)"><g
       id="g6"
       transform="translate(-735.54339,-5.5408165)"><path
         style="baseline-shift:baseline;display:inline;overflow:visible;vector-effect:none;fill:#c8c8c8;enable-background:accumulate;stop-color:#000000"
         d="m 820.13947,467.92567 c 7.40454,-29.0009 92.12215,23.99895 103.05287,85.72488 10.93071,61.72592 11.01799,49.24823 0.115,98.78194 -18.51804,84.12995 -19.3165,72.22208 -27.94535,155.04744 -2.62385,25.18536 -0.72265,108.62887 25.86573,129.81689 34.93346,26.63583 114.59908,53.68574 100.00728,71.06838 -10.5857,15.8521 -24.9935,26.0615 -43.52934,30.8457 -9.77355,2.5226 -31.0282,3.4864 -44.90039,2.0352 -39.7737,-4.161 -70.2738,-17.3606 -95.83594,-41.47457 -37.22893,-35.11988 -57.44331,-89.4935 -63.94336,-171.99414 -1.94465,-24.68215 -0.85021,-87.24158 2.05664,-117.59179 7.29215,-76.13665 17.4405,-134.09671 45.05686,-242.25993 z"
         id="path4" /><path
         id="path5"
         style="baseline-shift:baseline;display:inline;overflow:visible;vector-effect:none;fill:#1a1a1a;enable-background:accumulate;stop-color:#000000"
         d="m 825.46827,457.09061 c -0.19662,0.0692 -0.39019,0.14205 -0.58399,0.21875 -4.02301,1.59218 -7.16177,5.12538 -8.33007,9.70117 -27.641,108.25973 -37.85002,166.53863 -45.15625,242.82227 -2.94447,30.74303 -4.05416,92.95745 -2.0625,118.23632 6.53725,82.9728 26.96402,138.42684 65.09375,174.39648 26.14084,24.6599 57.60749,38.238 97.99218,42.4629 14.43006,1.5096 35.40076,0.6574 46.21094,-2.1328 19.25805,-4.9706 34.54277,-15.7729 45.57427,-32.2149 2.3977,-2.9745 3.0213,-7.0058 1.8535,-10.3789 -0.3196,-0.92297 -0.735,-1.80968 -1.2305,-2.66793 l -5.4531,6.54493 c -0.016,0.5906 -0.3025,1.1033 -0.9766,1.9062 l -0.1308,0.1563 -0.1114,0.168 c -10.1318,15.1724 -23.62562,24.7366 -41.37693,29.3183 -8.73693,2.255 -30.27552,3.3303 -43.58984,1.9375 -39.1627,-4.0971 -68.69625,-16.9183 -93.67969,-40.48631 -36.32813,-34.27011 -56.33012,-87.56331 -62.79297,-169.5918 -1.89764,-24.08543 -0.81845,-86.98986 2.05078,-116.94726 7.27807,-75.98966 17.36726,-133.63056 44.95898,-241.69727 0.27243,-1.06699 0.61486,-1.89236 1.06055,-2.55078 -0.33283,0.20599 -0.49023,0.3457 -0.49023,0.3457 l 1.17187,-9.54687 c -5.8e-4,2e-4 -0.001,-2.1e-4 -0.002,0 z" /></g><g
       id="g7"
       transform="matrix(-1,0,0,1,2173.122,-5.5408165)"><path
         style="baseline-shift:baseline;display:inline;overflow:visible;vector-effect:none;fill:#c8c8c8;enable-background:accumulate;stop-color:#000000"
         d="m 820.13947,467.92567 c 7.40454,-29.0009 92.12215,23.99895 103.05287,85.72488 10.93071,61.72592 11.01799,49.24823 0.115,98.78194 -18.51804,84.12995 -19.3165,72.22208 -27.94535,155.04744 -2.62385,25.18536 -0.72265,108.62887 25.86573,129.81689 34.93346,26.63583 114.59908,53.68574 100.00728,71.06838 -10.5857,15.8521 -24.9935,26.0615 -43.52934,30.8457 -9.77355,2.5226 -31.0282,3.4864 -44.90039,2.0352 -39.7737,-4.161 -70.2738,-17.3606 -95.83594,-41.47457 -37.22893,-35.11988 -57.44331,-89.4935 -63.94336,-171.99414 -1.94465,-24.68215 -0.85021,-87.24158 2.05664,-117.59179 7.29215,-76.13665 17.4405,-134.09671 45.05686,-242.25993 z"
         id="path6" /><path
         id="path7"
         style="baseline-shift:baseline;display:inline;overflow:visible;vector-effect:none;fill:#1a1a1a;enable-background:accumulate;stop-color:#000000"
         d="m 825.46827,457.09061 c -0.19662,0.0692 -0.39019,0.14205 -0.58399,0.21875 -4.02301,1.59218 -7.16177,5.12538 -8.33007,9.70117 -27.641,108.25973 -37.85002,166.53863 -45.15625,242.82227 -2.94447,30.74303 -4.05416,92.95745 -2.0625,118.23632 6.53725,82.9728 26.96402,138.42684 65.09375,174.39648 26.14084,24.6599 57.60749,38.238 97.99218,42.4629 14.43006,1.5096 35.40076,0.6574 46.21094,-2.1328 19.25805,-4.9706 34.54277,-15.7729 45.57427,-32.2149 2.3977,-2.9745 3.0213,-7.0058 1.8535,-10.3789 -0.3196,-0.92297 -0.735,-1.80968 -1.2305,-2.66793 l -5.4531,6.54493 c -0.016,0.5906 -0.3025,1.1033 -0.9766,1.9062 l -0.1308,0.1563 -0.1114,0.168 c -10.1318,15.1724 -23.62562,24.7366 -41.37693,29.3183 -8.73693,2.255 -30.27552,3.3303 -43.58984,1.9375 -39.1627,-4.0971 -68.69625,-16.9183 -93.67969,-40.48631 -36.32813,-34.27011 -56.33012,-87.56331 -62.79297,-169.5918 -1.89764,-24.08543 -0.81845,-86.98986 2.05078,-116.94726 7.27807,-75.98966 17.36726,-133.63056 44.95898,-241.69727 0.27243,-1.06699 0.61486,-1.89236 1.06055,-2.55078 -0.33283,0.20599 -0.49023,0.3457 -0.49023,0.3457 l 1.17187,-9.54687 c -5.8e-4,2e-4 -0.001,-2.1e-4 -0.002,0 z" /></g></g></svg>
