<svg xmlns="http://www.w3.org/2000/svg" width="1280" height="720" viewBox="0 0 1280 720"><rect id="background" width="1280" height="720" x="0" y="0" style="fill:#000;fill-opacity:.85"/><g id="g25" style="display:inline" transform="translate(355.97589,-325.49972)"><path id="DPAD-5" d="M122.632 547.326c-2.835.169-5.3.505-6.729.97-2.33.759-4.471 3.182-5.003 5.662-.215 1.001-.39 5.074-.39 9.05 0 6.42-.072 7.293-.64 7.806-.534.484-1.985.598-8.855.696-7.98.114-8.263.144-9.844 1.03-1.88 1.054-3.601 3.56-4.073 5.926-.623 3.127-.808 12.108-.338 16.378.477 4.324 1.096 6.1 2.63 7.531 1.867 1.741 3.026 1.934 11.593 1.934 7.878 0 8.034.015 8.592.812.473.675.569 2.169.569 8.889 0 7.748.034 8.143.849 9.687 1.538 2.917 3.425 3.732 9.923 4.289 4.058.347 8.946.244 14.174-.3 3.593-.372 5.824-1.631 7.069-3.989.814-1.542.85-1.942.85-9.536 0-7.467.043-7.983.756-8.89l.758-.962h7.941c7.94 0 7.942 0 9.924-1.004 3.773-1.91 4.562-5.317 4.265-18.402-.157-6.863-.245-7.69-.99-9.23-.888-1.833-2.402-3.157-4.36-3.812-.769-.258-4.127-.416-8.828-.416h-7.587l-.758-.962c-.714-.909-.756-1.42-.756-9.144 0-7.43-.066-8.311-.722-9.596-1.48-2.903-3.936-3.875-11.07-4.381a71 71 0 0 0-8.95-.036zm6.135 1.355c9.203.695 11.026 1.215 12.452 3.554.624 1.023.693 1.931.693 9.277.002 11.888-.45 11.393 10.412 11.393 7.251 0 7.786.048 9.322.822 2.727 1.375 3.234 2.876 3.492 10.333.118 3.405.052 8.115-.146 10.467-.424 5.019-1.056 6.387-3.49 7.566-1.432.693-2.217.756-9.474.756h-7.913l-1.192 1.064-1.193 1.065-.182 8.521c-.173 8.077-.226 8.59-1.018 9.864-1.22 1.962-3.182 2.744-7.564 3.019-2.008.125-4.473.291-5.477.368s-4.067-.068-6.806-.323c-5.807-.54-7.261-1.172-8.383-3.642-.593-1.306-.68-2.481-.687-9.273-.008-8.163-.226-9.437-1.73-10.157-.358-.172-4.46-.397-9.116-.5-7.854-.175-8.54-.244-9.494-.953-2.73-2.025-3.248-4.307-3.179-14.025.068-9.546.929-12.551 4.034-14.093 1.225-.608 2.392-.708 9.252-.797 5.043-.064 8.15-.252 8.685-.524.46-.234 1.158-.947 1.552-1.586.656-1.061.718-1.845.718-9.085 0-5.14.144-8.203.41-8.72.827-1.61 2.346-2.844 4.144-3.366 2.211-.642 9.092-1.236 11.878-1.025zm-6.534 4.437c-3.014.188-5.405.563-5.948 1.05-.537.479-.63 1.632-.73 9.004-.133 9.718-.378 10.698-3.038 12.189-1.394.782-1.84.82-9.88.825-6.246.004-8.585.127-9.058.472-.971.71-1.331 2.816-1.573 9.21-.216 5.702.23 11.391.99 12.623.26.423 2.035.558 9.258.706 9.924.203 9.977.216 11.815 2.918.794 1.166.822 1.495.822 9.664 0 6.571.111 8.61.499 9.14.369.504 1.198.752 3.195.953 2.939.296 15.474.11 17.408-.258 2.083-.397 2.268-1.24 2.268-10.295 0-7.692.032-8.044.825-9.238.453-.682 1.557-1.61 2.451-2.062 1.542-.78 2.05-.822 9.757-.822 8.03 0 8.137-.01 8.66-.822 1.596-2.477 1.504-19.945-.114-21.566-.3-.3-3.118-.49-9.155-.617-8.14-.17-8.79-.234-9.75-.951-2.332-1.74-2.473-2.379-2.674-12.118-.143-6.955-.29-8.935-.68-9.177-.275-.169-2.822-.508-5.66-.754-3.036-.262-6.674-.262-9.688-.074zm-3.325 1.772c2.087-.415 13.47-.414 15.884 0l1.826.313.183 8.577c.182 8.544.187 8.584 1.184 10.28.55.937 1.618 2.087 2.373 2.556 1.311.815 1.758.862 9.954 1.037l8.58.182.295 2.009c.375 2.567.372 12.656-.005 15.519l-.29 2.19-8.398.183c-9.476.206-10.285.405-12.392 3.047l-1.119 1.403-.314 8.821c-.172 4.852-.346 8.859-.387 8.904-.04.046-1.214.248-2.607.45-4.297.62-14.661.329-16.748-.472-.434-.166-.547-1.742-.642-8.953l-.116-8.751-1.134-1.403c-2.244-2.775-2.55-2.849-12.262-2.978l-8.65-.115-.297-2.076c-.382-2.67-.29-13.992.13-16.135l.323-1.643 8.937-.182c8.57-.176 8.993-.218 10.31-1.037.754-.47 1.822-1.62 2.373-2.556.997-1.696 1.001-1.737 1.183-10.274l.183-8.572z" style="fill:#1b1b1b;fill-opacity:1;stroke:#047100;stroke-width:.365161;stroke-opacity:1"/><path id="path23" d="M94.463 869.848c-14.524-1.52-25.66-6.34-34.995-15.145-13.595-12.825-20.976-32.68-23.35-62.806-.71-9.013-.31-31.857.75-42.94 2.664-27.802 8.976-61.128 19.06-100.624 10.452-40.935 25.377-89.302 29.906-96.912 2.072-3.48 7.452-8.926 11.37-11.507 7.118-4.689 18.2-9.04 29.807-11.702 29.973-6.877 68.834-8.721 174.14-8.262 63.903.279 84.702.862 107.227 3.005 38.44 3.657 64.368 12.766 74.505 26.175 3.3 4.367 4.916 8.174 10.1 23.798 5.936 17.896 10.124 32.648 16.465 57.998 12.134 48.509 18.266 80.087 21.775 112.144 1.26 11.52 1.806 40.678.945 50.578-2.452 28.218-9.653 47.64-22.434 60.508-10.704 10.779-24.166 15.854-41.983 15.83-11.686-.015-16.98-1.808-22.891-7.75-3.87-3.89-5.561-7.115-10.004-19.075-4.326-11.647-6.884-17.429-10.19-23.031-5.138-8.705-10.699-14.052-17.768-17.081l-3.766-1.614-44.35-.382c-57.79-.498-188.916-.132-192.346.537-3.527.687-9.77 3.839-13.276 6.702-3.874 3.164-8.507 9.415-12.028 16.226-2.627 5.083-3.98 8.335-10.277 24.706-1.236 3.213-3.082 7.09-4.1 8.617-3.866 5.788-9.127 9.517-15.896 11.264-3.569.92-11.33 1.272-16.396.743z" style="fill:#1b1b1b;fill-opacity:1;stroke:#047100;stroke-width:2.70365;stroke-opacity:1"/><path id="path22" d="M287.746 554.406c2.428-2.429.79-6.46-2.626-6.46-3.167 0-4.667 4.407-2.218 6.514 1.67 1.437 3.371 1.418 4.844-.054z" style="fill:#1b1b1b;fill-opacity:1;stroke:#047100;stroke-width:2.70365;stroke-opacity:1"/><path id="path21" d="M391.46 557.723c2.338-2.225 2.98-3.832 2.758-6.904-.13-1.803-.555-3.202-1.281-4.223-1.923-2.7-3.283-3.082-11.81-3.323-10.597-.298-16.417.176-18.38 1.5-3.638 2.451-4.64 7.7-2.105 11.023 2.766 3.626 2.799 3.633 16.827 3.487l12.488-.13z" style="fill:#2b2b2b;fill-opacity:1;stroke:#047100;stroke-width:2.70365;stroke-opacity:1"/><path id="path20" d="M208.904 558.172c4.386-2.868 4.833-9.191.902-12.743l-1.844-1.666-9.716-.34c-10.603-.372-15.828.07-17.764 1.5-2.174 1.606-3.296 4.23-3.054 7.141.345 4.161 2.935 6.829 7.187 7.401 1.366.184 6.99.23 12.499.101 9.608-.224 10.087-.28 11.79-1.394z" style="fill:#2b2b2b;fill-opacity:1;stroke:#047100;stroke-width:2.70365;stroke-opacity:1"/><path id="path19" d="M450.559 574.54c5.781-2.927 9.321-8.984 9.004-15.405-.52-10.551-10.759-18.103-20.698-15.268-8.582 2.447-13.627 10.29-12.062 18.754 2.084 11.276 13.609 17.059 23.756 11.92z" style="fill:#2b2b2b;fill-opacity:1;stroke:#047100;stroke-width:2.70365;stroke-opacity:1"/><path id="path18" d="M421.09 604.122c3.315-1.523 6.15-4.37 7.9-7.933 1.167-2.376 1.325-3.241 1.325-7.23 0-3.979-.16-4.856-1.314-7.205-1.776-3.617-5.59-7.147-9.19-8.504-2.328-.878-3.546-1.04-6.664-.882-6.497.33-11.09 3.48-14.25 9.78-1.08 2.152-1.25 3.088-1.25 6.94 0 3.794.177 4.807 1.193 6.845 1.904 3.82 4.224 6.159 8.004 8.065 3.3 1.664 3.609 1.728 7.495 1.55 3.074-.142 4.706-.486 6.75-1.426z" style="fill:#2b2b2b;fill-opacity:1;stroke:#047100;stroke-width:2.70365;stroke-opacity:1"/><path id="path17" d="M292.772 604.014c8.65-4.315 12.449-14.128 9.019-23.295-1.339-3.577-5.81-8.423-9.16-9.926-2.107-.945-3.31-1.133-7.299-1.14-4.442-.008-4.999.102-7.957 1.556-3.543 1.743-6.818 5.003-8.393 8.355-4.717 10.035.448 21.963 11.01 25.425 3.292 1.08 9.631.596 12.78-.975z" style="fill:#2b2b2b;fill-opacity:1;stroke:#047100;stroke-width:2.70365;stroke-opacity:1"/><path id="path16" d="M476.506 606.112c6.975-2.61 10.902-8.264 10.919-15.722.015-6.47-3.195-11.964-8.777-15.027-2.34-1.283-2.947-1.4-7.32-1.404-4.29-.004-5.022.128-7.29 1.315-5.152 2.697-8.097 6.565-9.163 12.036-1.573 8.073 3.848 16.86 11.923 19.325 2.364.722 7.056.47 9.708-.523z" style="fill:#2b2b2b;fill-opacity:1;stroke:#047100;stroke-width:2.70365;stroke-opacity:1"/><path id="path15" d="M136.738 627.525c2.514-.54 4.595-1.933 5.483-3.67.446-.874.715-3.85.857-9.464.135-5.367.403-8.425.777-8.876.44-.53 2.41-.74 8.625-.92 9.712-.28 11.043-.739 12.92-4.454 1.162-2.299 1.193-2.623 1.193-12.612 0-11.616-.303-12.903-3.508-14.896-1.585-.985-2.473-1.101-10.07-1.319-8.307-.238-8.336-.242-8.936-1.43-.411-.816-.604-3.696-.609-9.11-.007-7.423-.074-8.019-1.086-9.538-1.475-2.214-3.758-3.215-8.754-3.835-4.634-.576-14.131-.264-17.005.559-2.341.67-4.933 2.97-5.519 4.898-.255.84-.599 5.065-.764 9.39s-.516 8.082-.78 8.346c-.265.265-4.17.596-8.684.736-8.935.278-10.371.655-12.154 3.196-1.827 2.604-2.2 4.826-2.225 13.241-.016 5.2.2 8.975.599 10.526.675 2.62 2.336 4.762 4.26 5.494.668.253 4.948.596 9.51.761 5.146.186 8.425.498 8.635.82.186.287.445 4.422.577 9.19.215 7.79.34 8.807 1.224 10.015 1.452 1.984 3.972 3.025 8.414 3.476 4.432.45 13.824.16 17.02-.524z" style="fill:#1b1b1b;fill-opacity:1;stroke:#047100;stroke-width:2.70365;stroke-opacity:1"/><path id="path14" d="M448.676 634.985c11.35-3.973 14.654-19.192 5.994-27.609-3.385-3.29-5.915-4.318-11.099-4.513-3.93-.147-4.677-.033-7.153 1.097-6.99 3.19-11.083 10.768-9.74 18.031 1.272 6.883 5.959 12.086 12.333 13.691 2.331.587 6.948.254 9.665-.697z" style="fill:#2b2b2b;fill-opacity:1;stroke:#047100;stroke-width:2.70365;stroke-opacity:1"/><path id="path13" d="M369.988 661.936c10.05-3.399 17.597-10.037 21.97-19.326 2.618-5.559 3.383-9.046 3.36-15.322-.024-6.778-.905-10.636-3.743-16.392-1.837-3.725-2.958-5.259-6.307-8.63-7.106-7.155-14.259-10.42-23.698-10.816-6.88-.288-11.223.627-17.573 3.704-10.65 5.161-17.339 13.925-19.596 25.68-1.73 9.013.071 17.81 5.305 25.906 5.241 8.107 13.33 13.867 22.399 15.947 4.33.994 13.914.591 17.883-.751z" style="fill:#2b2b2b;fill-opacity:1;stroke:#047100;stroke-width:2.70365;stroke-opacity:1"/><path id="path12" d="M219.539 661.715c9.992-3.195 17.964-10.26 22.633-20.059 2.584-5.42 3.11-8.062 3.093-15.5-.013-5.965-.123-6.744-1.494-10.615-1.88-5.304-3.912-8.68-7.699-12.79-3.808-4.131-8.641-7.353-14.143-9.425-3.589-1.352-5.145-1.663-9.316-1.861-11.48-.546-19.976 2.67-27.933 10.575-13.316 13.23-13.894 33.258-1.404 48.591 3.431 4.212 9.824 8.717 15.034 10.595 6.735 2.428 14.598 2.608 21.228.489z" style="fill:#2b2b2b;fill-opacity:1;stroke:#047100;stroke-width:2.70365;stroke-opacity:1"/><path id="path11" d="M302.525 733.212c1.7-1.051 2.696-2.14 3.705-4.053 1.233-2.338 1.35-2.937 1.108-5.636-.412-4.59-3.02-8.05-6.872-9.12-2.373-.659-29.335-.652-31.712.008-2.344.651-5.04 3.048-6.131 5.452-2.667 5.869.973 13.326 7.122 14.594.97.2 8.22.325 16.11.279l14.345-.085z" style="fill:#1b1b1b;fill-opacity:1;stroke:#047100;stroke-width:2.70365;stroke-opacity:1"/><path id="path10" d="M368.319 785.225c5.508-.941 20.96-3.65 34.336-6.02 21.965-3.89 24.663-4.467 27.842-5.957 6.054-2.839 10.994-8.78 12.679-15.247 1.325-5.088 1.434-4.077-5.26-48.864-4.304-28.797-5.142-33.058-7.192-36.556-2.046-3.491-6.05-7.108-10.065-9.093-3.25-1.606-4.024-1.79-8.174-1.946-4.102-.154-8.04.41-37.49 5.375-18.098 3.05-34.515 5.876-36.482 6.278-8.196 1.676-14.507 7.071-17.22 14.72-1.41 3.972-1.282 9.183.518 21.23 3.645 24.387 9.13 58.676 9.798 61.24 1.98 7.601 7.242 13.182 15 15.91 4.073 1.432 8.275 1.225 21.71-1.07z" style="fill:#232323;fill-opacity:1;stroke:#047100;stroke-width:2.70365;stroke-opacity:1"/><path id="path9" d="M221.436 786.316c6.099-1.53 13.216-7.978 15.304-13.867.732-2.063 3.293-17.172 8.025-47.337 4.311-27.48 4.667-30.444 4.063-33.803-1.24-6.899-6.337-13.705-12.546-16.75-3.249-1.594-4.885-1.913-36.613-7.141-40.931-6.745-41.307-6.793-45.758-5.787-4.687 1.058-8.455 3.203-11.865 6.755-3.976 4.14-5.544 7.673-6.94 15.633-2.637 15.042-9.233 58.946-9.994 66.52-.87 8.666 4.476 18.034 12.773 22.382 2.632 1.38 5.384 1.933 43.317 8.71 33.274 5.946 34.593 6.1 40.234 4.685z" style="fill:#232323;fill-opacity:1;stroke:#047100;stroke-width:2.70365;stroke-opacity:1"/><path id="path8" d="M478.962 825.38c.43-4.596-.471-27.182-1.689-42.325-3.809-47.359-10.385-91.797-16.128-108.993-5.9-17.664-19.332-29.03-38.535-32.608-11.984-2.233-27.732-2.647-25.762-.678.137.137 4.04.444 8.673.681 21.977 1.128 32.952 5.007 42.79 15.125 9.34 9.604 12.547 18.043 17.275 45.455 6.09 35.313 11.697 91.405 11.702 117.076 0 5.787.398 9.724.98 9.724.203 0 .516-1.556.694-3.458z" style="fill:#1b1b1b;fill-opacity:1;stroke:#047100;stroke-width:2.70365;stroke-opacity:1"/><path id="path1-4" d="M89.333 828.24c.114-.327.437-6.39.72-13.471 1.738-43.56 10.064-106.406 17.872-134.893 4.878-17.796 14.484-28.698 30.293-34.38 6.792-2.441 13.109-3.428 25.904-4.05 4.674-.226 8.638-.552 8.809-.723 1.25-1.25-4.54-1.53-15.055-.728-18.07 1.379-29.61 6.05-39.024 15.797-8.366 8.66-11.789 16.88-16.412 39.41-5.085 24.78-10.436 64.671-13.066 97.39-.971 12.09-1.903 33.493-1.523 35.005.327 1.304 1.133 1.654 1.482.644z" style="fill:#1b1b1b;fill-opacity:1;stroke:#047100;stroke-width:2.70365;stroke-opacity:1"/><path id="LB-3" d="M98.325 535.031c.577-2.964 3.106-7.4 5.492-9.63 4.898-4.582 13.851-7.94 27.247-10.217 7.315-1.243 29.165-1.249 32.72-.008 2.61.912 6.702 4.049 6.06 4.647-.215.199-4.038.717-8.497 1.152-25.695 2.508-42.426 6.25-56.512 12.638a627 627 0 0 1-6.156 2.768c-.534.223-.607-.054-.354-1.35z" style="fill:#232323;fill-opacity:1;stroke:#047100;stroke-width:2.70365;stroke-opacity:1"/><path id="RB-6" d="M467.751 534.868c-12.788-6.545-35.275-11.675-61.9-14.122-5.228-.48-6.317-.71-6.2-1.31.186-.946 4.25-3.735 6.494-4.455 2.524-.81 20.623-1.1 26.502-.425 20.006 2.298 33.183 8.081 37.2 16.326 1.348 2.766 2.076 5.632 1.421 5.595-.23-.012-1.812-.737-3.517-1.61z" style="fill:#232323;fill-opacity:1;stroke:#047100;stroke-width:2.70365;stroke-opacity:1"/><path id="LPAD-7" d="M209.275 780.848c-.656-.126-13.747-2.378-29.09-5.005-15.345-2.626-29.994-5.178-32.554-5.671-5.44-1.048-9.563-3.04-12.098-5.847-2.383-2.638-4.51-7.397-4.791-10.719-.169-2 1.003-10.803 4.333-32.547 6.808-44.445 6.705-43.956 10.18-48.52 1.757-2.308 6.421-5.218 9.448-5.895 3.107-.695 4.754-.513 24.526 2.718 39.562 6.464 53.145 9.02 55.639 10.474 2.57 1.497 5.201 4.542 6.776 7.84 2.13 4.462 1.857 7.529-3.69 41.49-6.05 37.048-6.546 39.704-7.927 42.428-1.533 3.026-4.656 6.02-8.095 7.76-2.474 1.251-3.486 1.476-7.173 1.59-2.36.073-4.828.03-5.484-.097z" style="fill:#2b2b2b;fill-opacity:1;stroke:#047100;stroke-width:2.70365;stroke-opacity:1"/><path id="RPAD-7" d="M350.435 780.999q-7.892-2.28-11.31-8.76c-1.718-3.253-1.88-4.12-7.265-38.78-5.696-36.66-5.831-37.652-5.509-40.352.807-6.75 6.332-13.03 12.717-14.454 7.225-1.612 69.882-12.106 72.415-12.129 5.884-.052 11.997 3.956 14.872 9.75 1.496 3.016 1.599 3.608 7.556 43.593 4.937 33.138 5.064 35.083 2.618 39.967-1.77 3.531-5.486 7.313-8.574 8.724-2.672 1.222-13.737 3.31-47.714 9.002-23.989 4.02-26.71 4.333-29.806 3.439z" style="fill:#2b2b2b;fill-opacity:1;stroke:#047100;stroke-width:2.70365;stroke-opacity:1"/><g id="LGRIPTOUCH-4" style="fill:#2b2b2b;fill-opacity:1;stroke:none;stroke-opacity:1" transform="matrix(0.36516098,0,0,0.36516098,-246.948,488.27648)"><path id="path4-4" d="M820.14 467.926c7.404-29.001 92.122 23.999 103.052 85.725s11.018 49.248.115 98.781c-18.518 84.13-19.316 72.223-27.945 155.048-2.624 25.185-.723 108.629 25.866 129.817 34.933 26.636 114.599 53.686 100.007 71.068-10.586 15.852-24.993 26.062-43.53 30.846-9.773 2.523-31.028 3.486-44.9 2.035-39.773-4.16-70.274-17.36-95.836-41.474-37.229-35.12-57.443-89.494-63.943-171.995-1.945-24.682-.85-87.241 2.057-117.591 7.292-76.137 17.44-134.097 45.056-242.26" style="baseline-shift:baseline;display:inline;overflow:visible;vector-effect:none;fill:#2b2b2b;fill-opacity:1;stroke:none;stroke-opacity:1;stop-color:#000"/><path id="path5-3" d="M825.468 457.09q-.293.105-.584.22c-4.023 1.592-7.161 5.125-8.33 9.7-27.64 108.26-37.85 166.54-45.156 242.823-2.945 30.743-4.054 92.957-2.063 118.236 6.538 82.973 26.964 138.427 65.094 174.397 26.141 24.66 57.608 38.238 97.992 42.462 14.43 1.51 35.401.658 46.211-2.132 19.258-4.97 34.543-15.773 45.575-32.215 2.397-2.975 3.02-7.006 1.853-10.38a15.5 15.5 0 0 0-1.23-2.667l-5.453 6.545c-.016.59-.303 1.103-.977 1.906l-.13.156-.112.168c-10.132 15.173-23.626 24.737-41.377 29.319-8.737 2.255-30.276 3.33-43.59 1.937-39.163-4.097-68.696-16.918-93.68-40.486-36.328-34.27-56.33-87.563-62.793-169.592-1.897-24.085-.818-86.99 2.051-116.947 7.278-75.99 17.367-133.63 44.959-241.697.272-1.067.615-1.893 1.06-2.551-.332.206-.49.345-.49.345l1.172-9.546z" style="baseline-shift:baseline;display:inline;overflow:visible;vector-effect:none;fill:#2b2b2b;fill-opacity:1;stroke:none;stroke-opacity:1;stop-color:#000"/></g><g id="RGRIPTOUCH-0" style="fill:#2b2b2b;fill-opacity:1;stroke:none;stroke-opacity:1" transform="matrix(-0.36516098,0,0,0.36516098,815.1831,488.27648)"><path id="path6-7" d="M820.14 467.926c7.404-29.001 92.122 23.999 103.052 85.725s11.018 49.248.115 98.781c-18.518 84.13-19.316 72.223-27.945 155.048-2.624 25.185-.723 108.629 25.866 129.817 34.933 26.636 114.599 53.686 100.007 71.068-10.586 15.852-24.993 26.062-43.53 30.846-9.773 2.523-31.028 3.486-44.9 2.035-39.773-4.16-70.274-17.36-95.836-41.474-37.229-35.12-57.443-89.494-63.943-171.995-1.945-24.682-.85-87.241 2.057-117.591 7.292-76.137 17.44-134.097 45.056-242.26" style="baseline-shift:baseline;display:inline;overflow:visible;vector-effect:none;fill:#2b2b2b;fill-opacity:1;stroke:none;stroke-opacity:1;stop-color:#000"/><path id="path7-8" d="M825.468 457.09q-.293.105-.584.22c-4.023 1.592-7.161 5.125-8.33 9.7-27.64 108.26-37.85 166.54-45.156 242.823-2.945 30.743-4.054 92.957-2.063 118.236 6.538 82.973 26.964 138.427 65.094 174.397 26.141 24.66 57.608 38.238 97.992 42.462 14.43 1.51 35.401.658 46.211-2.132 19.258-4.97 34.543-15.773 45.575-32.215 2.397-2.975 3.02-7.006 1.853-10.38a15.5 15.5 0 0 0-1.23-2.667l-5.453 6.545c-.016.59-.303 1.103-.977 1.906l-.13.156-.112.168c-10.132 15.173-23.626 24.737-41.377 29.319-8.737 2.255-30.276 3.33-43.59 1.937-39.163-4.097-68.696-16.918-93.68-40.486-36.328-34.27-56.33-87.563-62.793-169.592-1.897-24.085-.818-86.99 2.051-116.947 7.278-75.99 17.367-133.63 44.959-241.697.272-1.067.615-1.893 1.06-2.551-.332.206-.49.345-.49.345l1.172-9.546z" style="baseline-shift:baseline;display:inline;overflow:visible;vector-effect:none;fill:#2b2b2b;fill-opacity:1;stroke:none;stroke-opacity:1;stop-color:#000"/></g><path id="path3" d="M122.436 553.526c-3.014.188-5.406.563-5.95 1.05-.536.479-.63 1.632-.73 9.005-.133 9.718-.377 10.697-3.037 12.188-1.395.781-1.841.82-9.881.826-6.246.004-8.584.127-9.057.472-.971.71-1.332 2.815-1.574 9.21-.216 5.7.23 11.39.99 12.622.261.424 2.036.558 9.258.706 9.924.202 9.978.216 11.816 2.918.794 1.166.82 1.496.82 9.666 0 6.57.113 8.608.5 9.138.37.505 1.2.752 3.196.953 2.94.297 15.473.111 17.406-.257 2.084-.398 2.27-1.24 2.27-10.295 0-7.693.031-8.045.824-9.239.454-.682 1.557-1.61 2.451-2.062 1.542-.779 2.052-.822 9.758-.822 8.031 0 8.135-.01 8.658-.82 1.597-2.478 1.505-19.945-.113-21.567-.3-.3-3.118-.49-9.154-.617-8.14-.17-8.79-.234-9.75-.951-2.332-1.74-2.474-2.379-2.674-12.118-.143-6.955-.29-8.936-.682-9.177-.274-.17-2.821-.509-5.66-.754-3.036-.263-6.671-.263-9.685-.075z" style="fill:#2b2b2b;fill-opacity:1;fill-rule:nonzero;stroke:#047100;stroke-width:2.9;stroke-dasharray:none;stroke-opacity:1"/><path id="path24" d="M301.964 733.273c1.7-1.052 2.696-2.14 3.705-4.054 1.233-2.337 1.35-2.936 1.108-5.636-.412-4.589-3.02-8.05-6.872-9.119-2.372-.659-29.334-.652-31.711.008-2.345.651-5.04 3.047-6.132 5.452-2.666 5.869.973 13.326 7.122 14.594.97.2 8.22.325 16.11.278l14.345-.085z" style="fill:#2b2b2b;fill-opacity:1;stroke:#047100;stroke-width:2.70365;stroke-opacity:1"/><path id="path25" d="M216.974 652.381c7.296-2.332 13.117-7.491 16.527-14.647 1.886-3.958 2.271-5.886 2.259-11.317-.01-4.356-.09-4.925-1.092-7.752-1.372-3.873-2.856-6.339-5.621-9.339-2.781-3.017-6.31-5.369-10.328-6.882-2.62-.988-3.757-1.215-6.802-1.36-8.383-.398-14.587 1.95-20.397 7.723-9.723 9.66-10.145 24.285-1.025 35.481 2.505 3.076 7.173 6.365 10.978 7.736 4.918 1.773 10.659 1.905 15.5.357z" style="fill:#1f1f1f;fill-opacity:1;stroke:#047100;stroke-width:5;stroke-dasharray:none;stroke-opacity:1"/><path id="path25-4" d="M366.482 651.837c7.297-2.333 13.118-7.492 16.528-14.647 1.886-3.958 2.27-5.887 2.258-11.318-.01-4.356-.09-4.925-1.091-7.752-1.372-3.873-2.856-6.338-5.622-9.338-2.78-3.017-6.31-5.37-10.327-6.883-2.62-.987-3.757-1.214-6.803-1.359-8.383-.399-14.586 1.95-20.397 7.722-9.722 9.66-10.145 24.285-1.024 35.482 2.505 3.075 7.173 6.365 10.977 7.736 4.918 1.772 10.66 1.904 15.501.357z" style="display:inline;fill:#1f1f1f;fill-opacity:1;stroke:#047100;stroke-width:5;stroke-dasharray:none;stroke-opacity:1"/></g><g id="root" style="display:inline"><text id="label_template" width="11" height="15" x="-100" y="-100" style="font-size:22px;font-family:&quot;Ubuntu Mono&quot;;fill:#fff">X</text><g id="markers_system"><circle cx="553.776" cy="224.903" r="5" style="fill:#000;fill-opacity:0;stroke:#06a400;stroke-width:1"/><circle cx="730.357" cy="224.889" r="5" style="fill:#000;fill-opacity:0;stroke:#06a400;stroke-width:1"/></g><g id="markers_lshoulder"><circle cx="494.672" cy="199.48" r="5" style="fill:#000;fill-opacity:0;stroke:#06a400;stroke-width:1"/><circle cx="442.929" cy="430.063" r="5" style="fill:#000;fill-opacity:0;stroke:#06a400;stroke-width:1"/></g><g id="markers_rshoulder"><circle cx="787.651" cy="199.463" r="5" style="fill:#000;fill-opacity:0;stroke:#06a400;stroke-width:1"/><circle cx="838.076" cy="430.063" r="5" style="fill:#000;fill-opacity:0;stroke:#06a400;stroke-width:1"/></g><g id="markers_lthumb"><circle cx="568.329" cy="298.648" r="5" style="fill:#000;fill-opacity:0;stroke:#06a400;stroke-width:1"/><circle cx="545.941" cy="392.174" r="5" style="fill:#000;fill-opacity:0;stroke:#06a400;stroke-width:1"/></g><g id="markers_rthumb"><circle cx="713.87" cy="298.541" r="5" style="fill:#000;fill-opacity:0;stroke:#06a400;stroke-width:1"/><circle cx="735.779" cy="392.458" r="5" style="fill:#000;fill-opacity:0;stroke:#06a400;stroke-width:1"/></g><g id="markers_face"><circle cx="794.535" cy="233.113" r="5" style="fill:#000;fill-opacity:0;stroke:#06a400;stroke-width:1"/><circle cx="794.871" cy="291.059" r="5" style="fill:#000;fill-opacity:0;stroke:#06a400;stroke-width:1"/></g></g></svg>