<svg xmlns="http://www.w3.org/2000/svg" width="52.026" height="46.604" viewBox="0 0 52.026 46.604"><g id="glyph"><g id="button"><g transform="scale(0.5) translate(-1103.84,-307.455)"><path d="M1153.09 308.081c-7.625.399-10.449 1.032-15.82 3.545-24.232 11.34-33.425 40.166-20.527 64.365 5.29 9.927 15.888 18.312 26.873 21.264 12.683 3.408 26.589 1.047 37.756-6.41 25.967-17.34 26.525-55.78 1.082-74.51-8.774-6.46-17.386-8.88-29.363-8.254m2.243 4.791c10.347-.167 20.903 3.744 29.136 12.45 19.473 20.589 13.217 52.885-12.611 65.103-7.622 3.606-20.305 4.381-27.78 1.7-20.805-7.467-31.702-26.717-27.025-47.743 4.366-19.624 21.034-31.231 38.28-31.51m.76 16.985c-1.24 0-2.703.562-3.249 1.25-.545.687-3.49 7.775-6.545 15.75s-6.473 16.637-7.595 19.25l-2.041 4.75h3.757c3.512 0 3.86-.279 5.305-4.25l1.547-4.25 8.543-.288c8.373-.281 8.553-.236 9.166 2.207a52 52 0 0 0 1.498 4.788c.689 1.811 1.582 2.267 4.242 2.162 1.853-.073 3.265-.613 3.137-1.2-.617-2.823-13.697-37.828-14.543-38.92-.533-.687-1.982-1.25-3.223-1.25m.318 10.515c.018 0 .033 0 .047.018 1.044 1.044 4.965 13.927 4.478 14.717-.676 1.098-10.343.92-10.343-.191 0-1.954 5.045-14.493 5.818-14.543Z" style="fill:#000"/></g></g></g></svg>