<?xml version='1.0' encoding='utf-8'?>
<svg xmlns="http://www.w3.org/2000/svg" viewBox="0 0 48.6265 21.8956" width="48.6265" height="21.8956"><g id="glyph"><g id="button"><g transform="scale(0.5) translate(-925.417,-145.664)"><path d="M 975.5711 145.6640 C 941.4624 145.6640 939.3031 145.9926 933.1531 152.1426 C 927.2427 158.0530 925.4169 165.5327 927.7781 174.1640 C 929.1027 179.0057 936.6820 186.7413 941.7059 188.3808 C 944.0356 189.1411 955.3507 189.4552 976.1727 189.3379 C 1010.5998 189.1440 1010.1493 189.2231 1016.8113 182.1660 C 1020.9296 177.8035 1022.5040 173.7067 1022.5750 167.1640 C 1022.6700 158.4153 1017.5208 150.5857 1009.4559 147.2168 C 1006.3736 145.9292 1000.5807 145.6640 975.5711 145.6640 Z  M 975.1844 149.6640 C 1008.3256 149.6640 1008.5331 149.6940 1013.8602 155.3242 C 1021.4687 163.3658 1019.8673 176.1958 1010.4793 182.4121 L 1006.3250 185.1640 L 976.2488 185.3496 C 959.2460 185.4553 944.7642 185.1191 942.9305 184.5742 C 936.4170 182.6385 930.6965 174.3782 930.6785 166.8808 C 930.6715 163.9844 933.2320 157.8094 935.4617 155.3437 C 936.4033 154.3026 938.8430 152.5981 940.8836 151.5566 C 944.2849 149.8206 947.1408 149.6640 975.1844 149.6640 Z  M 974.9227 157.8867 C 962.5996 157.6636 959.6727 157.8722 959.6727 158.9707 C 959.6727 159.7184 959.9852 160.6407 960.3660 161.0215 C 960.7468 161.4022 967.6093 161.5910 975.6160 161.4394 C 987.7670 161.2093 990.1727 160.9160 990.1727 159.6640 C 990.1727 158.4083 987.6889 158.1178 974.9227 157.8867 Z  M 974.9227 165.8867 C 962.5996 165.6636 959.6727 165.8722 959.6727 166.9707 C 959.6727 167.7184 959.9852 168.6407 960.3660 169.0215 C 960.7468 169.4022 967.6093 169.5910 975.6160 169.4394 C 987.7670 169.2093 990.1727 168.9160 990.1727 167.6640 C 990.1727 166.4083 987.6889 166.1178 974.9227 165.8867 Z  M 975.2469 173.6640 C 962.9358 173.6640 959.6727 173.9420 959.6727 174.9961 C 959.6727 175.7294 959.9852 176.6407 960.3660 177.0215 C 960.7468 177.4022 967.6044 177.5910 975.6043 177.4394 C 988.5336 177.1943 990.1866 176.9696 990.4852 175.4140 C 990.7934 173.8079 989.5400 173.6640 975.2469 173.6640 Z " style="fill:#000000" /></g></g></g></svg>