<svg xmlns="http://www.w3.org/2000/svg" width="49.304" height="47.456" viewBox="0 0 49.304 47.456"><g id="glyph"><g id="button"><g transform="scale(0.5) translate(-1178.98,-229.357)"><path d="M1233.092 229.357c-11.398 0-12.335.16-18.68 3.166-28.904 13.694-35.427 50.072-13.163 73.414 5.802 6.083 15.116 11.39 22.56 12.857 27.788 5.476 53.783-15.991 53.783-44.414 0-18.073-10.034-34.381-25.726-41.815-6.454-3.056-7.341-3.208-18.774-3.208m-1.552 4.515c6.108-.104 12.584 1.006 17.304 3.201 17.745 8.252 27.325 28.556 22.412 47.496-3.04 11.719-13.111 23.048-24.164 27.182-6.269 2.345-15.627 3.234-21.5 2.043-20.714-4.202-35.565-25.397-32.027-45.71 2.774-15.931 12.86-27.775 27.836-32.686 2.941-.965 6.474-1.463 10.139-1.526m-11.95 18.484v41.5h9.481c14.714 0 20.522-3.395 20.522-12 0-3.782-2.328-8.527-4.614-9.404-1.538-.59-1.51-.843.324-2.87 2.654-2.934 3.32-6.027 2.184-10.142-1.496-5.417-2.997-6.033-16.045-6.583Zm12.266 5.516c2.583.05 5.313.269 6.23.621 2.747 1.054 3.803 5.26 2.008 7.998-1.338 2.043-2.35 2.365-7.43 2.365h-5.88l-.346-5.083c-.19-2.797-.159-5.272.07-5.5.33-.329 2.765-.45 5.348-.4Zm3.754 17.121c2.67.055 4.01.484 5.098 1.469 2.397 2.17 2.424 6.596.055 8.74-1.322 1.196-3.701 1.654-8.58 1.654h-6.752l.332-5.75.33-5.75 6.365-.3a47 47 0 0 1 3.152-.062Z" style="fill:#000"/></g></g></g></svg>