<svg xmlns="http://www.w3.org/2000/svg" width="48.287" height="45.653" viewBox="0 0 48.287 45.653"><g id="glyph"><g id="button"><g transform="scale(0.5) translate(-1106.64,-145.086)"><path d="M1157.057 145.308c-13.363-.222-27.375 5.966-35.744 16.18-14.673 17.908-13.38 44.666 2.947 60.994 5.561 5.56 15.079 10.82 22.332 12.341 7.476 1.568 18.95.446 26.553-2.597 17.663-7.071 30.068-27.321 27.99-45.688-2.36-20.871-17.993-37.448-38.41-40.736a40 40 0 0 0-5.668-.494m.143 4.814a32 32 0 0 1 4.437.506c9.015 1.677 16.312 5.456 22.52 11.664 12.08 12.08 15.309 30.081 8.158 45.485-1.17 2.518-4.847 7.302-8.174 10.628-6.205 6.206-12.203 9.67-19.758 11.412-12.894 2.975-26.828-1.34-36.648-11.347-15.652-15.953-15.647-40.67.014-56.58 7.725-7.848 18.961-12.243 29.451-11.768m-18.772 19.734 1.951 3.25c12.453 20.742 12.213 20.165 12.213 29.282v8.469h7v-17.211l6.75-11.12c3.713-6.115 6.9-11.468 7.082-11.894.184-.427-1.418-.775-3.56-.775-3.853 0-3.947.093-8.678 8.59-5.42 9.734-4.527 9.882-11.025-1.84-3.65-6.583-3.84-6.75-7.737-6.75Z" style="fill:#000"/></g></g></g></svg>