<svg xmlns="http://www.w3.org/2000/svg" width="1280" height="720" viewBox="0 0 1280 720"><rect id="background" width="1280" height="720" x="0" y="0" style="fill:#000;fill-opacity:.85"/><g fill="#262626" transform="translate(396.8,171.874) scale(1.09058) translate(-0,-0)"><g id="controller" style="display:inline;opacity:1" transform="translate(-225.71241,-543.40319)"><path id="path4166-6-2-3" d="M459.212 846.848h182.273c29.162-.048 27.762-43.071 27.762-62.569V613.777c.3-21.278-8.458-29.552-19.762-29.073l-190.273.107v60.592l-7.5 5 15.1 5-7.6 5v137l-7.5 5 15.1 5-7.6 5zm-21-262.03-191.188.107c-19.645.192-18.545 21.159-18.383 28.852v170.502c0 25.175 4.25 62.569 28.071 62.569h181.5v-31.445l7.5-5-15-5 7.5-5v-138l7.5-5-15-5 7.5-5z" style="fill:#262626;fill-opacity:.138554;fill-rule:evenodd;stroke:#047100;stroke-width:4;stroke-linecap:butt;stroke-linejoin:miter;stroke-miterlimit:4;stroke-dasharray:none;stroke-opacity:1"/><path id="rect875-6" d="M459.212 591.05h41.692a4.72 4.72 0 0 1 4.732 4.732v238.846a4.72 4.72 0 0 1-4.732 4.732h-41.692l-.3-27.81 6.712-4.019-13.137-5.09 6.425-4.269.286-136.876 4.935-5.162-11.534-5.421 6.613-4.57zm-21 248.31h-41.691a4.72 4.72 0 0 1-4.732-4.732V595.782a4.72 4.72 0 0 1 4.732-4.732h41.691v57.1l-6.236 4.133 12.414 4.779-6.178 6.085v138.999l-5.82 2.06 12.532 6.264-6.712 4.488z" style="display:inline;overflow:visible;fill-opacity:.417355;stroke:#047100;stroke-width:.05;marker:none"/><path id="LB" d="M235.833 587.658c.109-2.233-.733-13.505 6.487-13.36l68.126-.71c6.123.545 8.89 5.602 8.503 10.392-31.009 3.305-81.065-1.58-83.116 3.678z" LT="path4420-4" style="fill:#262626;fill-opacity:.313725;fill-rule:evenodd;stroke:#047100;stroke-width:3;stroke-linecap:butt;stroke-linejoin:miter;stroke-miterlimit:4;stroke-dasharray:none;stroke-opacity:1"/><path id="LT" d="M239.9 574.928c.979-3.644 2.396-8.354 5.395-8.033h60.767c4.493-.04 3.826 3.527 5.665 6.371z" style="fill:#262626;fill-opacity:.313725;fill-rule:evenodd;stroke:#047100;stroke-width:2;stroke-linecap:butt;stroke-linejoin:miter;stroke-miterlimit:4;stroke-dasharray:none;stroke-opacity:1"/><path id="RB" d="M658.986 587.658c-.109-2.233.733-13.505-6.487-13.36l-68.126-.71c-6.123.545-8.89 5.602-8.503 10.392 31.009 3.305 81.065-1.58 83.116 3.678z" LT="path4420-4" style="fill:#262626;fill-opacity:.313725;fill-rule:evenodd;stroke:#047100;stroke-width:3;stroke-linecap:butt;stroke-linejoin:miter;stroke-miterlimit:4;stroke-dasharray:none;stroke-opacity:1"/><path id="RT" d="M654.92 574.928c-.98-3.644-2.397-8.354-5.397-8.033h-60.766c-4.493-.04-3.826 3.527-5.665 6.371z" style="fill:#262626;fill-opacity:.313725;fill-rule:evenodd;stroke:#047100;stroke-width:2;stroke-linecap:butt;stroke-linejoin:miter;stroke-miterlimit:4;stroke-dasharray:none;stroke-opacity:1"/><g id="g3587" transform="translate(37.726009,-50.421621)"><rect id="LPAD" width="89.504" height="89.504" x="260.992" y="744.831" ry="8.901" style="color:#000;overflow:visible;fill:#262626;fill-opacity:.603922;fill-rule:evenodd;stroke:#047100;stroke-width:2.012;stroke-miterlimit:4;stroke-dasharray:none;stop-color:#000"/><rect id="LPAD_press" width="58.256" height="58.256" x="276.616" y="760.455" ry="5.794" style="color:#000;overflow:visible;fill:#262626;fill-opacity:0;fill-rule:evenodd;stroke:none;stroke-width:1.30956;stroke-miterlimit:4;stroke-dasharray:none;stop-color:#000"/></g><g id="g3667" transform="translate(-38.390599,-50.977773)"><rect id="RPAD" width="89.504" height="89.504" x="548.109" y="745.387" ry="8.901" style="color:#000;overflow:visible;fill:#262626;fill-opacity:.603922;fill-rule:evenodd;stroke:#047100;stroke-width:2.012;stroke-miterlimit:4;stroke-dasharray:none;stop-color:#000"/><rect id="RPAD_press" width="58.256" height="58.256" x="563.733" y="761.011" ry="5.794" style="color:#000;overflow:visible;fill:#262626;fill-opacity:0;fill-rule:evenodd;stroke:none;stroke-width:1.30956;stroke-miterlimit:4;stroke-dasharray:none;stop-color:#000"/></g><g id="g4384" transform="translate(-45.625046,-65.960461)"><g id="g4365"><g id="STICK"><path id="path4168-1" d="M432.93 718.948a35.702 35.255 0 0 1-35.702 35.255 35.702 35.255 0 0 1-35.701-35.255 35.702 35.255 0 0 1 35.701-35.255 35.702 35.255 0 0 1 35.702 35.255z" style="color:#000;display:inline;overflow:visible;visibility:visible;opacity:1;fill:#262626;fill-opacity:.603352;fill-rule:evenodd;stroke:#047100;stroke-width:1.24;stroke-linecap:butt;stroke-linejoin:miter;stroke-miterlimit:4;stroke-dasharray:none;stroke-dashoffset:0;stroke-opacity:1;marker:none"/></g><circle id="STICKPRESS" cx="397.228" cy="718.502" r="19.916" style="color:#000;clip-rule:nonzero;display:inline;overflow:visible;visibility:visible;opacity:1;isolation:auto;mix-blend-mode:normal;color-interpolation:sRGB;color-interpolation-filters:linearRGB;solid-color:#000;solid-opacity:1;fill:#262626;fill-opacity:.603922;fill-rule:evenodd;stroke:#047100;stroke-width:.919;stroke-linecap:butt;stroke-linejoin:miter;stroke-miterlimit:4;stroke-dasharray:none;stroke-dashoffset:0;stroke-opacity:1;color-rendering:auto;image-rendering:auto;shape-rendering:auto;text-rendering:auto"/><circle id="LSTICKTOUCH" cx="397.228" cy="718.502" r="8.962" style="fill:#3d3d3d;fill-opacity:1;opacity:0"/></g></g><g id="g21419" transform="translate(-22.00028,26.000191)"><g id="RSTICK" transform="translate(172.37495,-91.960461)"><path id="path4168-1-0" d="M432.93 718.948a35.702 35.255 0 0 1-35.702 35.255 35.702 35.255 0 0 1-35.701-35.255 35.702 35.255 0 0 1 35.701-35.255 35.702 35.255 0 0 1 35.702 35.255z" style="color:#000;display:inline;overflow:visible;visibility:visible;opacity:1;fill:#262626;fill-opacity:.603352;fill-rule:evenodd;stroke:#047100;stroke-width:1.2401;stroke-linecap:butt;stroke-linejoin:miter;stroke-miterlimit:4;stroke-dasharray:none;stroke-dashoffset:0;stroke-opacity:1;marker:none"/></g><circle id="RSTICKPRESS" cx="569.603" cy="626.541" r="19.916" style="color:#000;clip-rule:nonzero;display:inline;overflow:visible;visibility:visible;isolation:auto;mix-blend-mode:normal;color-interpolation:sRGB;color-interpolation-filters:linearRGB;solid-color:#000;solid-opacity:1;fill:#262626;fill-opacity:.603922;fill-rule:evenodd;stroke:#047100;stroke-width:.919;stroke-linecap:butt;stroke-linejoin:miter;stroke-miterlimit:4;stroke-dasharray:none;stroke-dashoffset:0;stroke-opacity:1;color-rendering:auto;image-rendering:auto;shape-rendering:auto;text-rendering:auto"/><circle id="RSTICKTOUCH" cx="569.603" cy="626.541" r="8.962" style="fill:#3d3d3d;fill-opacity:1;opacity:0"/></g><g id="g4317" style="fill:none" transform="matrix(1.9005358,0,0,1.9005358,-518.91343,-994.0747)"><g id="g4254" style="display:inline;fill:none" transform="translate(85.000304,36.720071)"><g id="g4317-6" style="fill:none" transform="translate(0,36)"><path id="DPAD" d="M328.917 764.362c-1.293.183-2.407.637-2.548 2.548v9.882h-9.728c-1.223.203-2.341.633-2.703 2.703v8.725c.742 2.188 1.585 1.865 2.394 2.393h10.037v10.113c.164.958.806 1.757 2.278 2.279h9.08c1.472-.522 2.112-1.321 2.277-2.279v-10.113h10.037c.809-.528 1.65-.205 2.393-2.393v-8.725c-.361-2.07-1.48-2.5-2.702-2.703h-9.728v-9.882c-.142-1.91-1.254-2.365-2.547-2.548h-4.324z" style="display:inline;fill:#262626;fill-opacity:.603922;fill-rule:evenodd;stroke:#047100;stroke-width:.652448;stroke-linecap:butt;stroke-linejoin:miter;stroke-miterlimit:4;stroke-dasharray:none;stroke-opacity:1"/></g><path id="LEFT-2" d="M328.869 800.165c-1.3.184-2.422.641-2.564 2.563v9.942h-9.787c-1.23.204-2.355.637-2.719 2.719v8.777c.747 2.202 1.595 1.877 2.408 2.408h10.098v10.174c.165.963.81 1.768 2.292 2.292h9.135c1.48-.524 2.125-1.329 2.29-2.292v-10.174h10.098c.813-.53 1.66-.206 2.407-2.408v-8.777c-.363-2.082-1.488-2.515-2.718-2.719h-9.787v-9.942c-.142-1.922-1.261-2.379-2.562-2.563h-4.35z" style="display:inline;fill:#3d3d3d;fill-opacity:0;fill-rule:evenodd;stroke:none;stroke-width:.434974;stroke-linecap:butt;stroke-linejoin:miter;stroke-miterlimit:4;stroke-dasharray:none;stroke-opacity:.182266"/></g></g><path id="path2310" d="M513.91 819.54h38.65" style="fill:none;stroke:#047100;stroke-width:1px;stroke-linecap:butt;stroke-linejoin:miter;stroke-opacity:1"/><path id="path2310-1" d="m583.761 846.67-.2-4.336c22.953-1.146 60.221 5.8 57.601-44.376V758.24c.007-2.056.315-2.065 2.128-2.065h25.641" style="opacity:.305833;fill:none;stroke:#047100;stroke-width:2;stroke-linecap:butt;stroke-linejoin:miter;stroke-dasharray:none;stroke-opacity:1"/><path id="path2310-1-2" d="m313.687 846.67.2-4.336c-22.953-1.146-60.221 5.8-57.601-44.376V758.24c-.007-2.056-.315-2.065-2.128-2.065h-25.641" style="opacity:.305833;fill:none;stroke:#047100;stroke-width:2;stroke-linecap:butt;stroke-linejoin:miter;stroke-dasharray:none;stroke-opacity:1"/><path id="path2310-6" d="M513.91 823.884h34.65" style="fill:none;stroke:#047100;stroke-width:1px;stroke-linecap:butt;stroke-linejoin:miter;stroke-opacity:1"/><path id="path2310-6-5" d="M513.91 828.228h30.65" style="fill:none;stroke:#047100;stroke-width:1px;stroke-linecap:butt;stroke-linejoin:miter;stroke-opacity:1"/><path id="path2310-3" d="M384.56 819.54h-38.65" style="fill:none;stroke:#047100;stroke-width:1px;stroke-linecap:butt;stroke-linejoin:miter;stroke-opacity:1"/><path id="path2310-6-56" d="M384.56 823.884h-34.65" style="fill:none;stroke:#047100;stroke-width:1px;stroke-linecap:butt;stroke-linejoin:miter;stroke-opacity:1"/><path id="path2310-6-5-2" d="M384.56 828.228h-30.65" style="fill:none;stroke:#047100;stroke-width:1px;stroke-linecap:butt;stroke-linejoin:miter;stroke-opacity:1"/><g id="LGRIP2" transform="matrix(0.31881734,0,0,0.31881734,224.99569,655.0229)"><path id="path1" d="M80.175 85.396c26.057-4.916 57.423-.467 84-.467 10.82 0 22.451-1.59 30.47 7.3 5.46 6.052 5.492 15.908 5.53 23.7.094 19.597 3.988 45.026-.532 64-1.774 7.446-8.09 12.872-15.468 14.481-9.99 2.18-21.743.282-32 .533-18.275.448-36.679 1.986-55 1.986-10.312 0-21.822 1.602-29.957-6.108-9.144-8.667-8.75-23.265-7.953-34.892.263-3.845.862-6.308.906-10 .047-3.944.004-6.662.004-11 0-18.208-3.913-45.021 20-49.533" style="fill:none;stroke:#047100;stroke-width:10;stroke-dasharray:none;stroke-opacity:1;opacity:0"/><text xml:space="preserve" id="LGRIP2-label" x="140.4" y="125" style="font-weight:700;font-size:40px;line-height:1.25;font-family:Arial;letter-spacing:0;word-spacing:0;fill:#262626;opacity:0"><tspan id="LGRIP2-tspan" x="140.4" y="125" style="font-weight:700;font-size:40px;font-family:Arial;fill:#262626">L4</tspan></text></g><g id="LGRIP" transform="matrix(0.31881734,0,0,0.31881734,225.53502,658.53265)"><path id="path1-1" d="M146.842 216.306c13.981-1.835 41.362-4.552 50.297 8.59 6.736 9.91 3.703 34.125 3.703 45.986 0 16.91 6.818 51.661-16 55.671-6.02 1.058-11.316.618-17 1.16-20.135 1.915-41.427 1.89-62 4.593-10.98 1.443-26.748 4.245-36.996-1.907-5.52-3.313-9.209-9.539-10.486-15.517-.518-2.423-.43-4.385-.557-7-.142-2.92-.656-4.858-.872-8-1.231-17.986-.298-37.645-.085-55 .089-7.23 3.089-16.221 10.01-20.892 8.17-5.512 16.671-4.56 25.986-5.198 17.69-1.211 36.4-.175 54-2.486" style="fill:none;stroke:#047100;stroke-width:10;stroke-dasharray:none;stroke-opacity:1;opacity:0"/><text xml:space="preserve" id="LGRIP-label" x="140.4" y="255.2" style="font-weight:700;font-size:40px;line-height:1.25;font-family:Arial;letter-spacing:0;word-spacing:0;fill:#262626;opacity:0"><tspan id="LGRIP-tspan" x="140.4" y="255.2" style="font-weight:700;font-size:40px;font-family:Arial;fill:#262626">L5</tspan></text></g><g id="RGRIP" transform="matrix(0.31881734,0,0,0.31881734,538.07469,658.89646)"><path id="path1-36" d="M242.174 214.652c12.177-2.297 25.758-.043 38 .493 16.665.73 33.393.29 50 1.87 10.96 1.042 21.634.14 29.787 9.212 2.885 3.21 4.836 7.939 5.594 11.957.505 2.677.663 5.004.604 8-.081 4.116-.856 6.338-.97 11-.418 17.045-.208 34.12-.976 51-.516 11.364-6.063 20.722-18.039 23.47-20.09 4.613-45.625-3.3-66-4.434-8.104-.451-18.375-.61-26-1.611-9.657-1.268-19.621 1.521-26.581-7.44-5.86-7.546-4.419-18.021-4.419-26.985 0-18.474-1.702-39.869 1.326-58 1.639-9.815 7.799-16.67 17.674-18.532" style="fill:none;stroke:#047100;stroke-width:10;stroke-dasharray:none;stroke-opacity:1;opacity:0"/><text xml:space="preserve" id="RGRIP-label" x="234.7" y="255.8" style="font-weight:700;font-size:40px;line-height:1.25;font-family:Arial;letter-spacing:0;word-spacing:0;fill:#262626;opacity:0"><tspan id="RGRIP-tspan" x="234.7" y="255.8" style="font-weight:700;font-size:40px;font-family:Arial;fill:#262626">R5</tspan></text></g><g id="RGRIP2" transform="matrix(0.31881734,0,0,0.31881734,538.88368,655.75007)"><path id="path1-3" d="M239.477 83.094c25.743-4.867 56.74-.468 83-.468 11.598 0 23.164-1.1 31.895 8.043 6.252 6.547 6.105 14.478 6.105 22.957v43c0 6.951 1.294 15.315-.638 22-2.228 7.708-9.691 13.817-17.362 15.482-11.765 2.552-27.039.826-39-.312-15.021-1.43-30.907-1.17-46-1.17-10.022 0-23.251 2.363-30.61-6.105-6.569-7.56-5.39-17.597-5.39-26.895 0-18.585-2.686-39.904 1.004-58 1.879-9.217 7.263-16.692 16.996-18.532" style="fill:none;stroke:#047100;stroke-width:10;stroke-dasharray:none;stroke-opacity:1;opacity:0"/><g id="g1-4" transform="translate(88.20296,-129.60495)"><text xml:space="preserve" id="RGRIP2-label" x="141.4" y="253.6" style="font-weight:700;font-size:40px;line-height:1.25;font-family:Arial;letter-spacing:0;word-spacing:0;fill:#262626;opacity:0"><tspan id="RGRIP2-tspan" x="141.4" y="253.6" style="font-weight:700;font-size:40px;font-family:Arial;fill:#262626">R4</tspan></text></g></g></g><g id="layer1" style="display:none"><g id="g386-3" transform="translate(-225.71241,-923.40319)"><path id="path4166-6-2-3-6" d="M247.197 946.7c-19.645.192-18.545 21.159-18.383 28.852v265.295c0 25.285 10.193 22.537 18.383 22.568h401.651c21.277-.035 19.762-18.664 19.762-22.568V975.552c.3-21.278-8.458-29.552-19.762-29.073z" style="fill:#262626;fill-opacity:.138554;fill-rule:evenodd;stroke:#047100;stroke-width:4;stroke-linecap:butt;stroke-linejoin:miter;stroke-miterlimit:4;stroke-dasharray:none;stroke-opacity:1"/><rect id="rect875-6-7" width="113.847" height="305.194" x="391.789" y="953.05" ry="4.732" style="color:#000;clip-rule:nonzero;display:inline;overflow:visible;visibility:visible;isolation:auto;mix-blend-mode:normal;color-interpolation:sRGB;color-interpolation-filters:linearRGB;solid-color:#000;solid-opacity:1;fill:#262626;fill-opacity:.417355;fill-rule:nonzero;stroke:#047100;stroke-width:.05;stroke-linecap:butt;stroke-linejoin:miter;stroke-miterlimit:4;stroke-dasharray:none;stroke-dashoffset:0;stroke-opacity:1;marker:none;color-rendering:auto;image-rendering:auto;shape-rendering:auto;text-rendering:auto"/></g><g id="g382" transform="translate(-225.71241,-543.40319)"><path id="path4166-6-2" d="m397.712 566.613-150.515.087c-19.645.192-18.545 21.159-18.383 28.852v265.295c0 25.285 10.193 22.537 18.383 22.568h150.515m102 0h149.136c21.277-.036 19.762-18.664 19.762-22.568V595.552c.3-21.278-8.458-29.552-19.762-29.073l-149.136.083" style="fill:#262626;fill-opacity:.138554;fill-rule:evenodd;stroke:#047100;stroke-width:4;stroke-linecap:butt;stroke-linejoin:miter;stroke-miterlimit:4;stroke-dasharray:none;stroke-opacity:1"/><path id="rect875" d="M499.712 573.05h1.192a4.72 4.72 0 0 1 4.732 4.732v295.73a4.72 4.72 0 0 1-4.732 4.732h-1.192m-102 0h-1.191a4.72 4.72 0 0 1-4.732-4.732v-295.73a4.72 4.72 0 0 1 4.732-4.732h1.191" style="display:inline;overflow:visible;fill-opacity:.417355;stroke:#047100;stroke-width:.05;marker:none"/></g><g id="g1311" transform="translate(-225.71241,-558.94349)"><path id="path4166-6" d="M21.485 23.297C1.839 23.489 2.939 44.456 3.102 52.148v265.295c0 25.286 10.192 22.538 18.383 22.569h159.976l-8.138-36.436 8.542 9.412-10.22-47.378 10.99 11.911-2.977-48.714 7.964 12.415-5.478-75.292 10.03 18.652-2.538-88.235 7.63 16.566 4.74-89.715z" style="fill:#262626;fill-opacity:.138554;fill-rule:evenodd;stroke:#047100;stroke-width:4;stroke-linecap:butt;stroke-linejoin:miter;stroke-miterlimit:4;stroke-dasharray:none;stroke-opacity:1" transform="translate(225.71241,543.40319)"/><path id="path4166-6-3" d="M651.374 566.7c19.645.192 18.545 21.159 18.383 28.852v265.294c0 25.286-10.192 22.538-18.383 22.569H499.397l-5.862-36.436 9.459 9.413-3.78-47.38 9.01 11.912-7.023-48.714 10.036 12.416-16.522-75.292 11.97 18.651-15.462-88.235c2.622 5.272 3.881 8.514 8.369 16.566l3.26-89.715z" style="fill:#262626;fill-opacity:.138554;fill-rule:evenodd;stroke:#047100;stroke-width:4;stroke-linecap:butt;stroke-linejoin:miter;stroke-miterlimit:4;stroke-dasharray:none;stroke-opacity:1"/></g></g><g id="layer2" style="display:none"><g id="g4481" transform="translate(-276.61698,-484.15988)"/><g id="g4385" transform="translate(-276.61698,-524.15988)"/><g id="g4456" transform="translate(-63.173479,-524.42711)"/><g id="g4446" transform="translate(-177.17348,-524.42711)"/><g id="g4321" transform="translate(15.578967,94.60059)"/><g id="g4321-8" style="display:inline" transform="translate(232.07888,95.027211)"/><g id="g4464" transform="translate(-46.841317,-66.024647)"/><rect id="rect1064" width="31.259" height="18.786" x="91.768" y="46.831" ry="0" style="color:#000;display:inline;overflow:visible;visibility:visible;opacity:1;fill:none;fill-opacity:1;fill-rule:evenodd;stroke:#047100;stroke-width:1;stroke-linecap:butt;stroke-linejoin:miter;stroke-miterlimit:4;stroke-dasharray:none;stroke-dashoffset:0;stroke-opacity:1;marker:none"/></g></g><g id="root" style="display:inline"><text id="label_template" width="11" height="15" x="-100" y="-100" style="font-size:22px;font-family:&quot;Ubuntu Mono&quot;;fill:#fff">X</text><g id="markers_system"><circle cx="513.926" cy="233.191" r="5" style="fill:none;stroke:#06a400;stroke-width:1"/><circle cx="771.381" cy="233.191" r="5" style="fill:none;stroke:#06a400;stroke-width:1"/></g><g id="markers_lshoulder"><circle cx="434.537" cy="215.804" r="5" style="fill:none;stroke:#06a400;stroke-width:1"/><circle cx="443.769" cy="200.951" r="5" style="fill:none;stroke:#06a400;stroke-width:1"/></g><g id="markers_rshoulder"><circle cx="837.952" cy="215.856" r="5" style="fill:none;stroke:#06a400;stroke-width:1"/><circle cx="831.409" cy="200.66" r="5" style="fill:none;stroke:#06a400;stroke-width:1"/></g><g id="markers_lthumb"><circle cx="534.094" cy="291.385" r="5" style="fill:none;stroke:#06a400;stroke-width:1"/><circle cx="522.795" cy="389.555" r="5" style="fill:none;stroke:#06a400;stroke-width:1"/></g><g id="markers_rthumb"><circle cx="747.848" cy="291.386" r="5" style="fill:none;stroke:#06a400;stroke-width:1"/><circle cx="758.684" cy="388.991" r="5" style="fill:none;stroke:#06a400;stroke-width:1"/></g><g id="markers_face"><circle cx="838.165" cy="236.696" r="5" style="fill:none;stroke:#06a400;stroke-width:1"/><circle cx="838.165" cy="293.406" r="5" style="fill:none;stroke:#06a400;stroke-width:1"/></g></g></svg>