<svg xmlns="http://www.w3.org/2000/svg" width="1280" height="720" viewBox="0 0 1280 720"><rect id="background" width="1280" height="720" x="0" y="0" style="fill:#000;fill-opacity:.85"/><g fill="#262626" transform="translate(396.8,171.874) scale(1.09058) translate(-0,-0)"><g id="controller" style="display:inline"><path id="path3628" d="M59.612 46.183C26.646 95.55 14.194 166.965 9.012 211.007c-5.424 65.126-4.808 56.079.722 70.744 10.543 17.048 51.761 35.066 70.43 19.427 26.056-21.827 25.468-56.496 36.603-80.781 3.02-6.585 5.215-8.599 10.532-8.852 19.595 13.126 43.23 9.779 57.577-3.871h77.472c20.838 16.822 41.44 12.697 58.618 3.871 4.652.512 4.888 2.959 7.286 8.852 12.56 30.872 21.952 70.373 43.119 80.781 25.922 12.746 49.571 4.492 66.053-19.427 5.526-8.02 5.838-4.346.434-70.744-10.685-55.105-15.766-120.725-51.41-163.15-15.536-5.704-60.057-5.53-62.801 1.143l-21.749-.1c-1.336-1.36-3.973-2.069-8.166-2H156.763c-5.76.021-6.689 1.06-8.084 2l-26.095.19c-5.784-6.064-50.422-8.161-62.972-2.907z" style="display:inline;fill:#262626;fill-opacity:.1372549;fill-rule:evenodd;stroke:#047100;stroke-width:2.9000001;stroke-miterlimit:4;stroke-dasharray:none;stroke-opacity:1"/><path id="LPAD" d="M37.898 111.245a48.367 47.762 0 0 1 48.366-47.762 48.367 47.762 0 0 1 48.367 47.762 48.367 47.762 0 0 1-48.367 47.762 48.367 47.762 0 0 1-48.366-47.762Z" style="color:#000;display:inline;overflow:visible;visibility:visible;opacity:1;fill:none;fill-opacity:.60335197;fill-rule:evenodd;stroke:#047100;stroke-width:1.68001521;stroke-linecap:butt;stroke-linejoin:miter;stroke-miterlimit:4;stroke-dasharray:none;stroke-dashoffset:0;stroke-opacity:.31517508;marker:none"/><path id="LB" d="M60.192 44.399c2.039-4.693 3.376-4.446 6.373-6.117 8.702-4.162 28.135-5.064 40.998-1.79 4.955 1.261 5.831 3.42 7.311 7.707-20.185-2.296-35.234-5.495-54.682.2z" LT="path4420-4" style="display:inline;fill:#262626;fill-opacity:.31372549;fill-rule:evenodd;stroke:#047100;stroke-width:1.16148353;stroke-linecap:butt;stroke-linejoin:miter;stroke-miterlimit:4;stroke-dasharray:none;stroke-opacity:1"/><path id="LT" d="M72.28 28.717c6.42-1.076 17.71-1.663 33.214.066 5.112.57 4.194 5.118 4.667 8.534-7.205-3.453-38.493-3.958-46.448 2.25 1.266-2.101 1.429-9.686 8.568-10.85z" style="display:inline;fill:#262626;fill-opacity:.31372549;fill-rule:evenodd;stroke:#047100;stroke-width:1.16148353;stroke-linecap:butt;stroke-linejoin:miter;stroke-miterlimit:4;stroke-dasharray:none;stroke-opacity:1"/><g id="g4254" style="display:inline;fill:none" transform="matrix(1.9005358,0,0,1.9005358,-546.96783,-1446.5923)"><g id="g4317" style="fill:none" transform="translate(0,36)"><path id="path4730" d="M328.917 764.362c-1.293.183-2.407.637-2.548 2.548v9.882h-9.728c-1.223.203-2.341.633-2.703 2.703v8.725c.742 2.188 1.585 1.865 2.394 2.393h10.037v10.113c.164.958.806 1.757 2.278 2.279h9.08c1.472-.522 2.112-1.321 2.277-2.279v-10.113h10.037c.809-.528 1.65-.205 2.393-2.393v-8.725c-.361-2.07-1.48-2.5-2.702-2.703h-9.728v-9.882c-.142-1.91-1.254-2.365-2.547-2.548h-4.324z" style="fill:none;fill-rule:evenodd;stroke:#047100;stroke-width:.43236673;stroke-linecap:butt;stroke-linejoin:miter;stroke-miterlimit:4;stroke-dasharray:none;stroke-opacity:.182266"/><path id="DPAD_UP" d="M331.46 774.653c-1.496.213-2.784.738-2.948 2.947v11.428l7.884 8.125 7.884-8.125V777.6c-.164-2.21-1.45-2.734-2.945-2.947h-5z" style="fill:none;fill-opacity:.18048784;fill-rule:evenodd;stroke:none;stroke-width:.5;stroke-linecap:butt;stroke-linejoin:miter;stroke-miterlimit:4;stroke-dasharray:none;stroke-opacity:1"/><path id="DPAD_DOWN" d="M331.46 819.403c-1.496-.212-2.784-.737-2.948-2.947v-11.428l7.884-7.835 7.884 7.835v11.428c-.164 2.21-1.45 2.735-2.945 2.947h-5z" style="fill:none;fill-opacity:.18048784;fill-rule:evenodd;stroke:none;stroke-width:.5;stroke-linecap:butt;stroke-linejoin:miter;stroke-miterlimit:4;stroke-dasharray:none;stroke-opacity:1"/><path id="DPAD_LEFT" d="M314.247 792.083c.213-1.495.738-2.784 2.948-2.947h11.427l7.784 8.041-7.784 7.726h-11.427c-2.21-.163-2.735-1.45-2.948-2.945v-5z" style="fill:none;fill-opacity:.18048784;fill-rule:evenodd;stroke:none;stroke-width:.5;stroke-linecap:butt;stroke-linejoin:miter;stroke-miterlimit:4;stroke-dasharray:none;stroke-opacity:1"/><path id="DPAD_RIGHT" d="M358.444 792.083c-.212-1.495-.737-2.784-2.947-2.947h-11.32l-7.79 8.041 7.925 7.884 11.185-.158c2.21-.163 2.735-1.45 2.947-2.945v-5z" style="fill:none;fill-opacity:.18048784;fill-rule:evenodd;stroke:none;stroke-width:.5;stroke-linecap:butt;stroke-linejoin:miter;stroke-miterlimit:4;stroke-dasharray:none;stroke-opacity:1"/></g><path id="LEFT" d="M328.869 800.165c-1.3.184-2.422.641-2.564 2.563v9.942h-9.787c-1.23.204-2.355.637-2.719 2.719v8.777c.747 2.202 1.595 1.877 2.408 2.408h10.098v10.174c.165.963.81 1.768 2.292 2.292h9.135c1.48-.524 2.125-1.329 2.29-2.292v-10.174h10.098c.813-.53 1.66-.206 2.407-2.408v-8.777c-.363-2.082-1.488-2.515-2.718-2.719h-9.787v-9.942c-.142-1.922-1.261-2.379-2.562-2.563h-4.35z" style="display:inline;fill:#3d3d3d;fill-opacity:0;fill-rule:evenodd;stroke:none;stroke-width:.43497404;stroke-linecap:butt;stroke-linejoin:miter;stroke-miterlimit:4;stroke-dasharray:none;stroke-opacity:.182266"/></g><g id="g4359" transform="matrix(1.4518544,0,0,1.4518544,9.3448685,-31.06923)"><path id="MINUSHALF_X" d="M67.444 92.285H51.059V84.19l-7.813 14.15 7.813 12.257v-7.086h16.385z" style="color:#000;clip-rule:nonzero;display:inline;overflow:visible;visibility:visible;opacity:0;isolation:auto;mix-blend-mode:normal;color-interpolation:sRGB;color-interpolation-filters:linearRGB;solid-color:#000;solid-opacity:1;fill:#3d3d3d;fill-opacity:1;fill-rule:evenodd;stroke:none;stroke-width:.30000001;stroke-linecap:butt;stroke-linejoin:miter;stroke-miterlimit:4;stroke-dasharray:none;stroke-dashoffset:0;stroke-opacity:1;color-rendering:auto;image-rendering:auto;shape-rendering:auto;text-rendering:auto"/><path id="PLUSHALF_Y" d="M67.447 104.18v14.709h-8.095l14.15 7.812 12.256-7.812h-7.086V104.18z" style="color:#000;clip-rule:nonzero;display:inline;overflow:visible;visibility:visible;opacity:0;isolation:auto;mix-blend-mode:normal;color-interpolation:sRGB;color-interpolation-filters:linearRGB;solid-color:#000;solid-opacity:1;fill:#3d3d3d;fill-opacity:1;fill-rule:evenodd;stroke:none;stroke-width:.30000001;stroke-linecap:butt;stroke-linejoin:miter;stroke-miterlimit:4;stroke-dasharray:none;stroke-dashoffset:0;stroke-opacity:1;color-rendering:auto;image-rendering:auto;shape-rendering:auto;text-rendering:auto"/><path id="MINUSHALF_Y" d="m73.502 68.084-14.15 7.812h8.095v15.845h11.225V75.896h7.086z" style="color:#000;clip-rule:nonzero;display:inline;overflow:visible;visibility:visible;opacity:0;isolation:auto;mix-blend-mode:normal;color-interpolation:sRGB;color-interpolation-filters:linearRGB;solid-color:#000;solid-opacity:1;fill:#3d3d3d;fill-opacity:1;fill-rule:evenodd;stroke:none;stroke-width:.30000001;stroke-linecap:butt;stroke-linejoin:miter;stroke-miterlimit:4;stroke-dasharray:none;stroke-dashoffset:0;stroke-opacity:1;color-rendering:auto;image-rendering:auto;shape-rendering:auto;text-rendering:auto"/><path id="PLUSHALF_X" d="m101.863 98.34-7.812-14.15v8.095H78.826v11.225h15.225v7.086z" style="color:#000;clip-rule:nonzero;display:inline;overflow:visible;visibility:visible;opacity:0;isolation:auto;mix-blend-mode:normal;color-interpolation:sRGB;color-interpolation-filters:linearRGB;solid-color:#000;solid-opacity:1;fill:#3d3d3d;fill-opacity:1;fill-rule:evenodd;stroke:none;stroke-width:.30000001;stroke-linecap:butt;stroke-linejoin:miter;stroke-miterlimit:4;stroke-dasharray:none;stroke-dashoffset:0;stroke-opacity:1;color-rendering:auto;image-rendering:auto;shape-rendering:auto;text-rendering:auto"/></g><g id="g4359-7" style="display:inline;opacity:1;fill:#3d3d3d;fill-opacity:1" transform="matrix(1.4518544,0,0,1.4518544,174.14705,36.32714)"><path id="MINUSHALF_RX" d="M67.444 92.285H51.059V84.19l-7.813 14.15 7.813 12.257v-7.086h16.385z" style="color:#000;clip-rule:nonzero;display:inline;overflow:visible;visibility:visible;opacity:0;isolation:auto;mix-blend-mode:normal;color-interpolation:sRGB;color-interpolation-filters:linearRGB;solid-color:#000;solid-opacity:1;fill:#3d3d3d;fill-opacity:1;fill-rule:evenodd;stroke:none;stroke-width:.30000001;stroke-linecap:butt;stroke-linejoin:miter;stroke-miterlimit:4;stroke-dasharray:none;stroke-dashoffset:0;stroke-opacity:1;color-rendering:auto;image-rendering:auto;shape-rendering:auto;text-rendering:auto"/><path id="PLUSHALF_RY" d="M67.447 104.18v14.709h-8.095l14.15 7.812 12.256-7.812h-7.086V104.18z" style="color:#000;clip-rule:nonzero;display:inline;overflow:visible;visibility:visible;opacity:0;isolation:auto;mix-blend-mode:normal;color-interpolation:sRGB;color-interpolation-filters:linearRGB;solid-color:#000;solid-opacity:1;fill:#3d3d3d;fill-opacity:1;fill-rule:evenodd;stroke:none;stroke-width:.30000001;stroke-linecap:butt;stroke-linejoin:miter;stroke-miterlimit:4;stroke-dasharray:none;stroke-dashoffset:0;stroke-opacity:1;color-rendering:auto;image-rendering:auto;shape-rendering:auto;text-rendering:auto"/><path id="MINUSHALF_RY" d="m73.502 68.084-14.15 7.812h8.095v15.845h11.225V75.896h7.086z" style="color:#000;clip-rule:nonzero;display:inline;overflow:visible;visibility:visible;opacity:0;isolation:auto;mix-blend-mode:normal;color-interpolation:sRGB;color-interpolation-filters:linearRGB;solid-color:#000;solid-opacity:1;fill:#3d3d3d;fill-opacity:1;fill-rule:evenodd;stroke:none;stroke-width:.30000001;stroke-linecap:butt;stroke-linejoin:miter;stroke-miterlimit:4;stroke-dasharray:none;stroke-dashoffset:0;stroke-opacity:1;color-rendering:auto;image-rendering:auto;shape-rendering:auto;text-rendering:auto"/><path id="PLUSHALF_RX" d="m101.863 98.34-7.812-14.15v8.095H78.826v11.225h15.225v7.086z" style="color:#000;clip-rule:nonzero;display:inline;overflow:visible;visibility:visible;opacity:0;isolation:auto;mix-blend-mode:normal;color-interpolation:sRGB;color-interpolation-filters:linearRGB;solid-color:#000;solid-opacity:1;fill:#3d3d3d;fill-opacity:1;fill-rule:evenodd;stroke:none;stroke-width:.30000001;stroke-linecap:butt;stroke-linejoin:miter;stroke-miterlimit:4;stroke-dasharray:none;stroke-dashoffset:0;stroke-opacity:1;color-rendering:auto;image-rendering:auto;shape-rendering:auto;text-rendering:auto"/></g><circle id="circle4622" cx="153.679" cy="172.433" r="39.852" style="color:#000;clip-rule:nonzero;display:inline;overflow:visible;visibility:visible;opacity:1;isolation:auto;mix-blend-mode:normal;color-interpolation:sRGB;color-interpolation-filters:linearRGB;solid-color:#000;solid-opacity:1;vector-effect:none;fill:none;fill-opacity:.1372549;fill-rule:evenodd;stroke:#047100;stroke-width:1.70000005;stroke-linecap:butt;stroke-linejoin:miter;stroke-miterlimit:4;stroke-dasharray:none;stroke-dashoffset:0;stroke-opacity:.31372549;marker:none;color-rendering:auto;image-rendering:auto;shape-rendering:auto;text-rendering:auto"/><path id="RB" d="M384.57 45.262c-2.04-4.692-3.376-4.445-6.373-6.117-8.702-4.161-28.135-5.064-40.998-1.79-4.955 1.262-5.832 2.617-7.311 6.904 20.185-2.296 34.252-3.352 54.682 1.003z" LT="path4420-4" style="display:inline;fill:#262626;fill-opacity:.31372549;fill-rule:evenodd;stroke:#047100;stroke-width:1.16148353;stroke-linecap:butt;stroke-linejoin:miter;stroke-miterlimit:4;stroke-dasharray:none;stroke-opacity:1"/><path id="RT" d="M372.481 29.581c-6.419-1.077-17.709-1.664-33.213.065-5.112.57-4.195 5.119-4.667 8.535 7.205-3.453 38.493-3.958 46.448 2.25-1.266-2.101-1.429-9.686-8.568-10.85z" style="display:inline;fill:#262626;fill-opacity:.31372549;fill-rule:evenodd;stroke:#047100;stroke-width:1.16148353;stroke-linecap:butt;stroke-linejoin:miter;stroke-miterlimit:4;stroke-dasharray:none;stroke-opacity:1"/><circle id="circle4575" cx="291.86" cy="172.231" r="39.852" style="color:#000;clip-rule:nonzero;display:inline;overflow:visible;visibility:visible;opacity:1;isolation:auto;mix-blend-mode:normal;color-interpolation:sRGB;color-interpolation-filters:linearRGB;solid-color:#000;solid-opacity:1;vector-effect:none;fill:none;fill-opacity:.1372549;fill-rule:evenodd;stroke:#047100;stroke-width:1.70000005;stroke-linecap:butt;stroke-linejoin:miter;stroke-miterlimit:4;stroke-dasharray:none;stroke-dashoffset:0;stroke-opacity:.31372549;marker:none;color-rendering:auto;image-rendering:auto;shape-rendering:auto;text-rendering:auto"/><path id="circle8" d="M310.908 111.245a48.367 47.762 0 0 1 48.367-47.762 48.367 47.762 0 0 1 48.366 47.762 48.367 47.762 0 0 1-48.366 47.762 48.367 47.762 0 0 1-48.367-47.762Z" style="color:#000;display:inline;overflow:visible;visibility:visible;opacity:1;fill:none;fill-opacity:.60335197;fill-rule:evenodd;stroke:#047100;stroke-width:1.68001521;stroke-linecap:butt;stroke-linejoin:miter;stroke-miterlimit:4;stroke-dasharray:none;stroke-dashoffset:0;stroke-opacity:.31517508;marker:none"/></g><g id="layer1" style="display:inline"><path id="CPAD" d="M150.752 46.9h149.176v70.078a5.516 5.516 0 0 1-5.527 5.528H156.279a5.516 5.516 0 0 1-5.528-5.528c.666-9.099 0-70.078 0-70.078z" style="color:#000;clip-rule:nonzero;display:inline;overflow:visible;visibility:visible;opacity:1;isolation:auto;mix-blend-mode:normal;color-interpolation:sRGB;color-interpolation-filters:linearRGB;solid-color:#000;solid-opacity:1;vector-effect:none;fill:#262626;fill-opacity:.7066116;fill-rule:evenodd;stroke:#047100;stroke-width:1;stroke-linecap:butt;stroke-linejoin:miter;stroke-miterlimit:4;stroke-dasharray:none;stroke-dashoffset:0;stroke-opacity:1;marker:none;color-rendering:auto;image-rendering:auto;shape-rendering:auto;text-rendering:auto"/><path id="CPADPRESS" d="M159.68 48.398h129.534v57.755a5.516 5.516 0 0 1-5.528 5.528H165.208a5.516 5.516 0 0 1-5.528-5.528c.665-9.1 0-57.755 0-57.755" style="color:#000;clip-rule:nonzero;display:inline;overflow:visible;visibility:visible;opacity:1;isolation:auto;mix-blend-mode:normal;color-interpolation:sRGB;color-interpolation-filters:linearRGB;solid-color:#000;solid-opacity:1;vector-effect:none;fill:#262626;fill-opacity:0;fill-rule:evenodd;stroke:none;stroke-width:1;stroke-linecap:butt;stroke-linejoin:miter;stroke-miterlimit:4;stroke-dasharray:none;stroke-dashoffset:0;stroke-opacity:1;marker:none;color-rendering:auto;image-rendering:auto;shape-rendering:auto;text-rendering:auto"/></g><g id="layer3" style="display:inline"><g id="THUMBL" style="display:inline" transform="matrix(0.85646641,0,0,0.85646641,-186.89045,-444.96445)"><path id="STICK" d="M428.969 721.283a31.74 31.344 0 0 1-31.74 31.344 31.74 31.344 0 0 1-31.74-31.344 31.74 31.344 0 0 1 31.74-31.343 31.74 31.344 0 0 1 31.74 31.343z" style="color:#000;display:inline;overflow:visible;visibility:visible;opacity:1;fill:#262626;fill-opacity:.16256157;fill-rule:evenodd;stroke:#047100;stroke-width:1.10250139;stroke-linecap:butt;stroke-linejoin:miter;stroke-miterlimit:4;stroke-dasharray:none;stroke-dashoffset:0;stroke-opacity:1;marker:none"/><circle id="STICKPRESS" cx="399.292" cy="716.961" r="19.5" style="color:#000;display:inline;overflow:visible;visibility:visible;opacity:1;fill:#262626;fill-opacity:.21176471;fill-rule:evenodd;stroke:#047100;stroke-width:.77314407;stroke-linecap:butt;stroke-linejoin:miter;stroke-miterlimit:4;stroke-dasharray:none;stroke-dashoffset:0;stroke-opacity:1;marker:none"/></g><g id="THUMBR" style="display:inline" transform="matrix(-0.88747696,0,0,-0.88747696,642.62345,809.11232)"><path id="RPAD" d="M425.654 717.631a30.418 30.038 0 0 1-30.417 30.038 30.418 30.038 0 0 1-30.418-30.038 30.418 30.038 0 0 1 30.418-30.038 30.418 30.038 0 0 1 30.417 30.038z" style="color:#000;display:inline;overflow:visible;visibility:visible;opacity:1;fill:#262626;fill-opacity:.182266;fill-rule:evenodd;stroke:#047100;stroke-width:1.05656791;stroke-linecap:butt;stroke-linejoin:miter;stroke-miterlimit:4;stroke-dasharray:none;stroke-dashoffset:0;stroke-opacity:1;marker:none"/><circle id="RIGHT" cx="396.041" cy="717.876" r="18.732" style="color:#000;display:inline;overflow:visible;visibility:visible;opacity:1;fill:#262626;fill-opacity:.21182269;fill-rule:evenodd;stroke:#047100;stroke-width:.91912121;stroke-linecap:butt;stroke-linejoin:miter;stroke-miterlimit:4;stroke-dasharray:none;stroke-dashoffset:0;stroke-opacity:1;marker:none"/></g></g><g id="layer2" style="display:none"><g id="g4481" style="display:inline;fill:#262626;fill-opacity:.04313725" transform="translate(-230.68013,-486.2488)"/><g id="g4385" style="display:inline;fill:#262626;fill-opacity:.04313725" transform="translate(-218.97772,-522.36364)"/><g id="g4321" style="display:inline;fill:#262626;fill-opacity:.04313725" transform="translate(-4.96777,5.10227)"/><g id="g67890" style="display:inline;fill:#262626;fill-opacity:.04313725" transform="translate(213.45316,92.87623)"/><g id="g4464" style="display:inline;fill:#262626;fill-opacity:.04313725" transform="translate(-18.29848,-2.98212)"/><g id="g4489" style="display:inline;fill:#262626;fill-opacity:.04313725" transform="translate(29.94964,-486.24881)"/><g id="g5385" style="display:inline;fill:#262626;fill-opacity:.04313725" transform="translate(26.544905,-522.36365)"/><g id="g880" style="display:inline;fill:#262626;fill-opacity:.04313725" transform="translate(213.45316,92.87623)"><rect id="rect878" width="63.353" height=".253" x="46.562" y="79.079" ry="0" style="color:#000;display:inline;overflow:visible;visibility:visible;opacity:1;fill:#262626;fill-opacity:.04313725;fill-rule:evenodd;stroke:#047100;stroke-width:1;stroke-linecap:butt;stroke-linejoin:miter;stroke-miterlimit:4;stroke-dasharray:none;stroke-dashoffset:0;stroke-opacity:1;marker:none"/></g></g></g><g id="root" style="display:inline"><text id="label_template" width="11" height="15" x="-100" y="-100" style="font-size:22px;font-family:&quot;Ubuntu Mono&quot;;fill:#fff">X</text><g id="markers_system"><circle cx="535.782" cy="241.672" r="5" style="fill:none;stroke:#06a400;stroke-width:1"/><circle cx="734.276" cy="241.672" r="5" style="fill:none;stroke:#06a400;stroke-width:1"/></g><g id="markers_lshoulder"><circle cx="494.176" cy="219.095" r="5" style="fill:none;stroke:#06a400;stroke-width:1"/><circle cx="495.741" cy="207.415" r="5" style="fill:none;stroke:#06a400;stroke-width:1"/></g><g id="markers_rshoulder"><circle cx="780.944" cy="220.028" r="5" style="fill:none;stroke:#06a400;stroke-width:1"/><circle cx="784.498" cy="208.283" r="5" style="fill:none;stroke:#06a400;stroke-width:1"/></g><g id="markers_lthumb"><circle cx="564.4" cy="358.72" r="5" style="fill:none;stroke:#06a400;stroke-width:1"/><circle cx="488.887" cy="292.04" r="5" style="fill:none;stroke:#06a400;stroke-width:1"/></g><g id="markers_rthumb"><circle cx="714.923" cy="359.406" r="5" style="fill:none;stroke:#06a400;stroke-width:1"/></g><g id="markers_face"><circle cx="789.86" cy="261.715" r="5" style="fill:none;stroke:#06a400;stroke-width:1"/><circle cx="789.86" cy="325.965" r="5" style="fill:none;stroke:#06a400;stroke-width:1"/></g></g></svg>