<svg xmlns="http://www.w3.org/2000/svg" width="1280" height="720" viewBox="0 0 1280 720"><rect id="background" width="1280" height="720" x="0" y="0" style="fill:#000;fill-opacity:.85"/><g fill="#262626" transform="translate(396.8,171.874) scale(1.09058) translate(-0,-0)"><g id="controller" style="display:inline"><path id="path3628" d="M223 41.47c-16.73.042-41.183.678-63.832 4.132-9.606 1.262-16.82 5.087-19.738 12.148-.562 1.359-6.393.812-6.409-.658-.197-18.67-57.934-14.938-73.47-9.235C23.907 90.282 14.533 144.54 9.656 196.613c-5.403 66.398 6.786 99.361 13.567 106.352 28.098 28.97 40.18 36.129 52.67 10.082l41.855-87.293c7.388-8.912 87.962-11.055 105.252-11.414 17.29.359 97.864 2.502 105.252 11.414l41.855 87.293c12.49 26.047 24.572 18.887 52.67-10.082 6.78-6.99 18.97-39.954 13.567-106.352-4.877-52.074-14.251-106.33-49.895-148.756-15.536-5.703-73.273-9.434-73.47 9.235-.016 1.47-5.847 2.017-6.409.658-2.917-7.06-10.132-10.886-19.738-12.148-22.65-3.454-47.102-4.09-63.832-4.131Z" style="display:inline;fill:#262626;fill-opacity:.137255;fill-rule:evenodd;stroke:#047100;stroke-width:2.9;stroke-miterlimit:4;stroke-dasharray:none;stroke-opacity:1"/><g id="g4254" style="display:none;fill:none" transform="matrix(1.9005358,0,0,1.9005358,-551.76605,-1441.289)"><g id="g4317" style="fill:none" transform="translate(0,36)"><path id="path4730" d="M328.917 764.362c-1.293.183-2.407.637-2.548 2.548v9.882h-9.728c-1.223.203-2.341.633-2.703 2.703v8.725c.742 2.188 1.585 1.865 2.394 2.393h10.037v10.113c.164.958.806 1.757 2.278 2.279h9.08c1.472-.522 2.112-1.321 2.277-2.279v-10.113h10.037c.809-.528 1.65-.205 2.393-2.393v-8.725c-.361-2.07-1.48-2.5-2.702-2.703h-9.728v-9.882c-.142-1.91-1.254-2.365-2.547-2.548h-4.324z" style="fill:none;fill-rule:evenodd;stroke:#047100;stroke-width:.432367;stroke-linecap:butt;stroke-linejoin:miter;stroke-miterlimit:4;stroke-dasharray:none;stroke-opacity:.182266"/><path id="DPAD_UP" d="M331.46 774.653c-1.496.213-2.784.738-2.948 2.947v11.428l7.884 8.125 7.884-8.125V777.6c-.164-2.21-1.45-2.734-2.945-2.947h-5z" style="fill:none;fill-opacity:.180488;fill-rule:evenodd;stroke:none;stroke-width:.5;stroke-linecap:butt;stroke-linejoin:miter;stroke-miterlimit:4;stroke-dasharray:none;stroke-opacity:1"/><path id="DPAD_DOWN" d="M331.46 819.403c-1.496-.212-2.784-.737-2.948-2.947v-11.428l7.884-7.835 7.884 7.835v11.428c-.164 2.21-1.45 2.735-2.945 2.947h-5z" style="fill:none;fill-opacity:.180488;fill-rule:evenodd;stroke:none;stroke-width:.5;stroke-linecap:butt;stroke-linejoin:miter;stroke-miterlimit:4;stroke-dasharray:none;stroke-opacity:1"/><path id="DPAD_LEFT" d="M314.247 792.083c.213-1.495.738-2.784 2.948-2.947h11.427l7.784 8.041-7.784 7.726h-11.427c-2.21-.163-2.735-1.45-2.948-2.945v-5z" style="fill:none;fill-opacity:.180488;fill-rule:evenodd;stroke:none;stroke-width:.5;stroke-linecap:butt;stroke-linejoin:miter;stroke-miterlimit:4;stroke-dasharray:none;stroke-opacity:1"/><path id="DPAD_RIGHT" d="M358.444 792.083c-.212-1.495-.737-2.784-2.947-2.947h-11.32l-7.79 8.041 7.925 7.884 11.185-.158c2.21-.163 2.735-1.45 2.947-2.945v-5z" style="fill:none;fill-opacity:.180488;fill-rule:evenodd;stroke:none;stroke-width:.5;stroke-linecap:butt;stroke-linejoin:miter;stroke-miterlimit:4;stroke-dasharray:none;stroke-opacity:1"/></g><path id="LEFT" d="M328.869 800.165c-1.3.184-2.422.641-2.564 2.563v9.942h-9.787c-1.23.204-2.355.637-2.719 2.719v8.777c.747 2.202 1.595 1.877 2.408 2.408h10.098v10.174c.165.963.81 1.768 2.292 2.292h9.135c1.48-.524 2.125-1.329 2.29-2.292v-10.174h10.098c.813-.53 1.66-.206 2.407-2.408v-8.777c-.363-2.082-1.488-2.515-2.718-2.719h-9.787v-9.942c-.142-1.922-1.261-2.379-2.562-2.563h-4.35z" style="display:inline;fill:#3d3d3d;fill-opacity:0;fill-rule:evenodd;stroke:none;stroke-width:.434974;stroke-linecap:butt;stroke-linejoin:miter;stroke-miterlimit:4;stroke-dasharray:none;stroke-opacity:.182266"/></g><path id="LPAD" d="M32.847 115.033a48.367 47.762 0 0 1 48.367-47.762 48.367 47.762 0 0 1 48.366 47.762 48.367 47.762 0 0 1-48.366 47.762 48.367 47.762 0 0 1-48.367-47.762Z" style="color:#000;display:inline;overflow:visible;visibility:visible;opacity:1;fill:none;fill-opacity:.603352;fill-rule:evenodd;stroke:#047100;stroke-width:1.68002;stroke-linecap:butt;stroke-linejoin:miter;stroke-miterlimit:4;stroke-dasharray:none;stroke-dashoffset:0;stroke-opacity:.315175;marker:none"/><path id="LB" d="M59.55 47.857c2.04-4.692 4.018-7.904 7.015-9.575 8.702-4.162 28.135-5.064 40.998-1.79 4.955 1.261 5.831 3.42 7.311 7.707C94.69 41.903 79 42.163 59.551 47.857z" LT="path4420-4" style="display:inline;fill:#262626;fill-opacity:.313725;fill-rule:evenodd;stroke:#047100;stroke-width:1.16148;stroke-linecap:butt;stroke-linejoin:miter;stroke-miterlimit:4;stroke-dasharray:none;stroke-opacity:1"/><path id="LT" d="M72.28 28.717c6.42-1.076 17.71-1.663 33.214.066 5.112.57 4.194 5.118 4.667 8.534-7.205-3.453-37.735-3.705-45.69 2.503 1.266-2.101.67-9.939 7.81-11.103z" style="display:inline;fill:#262626;fill-opacity:.313725;fill-rule:evenodd;stroke:#047100;stroke-width:1.16148;stroke-linecap:butt;stroke-linejoin:miter;stroke-miterlimit:4;stroke-dasharray:none;stroke-opacity:1"/><g id="g4359" transform="matrix(1.4518544,0,0,1.4518544,9.3448685,-31.06923)"><path id="MINUSHALF_X" d="M67.444 92.285H51.059V84.19l-7.813 14.15 7.813 12.257v-7.086h16.385z" style="color:#000;clip-rule:nonzero;display:inline;overflow:visible;visibility:visible;opacity:0;isolation:auto;mix-blend-mode:normal;color-interpolation:sRGB;color-interpolation-filters:linearRGB;solid-color:#000;solid-opacity:1;fill:#3d3d3d;fill-opacity:1;fill-rule:evenodd;stroke:none;stroke-width:.3;stroke-linecap:butt;stroke-linejoin:miter;stroke-miterlimit:4;stroke-dasharray:none;stroke-dashoffset:0;stroke-opacity:1;color-rendering:auto;image-rendering:auto;shape-rendering:auto;text-rendering:auto"/><path id="PLUSHALF_Y" d="M67.447 104.18v14.709h-8.095l14.15 7.812 12.256-7.812h-7.086V104.18z" style="color:#000;clip-rule:nonzero;display:inline;overflow:visible;visibility:visible;opacity:0;isolation:auto;mix-blend-mode:normal;color-interpolation:sRGB;color-interpolation-filters:linearRGB;solid-color:#000;solid-opacity:1;fill:#3d3d3d;fill-opacity:1;fill-rule:evenodd;stroke:none;stroke-width:.3;stroke-linecap:butt;stroke-linejoin:miter;stroke-miterlimit:4;stroke-dasharray:none;stroke-dashoffset:0;stroke-opacity:1;color-rendering:auto;image-rendering:auto;shape-rendering:auto;text-rendering:auto"/><path id="MINUSHALF_Y" d="m73.502 68.084-14.15 7.812h8.095v15.845h11.225V75.896h7.086z" style="color:#000;clip-rule:nonzero;display:inline;overflow:visible;visibility:visible;opacity:0;isolation:auto;mix-blend-mode:normal;color-interpolation:sRGB;color-interpolation-filters:linearRGB;solid-color:#000;solid-opacity:1;fill:#3d3d3d;fill-opacity:1;fill-rule:evenodd;stroke:none;stroke-width:.3;stroke-linecap:butt;stroke-linejoin:miter;stroke-miterlimit:4;stroke-dasharray:none;stroke-dashoffset:0;stroke-opacity:1;color-rendering:auto;image-rendering:auto;shape-rendering:auto;text-rendering:auto"/><path id="PLUSHALF_X" d="m101.863 98.34-7.812-14.15v8.095H78.826v11.225h15.225v7.086z" style="color:#000;clip-rule:nonzero;display:inline;overflow:visible;visibility:visible;opacity:0;isolation:auto;mix-blend-mode:normal;color-interpolation:sRGB;color-interpolation-filters:linearRGB;solid-color:#000;solid-opacity:1;fill:#3d3d3d;fill-opacity:1;fill-rule:evenodd;stroke:none;stroke-width:.3;stroke-linecap:butt;stroke-linejoin:miter;stroke-miterlimit:4;stroke-dasharray:none;stroke-dashoffset:0;stroke-opacity:1;color-rendering:auto;image-rendering:auto;shape-rendering:auto;text-rendering:auto"/></g><g id="g4359-7" style="display:inline;opacity:1;fill:#3d3d3d;fill-opacity:1" transform="matrix(1.4518544,0,0,1.4518544,174.14705,36.32714)"><path id="MINUSHALF_RX" d="M67.444 92.285H51.059V84.19l-7.813 14.15 7.813 12.257v-7.086h16.385z" style="color:#000;clip-rule:nonzero;display:inline;overflow:visible;visibility:visible;opacity:0;isolation:auto;mix-blend-mode:normal;color-interpolation:sRGB;color-interpolation-filters:linearRGB;solid-color:#000;solid-opacity:1;fill:#3d3d3d;fill-opacity:1;fill-rule:evenodd;stroke:none;stroke-width:.3;stroke-linecap:butt;stroke-linejoin:miter;stroke-miterlimit:4;stroke-dasharray:none;stroke-dashoffset:0;stroke-opacity:1;color-rendering:auto;image-rendering:auto;shape-rendering:auto;text-rendering:auto"/><path id="PLUSHALF_RY" d="M67.447 104.18v14.709h-8.095l14.15 7.812 12.256-7.812h-7.086V104.18z" style="color:#000;clip-rule:nonzero;display:inline;overflow:visible;visibility:visible;opacity:0;isolation:auto;mix-blend-mode:normal;color-interpolation:sRGB;color-interpolation-filters:linearRGB;solid-color:#000;solid-opacity:1;fill:#3d3d3d;fill-opacity:1;fill-rule:evenodd;stroke:none;stroke-width:.3;stroke-linecap:butt;stroke-linejoin:miter;stroke-miterlimit:4;stroke-dasharray:none;stroke-dashoffset:0;stroke-opacity:1;color-rendering:auto;image-rendering:auto;shape-rendering:auto;text-rendering:auto"/><path id="MINUSHALF_RY" d="m73.502 68.084-14.15 7.812h8.095v15.845h11.225V75.896h7.086z" style="color:#000;clip-rule:nonzero;display:inline;overflow:visible;visibility:visible;opacity:0;isolation:auto;mix-blend-mode:normal;color-interpolation:sRGB;color-interpolation-filters:linearRGB;solid-color:#000;solid-opacity:1;fill:#3d3d3d;fill-opacity:1;fill-rule:evenodd;stroke:none;stroke-width:.3;stroke-linecap:butt;stroke-linejoin:miter;stroke-miterlimit:4;stroke-dasharray:none;stroke-dashoffset:0;stroke-opacity:1;color-rendering:auto;image-rendering:auto;shape-rendering:auto;text-rendering:auto"/><path id="PLUSHALF_RX" d="m101.863 98.34-7.812-14.15v8.095H78.826v11.225h15.225v7.086z" style="color:#000;clip-rule:nonzero;display:inline;overflow:visible;visibility:visible;opacity:0;isolation:auto;mix-blend-mode:normal;color-interpolation:sRGB;color-interpolation-filters:linearRGB;solid-color:#000;solid-opacity:1;fill:#3d3d3d;fill-opacity:1;fill-rule:evenodd;stroke:none;stroke-width:.3;stroke-linecap:butt;stroke-linejoin:miter;stroke-miterlimit:4;stroke-dasharray:none;stroke-dashoffset:0;stroke-opacity:1;color-rendering:auto;image-rendering:auto;shape-rendering:auto;text-rendering:auto"/></g><circle id="circle4622" cx="153.679" cy="172.433" r="39.852" style="color:#000;clip-rule:nonzero;display:inline;overflow:visible;visibility:visible;opacity:1;isolation:auto;mix-blend-mode:normal;color-interpolation:sRGB;color-interpolation-filters:linearRGB;solid-color:#000;solid-opacity:1;vector-effect:none;fill:none;fill-opacity:.137255;fill-rule:evenodd;stroke:#047100;stroke-width:1.7;stroke-linecap:butt;stroke-linejoin:miter;stroke-miterlimit:4;stroke-dasharray:none;stroke-dashoffset:0;stroke-opacity:.313725;marker:none;color-rendering:auto;image-rendering:auto;shape-rendering:auto;text-rendering:auto"/><path id="RB" d="M384.57 45.262c-2.04-4.692-3.376-4.445-6.373-6.117-8.702-4.161-28.135-5.064-40.998-1.79-4.955 1.262-5.832 2.617-7.311 6.904 20.185-2.296 34.252-3.352 54.682 1.003z" LT="path4420-4" style="display:inline;fill:#262626;fill-opacity:.313725;fill-rule:evenodd;stroke:#047100;stroke-width:1.16148;stroke-linecap:butt;stroke-linejoin:miter;stroke-miterlimit:4;stroke-dasharray:none;stroke-opacity:1"/><path id="RT" d="M372.481 29.581c-6.419-1.077-17.709-1.664-33.213.065-5.112.57-4.195 5.119-4.667 8.535 7.205-3.453 38.493-3.958 46.448 2.25-1.266-2.101-1.429-9.686-8.568-10.85z" style="display:inline;fill:#262626;fill-opacity:.313725;fill-rule:evenodd;stroke:#047100;stroke-width:1.16148;stroke-linecap:butt;stroke-linejoin:miter;stroke-miterlimit:4;stroke-dasharray:none;stroke-opacity:1"/><circle id="circle4575" cx="291.86" cy="172.231" r="39.852" style="color:#000;clip-rule:nonzero;display:inline;overflow:visible;visibility:visible;opacity:1;isolation:auto;mix-blend-mode:normal;color-interpolation:sRGB;color-interpolation-filters:linearRGB;solid-color:#000;solid-opacity:1;vector-effect:none;fill:none;fill-opacity:.137255;fill-rule:evenodd;stroke:#047100;stroke-width:1.7;stroke-linecap:butt;stroke-linejoin:miter;stroke-miterlimit:4;stroke-dasharray:none;stroke-dashoffset:0;stroke-opacity:.313725;marker:none;color-rendering:auto;image-rendering:auto;shape-rendering:auto;text-rendering:auto"/><path id="circle8" d="M315.454 114.78a48.367 47.762 0 0 1 48.366-47.76 48.367 47.762 0 0 1 48.367 47.762 48.367 47.762 0 0 1-48.367 47.761 48.367 47.762 0 0 1-48.366-47.761z" style="color:#000;display:inline;overflow:visible;visibility:visible;opacity:1;fill:none;fill-opacity:.603352;fill-rule:evenodd;stroke:#047100;stroke-width:1.68002;stroke-linecap:butt;stroke-linejoin:miter;stroke-miterlimit:4;stroke-dasharray:none;stroke-dashoffset:0;stroke-opacity:.315175;marker:none"/><path id="path3628-3" style="display:inline;fill:#262626;fill-opacity:.137255;fill-rule:evenodd;stroke:#047100;stroke-width:2.9;stroke-miterlimit:4;stroke-dasharray:none;stroke-opacity:1" transform="translate(-284.91562,-86.577899)"/><g id="g1981" style="display:inline" transform="matrix(3.7795276,0,0,3.7795276,-18.958656,1.1732727)"><g id="g1949" transform="translate(0.05311253,0.01705402)"><path id="path1925" d="m27.272 36.766-.794.74-.794-.74Z" style="opacity:1;fill:#262626;fill-opacity:.32;stroke:none;stroke-width:.4572;stroke-miterlimit:4;stroke-dasharray:none;stroke-opacity:.32"/><path id="path1944" d="M24.458 39.031c-.572-.288-.881-.663-.968-1.133-.065-.355-.008-3.133.25-3.616.26-.485 2.285-2.393 2.285-2.393h.906s2.025 1.908 2.285 2.393c.259.483.316 3.261.25 3.616-.087.47-.395.845-.967 1.133s-1.453.25-2.02.25c-.568 0-1.45.038-2.021-.25z" style="fill:none;stroke:#047100;stroke-width:.4572;stroke-linecap:butt;stroke-linejoin:miter;stroke-miterlimit:4;stroke-dasharray:none;stroke-opacity:.32"/></g><g id="g1955" transform="matrix(1,0,0,-1,0.05311253,61.101348)"><path id="path1951" d="m27.272 36.766-.794.74-.794-.74Z" style="opacity:1;fill:#262626;fill-opacity:.32;stroke:none;stroke-width:.4572;stroke-miterlimit:4;stroke-dasharray:none;stroke-opacity:.32"/><path id="path1953" d="M24.458 39.031c-.572-.288-.881-.663-.968-1.133-.065-.355-.008-3.133.25-3.616.26-.485 2.285-2.393 2.285-2.393h.906s2.025 1.908 2.285 2.393c.259.483.316 3.261.25 3.616-.087.47-.395.845-.967 1.133s-1.453.25-2.02.25c-.568 0-1.45.038-2.021-.25z" style="fill:none;stroke:#047100;stroke-width:.4572;stroke-linecap:butt;stroke-linejoin:miter;stroke-miterlimit:4;stroke-dasharray:none;stroke-opacity:.32"/></g><g id="g1961" transform="rotate(90,26.496258,30.57723)"><path id="path1957" d="m27.272 36.766-.794.74-.794-.74Z" style="opacity:1;fill:#262626;fill-opacity:.32;stroke:none;stroke-width:.4572;stroke-miterlimit:4;stroke-dasharray:none;stroke-opacity:.32"/><path id="path1959" d="M24.458 39.031c-.572-.288-.881-.663-.968-1.133-.065-.355-.008-3.133.25-3.616.26-.485 2.285-2.393 2.285-2.393h.906s2.025 1.908 2.285 2.393c.259.483.316 3.261.25 3.616-.087.47-.395.845-.967 1.133s-1.453.25-2.02.25c-.568 0-1.45.038-2.021-.25z" style="fill:none;stroke:#047100;stroke-width:.4572;stroke-linecap:butt;stroke-linejoin:miter;stroke-miterlimit:4;stroke-dasharray:none;stroke-opacity:.32"/></g><g id="g1967" transform="matrix(0,1,1,0,-4.0108055,4.080972)"><path id="path1963" d="m27.272 36.766-.794.74-.794-.74Z" style="opacity:1;fill:#262626;fill-opacity:.32;stroke:none;stroke-width:.4572;stroke-miterlimit:4;stroke-dasharray:none;stroke-opacity:.32"/><path id="path1965" d="M24.458 39.031c-.572-.288-.881-.663-.968-1.133-.065-.355-.008-3.133.25-3.616.26-.485 2.285-2.393 2.285-2.393h.906s2.025 1.908 2.285 2.393c.259.483.316 3.261.25 3.616-.087.47-.395.845-.967 1.133s-1.453.25-2.02.25c-.568 0-1.45.038-2.021-.25z" style="fill:none;stroke:#047100;stroke-width:.4572;stroke-linecap:butt;stroke-linejoin:miter;stroke-miterlimit:4;stroke-dasharray:none;stroke-opacity:.32"/></g></g></g><g id="layer1" style="display:inline"><path id="CPAD" d="M223 42.47c-16.946.111-56.308-.164-72.107 6.75-6.386 2.795-10.843 6.365-11.608 14.708-1.491 16.256 4.287 32.15 9.822 47.158 3.015 6.613 6.468 9.938 12.641 10.19 14.927 1.493 48.811 1.23 61.252 1.074 12.44.156 46.325.419 61.252-1.075 6.173-.251 9.626-3.576 12.64-10.19 5.536-15.006 11.314-30.901 9.823-47.157-.765-8.343-5.222-11.913-11.608-14.707-15.8-6.915-55.16-6.64-72.107-6.75Z" style="color:#000;clip-rule:nonzero;display:inline;overflow:visible;visibility:visible;opacity:1;isolation:auto;mix-blend-mode:normal;color-interpolation:sRGB;color-interpolation-filters:linearRGB;solid-color:#000;solid-opacity:1;vector-effect:none;fill:#262626;fill-opacity:.706612;fill-rule:evenodd;stroke:#047100;stroke-width:1;stroke-linecap:butt;stroke-linejoin:miter;stroke-miterlimit:4;stroke-dasharray:none;stroke-dashoffset:0;stroke-opacity:1;marker:none;color-rendering:auto;image-rendering:auto;shape-rendering:auto;text-rendering:auto"/><path id="CPADPRESS" d="M159.68 48.398h129.534v57.755a5.516 5.516 0 0 1-5.528 5.528H165.208a5.516 5.516 0 0 1-5.528-5.528c.665-9.1 0-57.755 0-57.755" style="color:#000;clip-rule:nonzero;display:inline;overflow:visible;visibility:visible;opacity:1;isolation:auto;mix-blend-mode:normal;color-interpolation:sRGB;color-interpolation-filters:linearRGB;solid-color:#000;solid-opacity:1;vector-effect:none;fill:#262626;fill-opacity:0;fill-rule:evenodd;stroke:none;stroke-width:1;stroke-linecap:butt;stroke-linejoin:miter;stroke-miterlimit:4;stroke-dasharray:none;stroke-dashoffset:0;stroke-opacity:1;marker:none;color-rendering:auto;image-rendering:auto;shape-rendering:auto;text-rendering:auto"/></g><g id="layer3" style="display:inline"><g id="THUMBL" style="display:inline" transform="matrix(0.85646641,0,0,0.85646641,-186.89045,-444.96445)"><path id="STICK" d="M428.969 721.283a31.74 31.344 0 0 1-31.74 31.344 31.74 31.344 0 0 1-31.74-31.344 31.74 31.344 0 0 1 31.74-31.343 31.74 31.344 0 0 1 31.74 31.343z" style="color:#000;display:inline;overflow:visible;visibility:visible;opacity:1;fill:#262626;fill-opacity:.162562;fill-rule:evenodd;stroke:#047100;stroke-width:1.1025;stroke-linecap:butt;stroke-linejoin:miter;stroke-miterlimit:4;stroke-dasharray:none;stroke-dashoffset:0;stroke-opacity:1;marker:none"/><circle id="STICKPRESS" cx="397.624" cy="720.297" r="19.5" style="color:#000;display:inline;overflow:visible;visibility:visible;opacity:1;fill:#262626;fill-opacity:.211765;fill-rule:evenodd;stroke:#047100;stroke-width:.773144;stroke-linecap:butt;stroke-linejoin:miter;stroke-miterlimit:4;stroke-dasharray:none;stroke-dashoffset:0;stroke-opacity:1;marker:none"/></g><g id="THUMBR" style="display:inline" transform="matrix(-0.88747696,0,0,-0.88747696,642.62345,809.11232)"><path id="RPAD" d="M425.654 717.631a30.418 30.038 0 0 1-30.417 30.038 30.418 30.038 0 0 1-30.418-30.038 30.418 30.038 0 0 1 30.418-30.038 30.418 30.038 0 0 1 30.417 30.038z" style="color:#000;display:inline;overflow:visible;visibility:visible;opacity:1;fill:#262626;fill-opacity:.182266;fill-rule:evenodd;stroke:#047100;stroke-width:1.05657;stroke-linecap:butt;stroke-linejoin:miter;stroke-miterlimit:4;stroke-dasharray:none;stroke-dashoffset:0;stroke-opacity:1;marker:none"/><circle id="RIGHT" cx="394.834" cy="718.279" r="18.732" style="color:#000;display:inline;overflow:visible;visibility:visible;opacity:1;fill:#262626;fill-opacity:.211823;fill-rule:evenodd;stroke:#047100;stroke-width:.919121;stroke-linecap:butt;stroke-linejoin:miter;stroke-miterlimit:4;stroke-dasharray:none;stroke-dashoffset:0;stroke-opacity:1;marker:none"/></g></g><g id="layer2" style="display:none"><g id="g4481" style="display:inline;fill:#262626;fill-opacity:.0431373" transform="translate(-230.68013,-486.2488)"/><g id="g4385" style="display:inline;fill:#262626;fill-opacity:.0431373" transform="translate(-218.97772,-522.36364)"/><g id="g4321" style="display:inline;fill:#262626;fill-opacity:.0431373" transform="translate(-6.6000247,8.3581616)"/><g id="g67890" style="display:inline;fill:#262626;fill-opacity:.0431373" transform="translate(213.45316,92.87623)"/><g id="g4464" style="display:inline;fill:#262626;fill-opacity:.0431373" transform="translate(-18.29848,-2.98212)"/><g id="g4489" style="display:inline;fill:#262626;fill-opacity:.0431373" transform="translate(29.94964,-486.24881)"/><g id="g5385" style="display:inline;fill:#262626;fill-opacity:.0431373" transform="translate(26.544905,-522.36365)"/><g id="g880" style="display:inline;fill:#262626;fill-opacity:.0431373" transform="translate(208.94051,93.152036)"><rect id="rect878" width="63.353" height=".253" x="46.562" y="79.079" ry="0" style="color:#000;display:inline;overflow:visible;visibility:visible;opacity:1;fill:#262626;fill-opacity:.0431373;fill-rule:evenodd;stroke:#047100;stroke-width:1;stroke-linecap:butt;stroke-linejoin:miter;stroke-miterlimit:4;stroke-dasharray:none;stroke-dashoffset:0;stroke-opacity:1;marker:none"/></g></g></g><g id="root" style="display:inline"><text id="label_template" width="11" height="15" x="-100" y="-100" style="font-size:22px;font-family:&quot;Ubuntu Mono&quot;;fill:#fff">X</text><g id="markers_system"><circle cx="531.51" cy="256.788" r="5" style="fill:none;stroke:#06a400;stroke-width:1"/><circle cx="734.827" cy="257.37" r="5" style="fill:none;stroke:#06a400;stroke-width:1"/></g><g id="markers_lshoulder"><circle cx="494.176" cy="219.095" r="5" style="fill:none;stroke:#06a400;stroke-width:1"/><circle cx="495.741" cy="207.415" r="5" style="fill:none;stroke:#06a400;stroke-width:1"/></g><g id="markers_rshoulder"><circle cx="780.944" cy="220.028" r="5" style="fill:none;stroke:#06a400;stroke-width:1"/><circle cx="784.498" cy="208.283" r="5" style="fill:none;stroke:#06a400;stroke-width:1"/></g><g id="markers_lthumb"><circle cx="564.4" cy="358.72" r="5" style="fill:none;stroke:#06a400;stroke-width:1"/><circle cx="487.107" cy="295.591" r="5" style="fill:none;stroke:#06a400;stroke-width:1"/></g><g id="markers_rthumb"><circle cx="714.923" cy="359.406" r="5" style="fill:none;stroke:#06a400;stroke-width:1"/></g><g id="markers_face"><circle cx="793.716" cy="265.295" r="5" style="fill:none;stroke:#06a400;stroke-width:1"/><circle cx="794.267" cy="327.892" r="5" style="fill:none;stroke:#06a400;stroke-width:1"/></g></g></svg>