<?xml version='1.0' encoding='utf-8'?>
<svg xmlns="http://www.w3.org/2000/svg" xmlns:ns1="http://sodipodi.sourceforge.net/DTD/sodipodi-0.dtd" width="1280" height="720" viewBox="0 0 1280 720" version="1.1"><g id="g25" style="display:inline" transform="translate(355.97589,-325.49972)">
    <path style="fill:#1b1b1b;fill-opacity:1;stroke:#047100;stroke-width:0.365161;stroke-opacity:1" d="m 122.63216,547.32566 c -2.83518,0.16897 -5.29962,0.5054 -6.72911,0.97067 -2.33017,0.75844 -4.47122,3.18121 -5.00315,5.66142 -0.21482,1.00171 -0.39083,5.0741 -0.39083,9.04987 0,6.4208 -0.0714,7.29299 -0.63903,7.80674 -0.53438,0.48358 -1.98494,0.598 -8.85515,0.69608 -7.979136,0.1139 -8.263049,0.1433 -9.844342,1.02987 -1.878899,1.05342 -3.600633,3.55912 -4.072421,5.92602 -0.62333,3.12699 -0.808613,12.10765 -0.338066,16.37733 0.476644,4.32457 1.096395,6.1006 2.630327,7.53146 1.86674,1.74127 3.025249,1.93418 11.592402,1.93418 7.87838,0 8.03464,0.015 8.59271,0.81164 0.47288,0.67519 0.56841,2.16899 0.56841,8.88868 0,7.74832 0.0343,8.14368 0.84874,9.68747 1.53843,2.91691 3.42558,3.73224 9.92351,4.28849 4.05778,0.34734 8.9459,0.24429 14.17425,-0.29881 3.59264,-0.3732 5.82348,-1.63216 7.06857,-3.98968 0.81417,-1.54189 0.84943,-1.94185 0.84943,-9.53626 0,-7.46648 0.0438,-7.98315 0.75671,-8.8894 l 0.75742,-0.96213 h 7.94154 c 7.93944,0 7.94219,-2.5e-4 9.92425,-1.00419 3.77295,-1.91103 4.5619,-5.31714 4.26425,-18.4021 -0.1561,-6.86331 -0.24445,-7.69034 -0.98993,-9.2303 -0.88723,-1.83274 -2.40119,-3.15654 -4.35911,-3.81208 -0.76913,-0.25751 -4.12724,-0.4158 -8.82876,-0.4158 h -7.58708 l -0.75742,-0.96211 c -0.71451,-0.90838 -0.75671,-1.4193 -0.75671,-9.14329 0,-7.42957 -0.066,-8.31159 -0.72176,-9.59689 -1.48066,-2.90237 -3.93614,-3.8741 -11.06893,-4.38051 -2.91023,-0.2066 -6.11557,-0.20534 -8.95072,-0.0364 z m 6.13496,1.35509 c 9.20247,0.69545 11.02547,1.21543 12.45186,3.55462 0.62366,1.02274 0.69252,1.93085 0.69252,9.27665 0.002,11.88774 -0.44958,11.39345 10.41279,11.39345 7.25104,0 7.78576,0.0471 9.32159,0.82161 2.72743,1.37538 3.23429,2.87549 3.49257,10.33292 0.11791,3.40498 0.0517,8.11507 -0.14692,10.467 -0.42388,5.01884 -1.05509,6.38741 -3.489,7.56566 -1.43267,0.69352 -2.2177,0.756 -9.47422,0.756 h -7.91301 l -1.19247,1.06484 -1.19248,1.06481 -0.18258,8.52067 c -0.17305,8.07664 -0.2259,8.59089 -1.01775,9.86432 -1.2196,1.96135 -3.18157,2.74393 -7.56355,3.01831 -2.00838,0.12576 -4.47322,0.29165 -5.47741,0.3687 -1.0042,0.077 -4.06695,-0.0682 -6.80609,-0.32305 -5.80712,-0.54044 -7.26126,-1.17228 -8.38304,-3.64234 -0.59313,-1.30596 -0.67986,-2.48101 -0.68679,-9.27312 -0.008,-8.16285 -0.22578,-9.43704 -1.72955,-10.15674 -0.35892,-0.17173 -4.46143,-0.39707 -9.1169,-0.50067 -7.853849,-0.17484 -8.538745,-0.24334 -9.494189,-0.95212 -2.729907,-2.0252 -3.247158,-4.30717 -3.178033,-14.0252 0.06792,-9.546 0.928422,-12.55133 4.033167,-14.09293 1.224969,-0.60825 2.392425,-0.70854 9.252415,-0.79665 5.04313,-0.0648 8.14962,-0.25254 8.68542,-0.52492 0.45876,-0.23319 1.15713,-0.94664 1.55194,-1.58545 0.65594,-1.0613 0.71747,-1.84491 0.71747,-9.08481 0,-5.13993 0.14427,-8.20363 0.41011,-8.72107 0.82713,-1.60999 2.34619,-2.84354 4.14443,-3.36561 2.21083,-0.64185 9.09138,-1.23543 11.8777,-1.02488 z m -6.53364,4.43756 c -3.014,0.18802 -5.40508,0.56317 -5.94888,1.04913 -0.53631,0.47931 -0.62979,1.63211 -0.73032,9.00493 -0.13244,9.71748 -0.37692,10.69757 -3.03682,12.18867 -1.3947,0.78184 -1.84071,0.81933 -9.88075,0.82518 -6.245967,0.004 -8.584713,0.12629 -9.05767,0.47214 -0.971328,0.71024 -1.331085,2.81581 -1.573332,9.21033 -0.215993,5.70122 0.230124,11.39032 0.989914,12.6223 0.261054,0.42333 2.035736,0.55851 9.258108,0.70607 9.92391,0.20281 9.97697,0.21612 11.81566,2.91773 0.7935,1.16611 0.82161,1.49505 0.82161,9.66465 0,6.57104 0.11116,8.60918 0.49856,9.139 0.36914,0.50483 1.19868,0.75241 3.19516,0.95358 2.93932,0.29614 15.47453,0.11028 17.40789,-0.25821 2.08368,-0.39715 2.26871,-1.23888 2.26871,-10.2944 0,-7.69259 0.0313,-8.04468 0.82446,-9.23814 0.45349,-0.68241 1.55679,-1.61071 2.45129,-2.0626 1.54149,-0.77874 2.05054,-0.82161 9.75664,-0.82161 8.03121,0 8.13687,-0.01 8.65974,-0.82161 1.59623,-2.47769 1.50441,-19.94496 -0.1134,-21.5666 -0.30002,-0.30075 -3.11841,-0.49055 -9.1547,-0.61693 -8.14017,-0.17042 -8.7898,-0.23413 -9.75094,-0.95141 -2.33166,-1.7401 -2.47262,-2.37833 -2.67309,-12.11736 -0.14318,-6.95496 -0.28977,-8.93551 -0.68111,-9.17681 -0.27449,-0.16921 -2.82149,-0.50825 -5.66,-0.75385 -3.03562,-0.26266 -6.67277,-0.2622 -9.68673,-0.0742 z m -3.32571,1.77161 c 2.08715,-0.41486 13.46984,-0.41388 15.88452,0 l 1.8258,0.31309 0.18258,8.577 c 0.18185,8.54371 0.18689,8.58408 1.18392,10.28014 0.55052,0.93649 1.61862,2.08675 2.37355,2.55613 1.31089,0.81504 1.75785,0.86192 9.95349,1.03628 l 8.58128,0.18258 0.29384,2.00839 c 0.37539,2.56752 0.37226,12.65666 -0.005,15.51934 l -0.28885,2.19097 -8.3987,0.18258 c -9.47655,0.20602 -10.2854,0.40467 -12.39194,3.0461 l -1.11902,1.40359 -0.31381,8.8209 c -0.17261,4.85179 -0.34688,8.85874 -0.38727,8.90439 -0.0404,0.0456 -1.21377,0.24787 -2.60747,0.44933 v 0 c -4.29699,0.62106 -14.66103,0.32923 -16.74749,-0.47143 -0.43414,-0.16655 -0.54756,-1.74185 -0.64261,-8.9536 l -0.11553,-8.75101 -1.13397,-1.40288 c -2.24392,-2.77446 -2.55036,-2.84851 -12.26215,-2.97763 l -8.649054,-0.11483 -0.297387,-2.07614 c -0.382324,-2.67046 -0.291033,-13.9924 0.129815,-16.13484 l 0.322364,-1.64322 8.937172,-0.18258 c 8.56948,-0.1751 8.99318,-0.218 10.30937,-1.03629 0.75489,-0.46938 1.82299,-1.61963 2.37354,-2.55613 0.99697,-1.69595 1.00135,-1.73682 1.1832,-10.27443 l 0.18258,-8.57129 z" id="DPAD-5" />
    <path style="fill:#1b1b1b;fill-opacity:1;stroke:#047100;stroke-width:2.70365;stroke-opacity:1" d="M 94.463288,869.84751 C 79.939484,868.32808 68.802172,863.50825 59.467875,854.70275 45.873322,841.87833 38.491563,822.02317 36.117998,791.89715 c -0.710112,-9.01296 -0.310696,-31.85729 0.750774,-42.94 2.662807,-27.80213 8.975041,-61.12765 19.059457,-100.62464 10.451374,-40.93423 25.377063,-89.30121 29.90625,-96.91177 2.071153,-3.48024 7.45176,-8.92541 11.370226,-11.50666 7.117735,-4.68874 18.198875,-9.03948 29.805875,-11.70257 29.97314,-6.87697 68.83451,-8.72057 174.14026,-8.26128 63.90333,0.27871 84.70253,0.86148 107.22721,3.00435 38.44046,3.65701 64.36773,12.76599 74.50456,26.17554 3.30095,4.36669 4.91657,8.1736 10.09973,23.79836 5.9365,17.89562 10.1246,32.64747 16.46577,57.9974 12.13423,48.50901 18.26561,80.08702 21.77455,112.14433 1.26101,11.52051 1.80623,40.67756 0.94577,50.57768 -2.45257,28.21816 -9.65358,47.64058 -22.43407,60.50861 -10.7048,10.77817 -24.16632,15.85391 -41.983,15.82999 -11.68686,-0.0157 -16.98097,-1.80804 -22.89143,-7.74999 -3.87063,-3.89122 -5.56133,-7.11506 -10.00406,-19.07597 -4.32602,-11.6467 -6.88427,-17.42848 -10.19029,-23.03075 -5.13716,-8.70526 -10.6983,-14.05157 -17.76742,-17.08111 l -3.76594,-1.61393 -44.35115,-0.38205 c -57.78885,-0.49781 -188.91461,-0.1317 -192.34467,0.53704 -3.52753,0.68774 -9.76989,3.83927 -13.27622,6.70266 -3.87404,3.16367 -8.50765,9.41426 -12.028,16.22535 -2.62712,5.08292 -3.98004,8.33516 -10.27766,24.70626 -1.23598,3.213 -3.08112,7.09059 -4.10031,8.61685 -3.86547,5.78857 -9.12665,9.5168 -15.89522,11.26381 -3.56892,0.92116 -11.33012,1.2728 -16.395702,0.74285 z" id="path23" />
    <path style="fill:#1b1b1b;fill-opacity:1;stroke:#047100;stroke-width:2.70365;stroke-opacity:1" d="m 287.74554,554.40607 c 2.42892,-2.42892 0.79046,-6.45975 -2.62577,-6.45975 -3.16667,0 -4.66707,4.40672 -2.21773,6.51354 1.67089,1.43724 3.37135,1.41835 4.8435,-0.0538 z" id="path22" />
    <path style="fill:#2b2b2b;fill-opacity:1;stroke:#047100;stroke-width:2.70365;stroke-opacity:1" d="m 391.4604,557.72265 c 2.33796,-2.22437 2.97998,-3.8315 2.75778,-6.90339 -0.13042,-1.8031 -0.55517,-3.20257 -1.28162,-4.22278 -1.92255,-2.69997 -3.28289,-3.08276 -11.80966,-3.32314 -10.59651,-0.29873 -16.41659,0.17613 -18.38063,1.49969 -3.63694,2.45095 -4.63912,7.69991 -2.10458,11.02287 2.76599,3.62638 2.79923,3.63328 16.82698,3.48734 l 12.48799,-0.12991 z" id="path21" />
    <path style="fill:#2b2b2b;fill-opacity:1;stroke:#047100;stroke-width:2.70365;stroke-opacity:1" d="m 208.90383,558.17202 c 4.38572,-2.86767 4.8335,-9.1911 0.90235,-12.74266 l -1.84401,-1.66595 -9.71613,-0.3407 c -10.60332,-0.37182 -15.82773,0.0694 -17.76374,1.50016 -2.17384,1.60653 -3.29609,4.23007 -3.05469,7.14108 0.34511,4.16148 2.9353,6.82857 7.18765,7.40101 1.36618,0.18391 6.99062,0.22938 12.49874,0.10104 9.60823,-0.22386 10.08684,-0.28045 11.78983,-1.39398 z" id="path20" />
    <path style="fill:#2b2b2b;fill-opacity:1;stroke:#047100;stroke-width:2.70365;stroke-opacity:1" d="m 450.55882,574.54085 c 5.78148,-2.92808 9.32117,-8.9844 9.00421,-15.40604 -0.52076,-10.5508 -10.75856,-18.10287 -20.69805,-15.26825 -8.58231,2.44758 -13.62683,10.29079 -12.06222,18.75447 2.08452,11.27613 13.60926,17.05878 23.75606,11.91982 z" id="path19" />
    <path style="fill:#2b2b2b;fill-opacity:1;stroke:#047100;stroke-width:2.70365;stroke-opacity:1" d="m 421.08985,604.12218 c 3.31523,-1.52297 6.14968,-4.36943 7.89986,-7.93342 1.16694,-2.37623 1.32546,-3.24094 1.32546,-7.22955 0,-3.97896 -0.15994,-4.85616 -1.31374,-7.20563 -1.77625,-3.61689 -5.5908,-7.14662 -9.18997,-8.50374 -2.32874,-0.87809 -3.54637,-1.03912 -6.66448,-0.88135 -6.49676,0.32871 -11.08921,3.48019 -14.25048,9.77912 -1.08004,2.15206 -1.24856,3.08883 -1.24856,6.94055 0,3.79335 0.17651,4.80692 1.19196,6.84465 1.90395,3.82077 4.22425,6.15875 8.00385,8.06487 3.29989,1.66419 3.60911,1.72812 7.49548,1.54963 3.07378,-0.14116 4.7055,-0.48564 6.75062,-1.42513 z" id="path18" />
    <path style="fill:#2b2b2b;fill-opacity:1;stroke:#047100;stroke-width:2.70365;stroke-opacity:1" d="m 292.77237,604.01425 c 8.64955,-4.31508 12.44834,-14.12782 9.01831,-23.29538 -1.33837,-3.57714 -5.81031,-8.42318 -9.15957,-9.92581 -2.10688,-0.94525 -3.31017,-1.13318 -7.29905,-1.13995 -4.44176,-0.008 -4.99903,0.10146 -7.95689,1.55637 -3.54307,1.74277 -6.81783,5.00238 -8.39367,8.35483 -4.71663,10.03419 0.4488,21.96258 11.01003,25.42515 3.29279,1.07956 9.63157,0.5959 12.78084,-0.97521 z" id="path17" />
    <path style="fill:#2b2b2b;fill-opacity:1;stroke:#047100;stroke-width:2.70365;stroke-opacity:1" d="m 476.50584,606.11189 c 6.9748,-2.6096 10.90199,-8.26425 10.91901,-15.722 0.015,-6.46928 -3.19479,-11.96405 -8.77727,-15.02652 -2.33867,-1.28298 -2.94677,-1.39963 -7.3195,-1.40408 -4.2894,-0.004 -5.02246,0.12782 -7.28978,1.31461 -5.15261,2.69706 -8.09774,6.56537 -9.16364,12.03615 -1.57294,8.07315 3.84828,16.86008 11.9229,19.32517 2.36453,0.72186 7.05619,0.46896 9.70828,-0.52333 z" id="path16" />
    <path style="fill:#1b1b1b;fill-opacity:1;stroke:#047100;stroke-width:2.70365;stroke-opacity:1" d="m 136.73837,627.52465 c 2.51316,-0.53875 4.59478,-1.93243 5.4824,-3.67055 0.44589,-0.87314 0.71551,-3.84989 0.8571,-9.46282 0.13539,-5.36718 0.40304,-8.42567 0.77671,-8.87593 0.43985,-0.52998 2.41087,-0.7401 8.62544,-0.91952 9.71196,-0.28037 11.04326,-0.73936 12.92053,-4.45458 1.16158,-2.29885 1.19223,-2.62309 1.19223,-12.61273 0,-11.61504 -0.30319,-12.90232 -3.50825,-14.89542 -1.58428,-0.98519 -2.47277,-1.10156 -10.07041,-1.31897 -8.30582,-0.23768 -8.33479,-0.24232 -8.93473,-1.43068 -0.4116,-0.81528 -0.60413,-3.69559 -0.60894,-9.10969 -0.007,-7.42286 -0.0745,-8.01868 -1.08633,-9.53788 -1.47475,-2.21414 -3.75809,-3.2144 -8.75439,-3.83504 -4.63389,-0.57562 -14.13106,-0.26348 -17.00463,0.55888 -2.3412,0.67001 -4.93318,2.97057 -5.51913,4.8986 -0.25508,0.83934 -0.59889,5.06507 -0.764,9.39052 -0.16512,4.32545 -0.51636,8.08099 -0.78053,8.34564 -0.26435,0.26485 -4.16866,0.59576 -8.68376,0.73599 -8.935153,0.27751 -10.37082,0.655 -12.153277,3.1955 -1.827149,2.60419 -2.200661,4.82629 -2.2257,13.241 -0.01545,5.19959 0.199418,8.97463 0.599164,10.52584 0.675241,2.62028 2.336416,4.76224 4.260709,5.49385 0.667616,0.25383 4.947055,0.59653 9.509854,0.76156 5.14546,0.1861 8.42444,0.49766 8.6342,0.82039 0.18602,0.28618 0.44586,4.42173 0.57743,9.1901 0.21491,7.78844 0.33932,8.80649 1.22379,10.01478 1.45168,1.98312 3.97261,3.02441 8.41452,3.47566 4.43148,0.4502 13.82335,0.16077 17.02,-0.5245 z" id="path15" />
    <path style="fill:#2b2b2b;fill-opacity:1;stroke:#047100;stroke-width:2.70365;stroke-opacity:1" d="m 448.67561,634.98525 c 11.34968,-3.97289 14.65391,-19.19248 5.99404,-27.60893 -3.38486,-3.28971 -5.91458,-4.3184 -11.09815,-4.51298 -3.9307,-0.14755 -4.67731,-0.0331 -7.1534,1.09696 -6.99002,3.19003 -11.08343,10.76741 -9.7407,18.031 1.27233,6.88259 5.95935,12.08534 12.33368,13.69071 2.33104,0.58708 6.94773,0.25424 9.66453,-0.69676 z" id="path14" />
    <path style="fill:#2b2b2b;fill-opacity:1;stroke:#047100;stroke-width:2.70365;stroke-opacity:1" d="m 369.98808,661.93596 c 10.05044,-3.39861 17.59715,-10.03692 21.9708,-19.32618 2.61726,-5.55882 3.3818,-9.04594 3.3592,-15.32164 -0.0244,-6.7782 -0.90542,-10.63616 -3.74326,-16.39181 -1.83673,-3.72521 -2.95774,-5.25938 -6.30675,-8.63122 -7.1061,-7.15452 -14.25897,-10.41874 -23.6983,-10.81476 -6.87911,-0.28861 -11.22269,0.6269 -17.57241,3.70378 -10.65123,5.16124 -17.33906,13.92533 -19.59606,25.67971 -1.73063,9.01307 0.0707,17.81013 5.3045,25.90593 5.24132,8.10736 13.33065,13.86679 22.39876,15.94742 4.33062,0.99364 13.91402,0.59108 17.88352,-0.75123 z" id="path13" />
    <path style="fill:#2b2b2b;fill-opacity:1;stroke:#047100;stroke-width:2.70365;stroke-opacity:1" d="m 219.5385,661.71465 c 9.99213,-3.19428 17.96408,-10.25919 22.6339,-20.05865 2.58318,-5.42073 3.11019,-8.06152 3.09308,-15.49906 -0.0137,-5.96562 -0.12342,-6.74468 -1.49493,-10.61624 -1.87898,-5.30408 -3.91125,-8.6803 -7.69841,-12.78943 -3.80791,-4.13164 -8.64138,-7.35278 -14.14316,-9.42534 -3.58862,-1.35187 -5.14523,-1.66286 -9.31592,-1.86125 -11.48055,-0.54609 -19.97639,2.67048 -27.93331,10.5757 -13.31528,13.22877 -13.89384,33.25792 -1.40358,48.59102 3.43112,4.21205 9.82372,8.71708 15.03409,10.59491 6.73482,2.42724 14.59733,2.60812 21.22824,0.48834 z" id="path12" />
    <path style="fill:#1b1b1b;fill-opacity:1;stroke:#047100;stroke-width:2.70365;stroke-opacity:1" d="m 302.52479,733.21228 c 1.70034,-1.05164 2.69582,-2.14083 3.70485,-4.05359 1.23313,-2.33759 1.35092,-2.93657 1.10831,-5.63608 -0.41238,-4.58879 -3.02032,-8.04958 -6.87198,-9.11929 -2.37275,-0.65898 -29.33456,-0.65244 -31.71168,0.008 -2.34427,0.65101 -5.03952,3.04726 -6.13175,5.45152 -2.66624,5.86901 0.97308,13.3265 7.12201,14.59405 0.9707,0.2001 8.22022,0.32555 16.11004,0.27879 l 14.34512,-0.085 z" id="path11" />
    <path style="fill:#232323;fill-opacity:1;stroke:#047100;stroke-width:2.70365;stroke-opacity:1" d="m 368.31895,785.22462 c 5.50813,-0.94099 20.9595,-3.64943 34.33637,-6.01874 21.96462,-3.89038 24.66272,-4.46779 27.84159,-5.95823 6.05393,-2.83845 10.9943,-8.77926 12.67872,-15.24619 1.32531,-5.08826 1.43417,-4.07698 -5.25971,-48.86496 -4.30389,-28.79688 -5.14223,-33.05798 -7.19184,-36.5554 -2.04618,-3.49154 -6.04966,-7.10839 -10.06475,-9.09275 -3.25001,-1.60624 -4.02455,-1.79067 -8.17417,-1.94637 -4.10247,-0.15393 -8.04062,0.4107 -37.48969,5.37502 -18.09813,3.05087 -34.5152,5.87613 -36.48239,6.27837 -8.19568,1.6758 -14.50722,7.07069 -17.22032,14.71934 -1.40892,3.97199 -1.28159,9.18362 0.51871,21.2308 3.64425,24.38649 9.13038,58.67538 9.79801,61.23857 1.9801,7.60211 7.24132,13.18288 14.99978,15.9108 4.07287,1.43205 8.27498,1.22488 21.70969,-1.07026 z" id="path10" />
    <path style="fill:#232323;fill-opacity:1;stroke:#047100;stroke-width:2.70365;stroke-opacity:1" d="m 221.4356,786.31628 c 6.09917,-1.52979 13.21654,-7.97863 15.3044,-13.86686 0.73153,-2.06309 3.29299,-17.17212 8.02512,-47.33697 4.31094,-27.48001 4.66725,-30.44423 4.06333,-33.80387 -1.24005,-6.89841 -6.33784,-13.7042 -12.54629,-16.74986 -3.24918,-1.59394 -4.88472,-1.91295 -36.61289,-7.14105 -40.93176,-6.74464 -41.3077,-6.79219 -45.75873,-5.78702 -4.68649,1.05835 -8.45419,3.20352 -11.86484,6.75536 -3.97543,4.14 -5.54345,7.67253 -6.93933,15.63335 -2.63744,15.04147 -9.23366,58.94562 -9.99394,66.51928 -0.86998,8.66634 4.47578,18.03439 12.77235,22.38261 2.63195,1.3794 5.3838,1.93278 43.31688,8.71069 33.27452,5.94551 34.59344,6.09908 40.23394,4.68434 z" id="path9" />
    <path style="fill:#1b1b1b;fill-opacity:1;stroke:#047100;stroke-width:2.70365;stroke-opacity:1" d="m 478.96221,825.37942 c 0.43008,-4.59495 -0.47132,-27.18172 -1.68916,-42.32435 -3.80878,-47.3586 -10.3846,-91.79723 -16.12836,-108.99348 -5.89998,-17.66397 -19.33192,-29.03014 -38.5342,-32.60781 -11.98491,-2.23297 -27.73243,-2.64714 -25.76287,-0.67759 0.13694,0.13694 4.03992,0.44346 8.6733,0.68116 21.97685,1.12743 32.95173,5.00656 42.79037,15.12454 9.33925,9.60439 12.54638,18.04351 17.27423,45.45478 6.09078,35.31323 11.69757,91.40493 11.70268,117.07656 0,5.78667 0.39751,9.72367 0.97896,9.72367 0.20427,0 0.51703,-1.55587 0.69505,-3.45748 z" id="path8" />
    <path style="fill:#1b1b1b;fill-opacity:1;stroke:#047100;stroke-width:2.70365;stroke-opacity:1" d="m 89.333382,828.24078 c 0.113273,-0.32786 0.437112,-6.39038 0.719652,-13.47226 1.737889,-43.56041 10.064316,-106.40534 17.872136,-134.8925 4.87747,-17.79566 14.48388,-28.69828 30.29242,-34.37984 6.79238,-2.44117 13.10892,-3.42866 25.90432,-4.04973 4.67373,-0.22686 8.63766,-0.55244 8.80873,-0.72351 1.25005,-1.25005 -4.5387,-1.5298 -15.05511,-0.72756 -18.06955,1.37845 -29.60892,6.04936 -39.02397,15.79616 -8.36545,8.66023 -11.78833,16.87986 -16.41121,39.40963 -5.084885,24.78131 -10.436597,64.67212 -13.065982,97.39178 -0.971537,12.08956 -1.903084,33.49235 -1.523569,35.00447 0.327254,1.30388 1.133522,1.65376 1.482583,0.64336 z" id="path1-4" />
    <path style="fill:#232323;fill-opacity:1;stroke:#047100;stroke-width:2.70365;stroke-opacity:1" d="m 98.324723,535.031 c 0.577381,-2.96439 3.106407,-7.39922 5.492017,-9.63068 4.89814,-4.58164 13.8513,-7.93851 27.24744,-10.21607 7.31474,-1.24363 29.16489,-1.2492 32.71936,-0.008 2.61107,0.91151 6.70259,4.0488 6.05965,4.6464 -0.21398,0.19888 -4.03728,0.71766 -8.49624,1.15284 -25.69492,2.50772 -42.42581,6.24923 -56.51194,12.63771 -3.01636,1.36801 -5.786564,2.61347 -6.156019,2.76769 -0.533902,0.22287 -0.606595,-0.054 -0.354268,-1.34954 z" id="LB-3" />
    <path style="fill:#232323;fill-opacity:1;stroke:#047100;stroke-width:2.70365;stroke-opacity:1" d="m 467.75136,534.8676 c -12.78874,-6.54471 -35.27491,-11.67462 -61.90008,-14.12166 -5.22793,-0.48048 -6.31695,-0.71048 -6.19963,-1.30935 0.1855,-0.94703 4.2488,-3.73517 6.49377,-4.45591 2.52352,-0.81016 20.62294,-1.10047 26.50174,-0.42507 20.006,2.2984 33.18324,8.08155 37.19994,16.32608 1.3477,2.76627 2.07575,5.6325 1.42135,5.59572 -0.22951,-0.0129 -1.81219,-0.73731 -3.51709,-1.60981 z" id="RB-6" />
    <path style="fill:#2b2b2b;fill-opacity:1;stroke:#047100;stroke-width:2.70365;stroke-opacity:1" d="m 209.2748,780.84751 c -0.65573,-0.12599 -13.74647,-2.37785 -29.09054,-5.00413 -15.34406,-2.62627 -29.99321,-5.17854 -32.55366,-5.67169 -5.43877,-1.04752 -9.56255,-3.04055 -12.09799,-5.84698 -2.38291,-2.63759 -4.50996,-7.39666 -4.79064,-10.71856 -0.16898,-1.99992 1.00317,-10.80342 4.33353,-32.5473 6.80732,-44.44483 6.7048,-43.95623 10.17988,-48.52058 1.75632,-2.30684 6.42075,-5.21693 9.44774,-5.89434 3.10709,-0.69534 4.75434,-0.51281 24.52541,2.71759 39.56207,6.46407 53.14504,9.02107 55.63928,10.47411 2.56979,1.49705 5.20156,4.54232 6.77598,7.84064 2.1298,4.46176 1.85713,7.52829 -3.68917,41.48978 -6.05039,37.04818 -6.54655,39.70371 -7.9272,42.42831 -1.53328,3.02579 -4.65687,6.0197 -8.09514,7.75907 -2.47474,1.25194 -3.48659,1.47627 -7.1732,1.59035 -2.36063,0.0731 -4.82855,0.0297 -5.48428,-0.0963 z" id="LPAD-7" />
    <path style="fill:#2b2b2b;fill-opacity:1;stroke:#047100;stroke-width:2.70365;stroke-opacity:1" d="m 350.43543,780.99854 c -5.26201,-1.52055 -9.03101,-4.43919 -11.31097,-8.75898 -1.71713,-3.25342 -1.87968,-4.12118 -7.2647,-38.78146 -5.69554,-36.65897 -5.83102,-37.6514 -5.50829,-40.35095 0.80699,-6.75034 6.33128,-13.02926 12.71678,-14.45391 7.225,-1.61195 69.88219,-12.10672 72.41509,-12.12916 5.8834,-0.0521 11.99656,3.95571 14.87155,9.74988 1.49632,3.01571 1.59897,3.60783 7.55606,43.59265 4.93712,33.1385 5.06452,35.08388 2.61758,39.9675 -1.76931,3.5312 -5.48563,7.31271 -8.57394,8.72437 -2.6713,1.22103 -13.73703,3.30866 -47.71328,9.00147 -23.98906,4.01943 -26.70969,4.3333 -29.80588,3.43859 z" id="RPAD-7" />
    <g id="LGRIPTOUCH-4" transform="matrix(0.36516098,0,0,0.36516098,-246.948,488.27648)" style="fill:#2b2b2b;fill-opacity:1;stroke:none;stroke-opacity:1">
      <path style="baseline-shift:baseline;display:inline;overflow:visible;vector-effect:none;fill:#2b2b2b;fill-opacity:1;stroke:none;stroke-opacity:1;enable-background:accumulate;stop-color:#000000" d="m 820.13947,467.92567 c 7.40454,-29.0009 92.12215,23.99895 103.05287,85.72488 10.93071,61.72592 11.01799,49.24823 0.115,98.78194 -18.51804,84.12995 -19.3165,72.22208 -27.94535,155.04744 -2.62385,25.18536 -0.72265,108.62887 25.86573,129.81689 34.93346,26.63583 114.59908,53.68574 100.00728,71.06838 -10.5857,15.8521 -24.9935,26.0615 -43.52934,30.8457 -9.77355,2.5226 -31.0282,3.4864 -44.90039,2.0352 -39.7737,-4.161 -70.2738,-17.3606 -95.83594,-41.47457 -37.22893,-35.11988 -57.44331,-89.4935 -63.94336,-171.99414 -1.94465,-24.68215 -0.85021,-87.24158 2.05664,-117.59179 7.29215,-76.13665 17.4405,-134.09671 45.05686,-242.25993 z" id="path4-4" />
      <path id="path5-3" style="baseline-shift:baseline;display:inline;overflow:visible;vector-effect:none;fill:#2b2b2b;fill-opacity:1;stroke:none;stroke-opacity:1;enable-background:accumulate;stop-color:#000000" d="m 825.46827,457.09061 c -0.19662,0.0692 -0.39019,0.14205 -0.58399,0.21875 -4.02301,1.59218 -7.16177,5.12538 -8.33007,9.70117 -27.641,108.25973 -37.85002,166.53863 -45.15625,242.82227 -2.94447,30.74303 -4.05416,92.95745 -2.0625,118.23632 6.53725,82.9728 26.96402,138.42684 65.09375,174.39648 26.14084,24.6599 57.60749,38.238 97.99218,42.4629 14.43006,1.5096 35.40076,0.6574 46.21094,-2.1328 19.25805,-4.9706 34.54277,-15.7729 45.57427,-32.2149 2.3977,-2.9745 3.0213,-7.0058 1.8535,-10.3789 -0.3196,-0.92297 -0.735,-1.80968 -1.2305,-2.66793 l -5.4531,6.54493 c -0.016,0.5906 -0.3025,1.1033 -0.9766,1.9062 l -0.1308,0.1563 -0.1114,0.168 c -10.1318,15.1724 -23.62562,24.7366 -41.37693,29.3183 -8.73693,2.255 -30.27552,3.3303 -43.58984,1.9375 -39.1627,-4.0971 -68.69625,-16.9183 -93.67969,-40.48631 -36.32813,-34.27011 -56.33012,-87.56331 -62.79297,-169.5918 -1.89764,-24.08543 -0.81845,-86.98986 2.05078,-116.94726 7.27807,-75.98966 17.36726,-133.63056 44.95898,-241.69727 0.27243,-1.06699 0.61486,-1.89236 1.06055,-2.55078 -0.33283,0.20599 -0.49023,0.3457 -0.49023,0.3457 l 1.17187,-9.54687 c -5.8e-4,2e-4 -0.001,-2.1e-4 -0.002,0 z" />
    </g>
    <g id="RGRIPTOUCH-0" transform="matrix(-0.36516098,0,0,0.36516098,815.1831,488.27648)" style="fill:#2b2b2b;fill-opacity:1;stroke:none;stroke-opacity:1">
      <path style="baseline-shift:baseline;display:inline;overflow:visible;vector-effect:none;fill:#2b2b2b;fill-opacity:1;stroke:none;stroke-opacity:1;enable-background:accumulate;stop-color:#000000" d="m 820.13947,467.92567 c 7.40454,-29.0009 92.12215,23.99895 103.05287,85.72488 10.93071,61.72592 11.01799,49.24823 0.115,98.78194 -18.51804,84.12995 -19.3165,72.22208 -27.94535,155.04744 -2.62385,25.18536 -0.72265,108.62887 25.86573,129.81689 34.93346,26.63583 114.59908,53.68574 100.00728,71.06838 -10.5857,15.8521 -24.9935,26.0615 -43.52934,30.8457 -9.77355,2.5226 -31.0282,3.4864 -44.90039,2.0352 -39.7737,-4.161 -70.2738,-17.3606 -95.83594,-41.47457 -37.22893,-35.11988 -57.44331,-89.4935 -63.94336,-171.99414 -1.94465,-24.68215 -0.85021,-87.24158 2.05664,-117.59179 7.29215,-76.13665 17.4405,-134.09671 45.05686,-242.25993 z" id="path6-7" />
      <path id="path7-8" style="baseline-shift:baseline;display:inline;overflow:visible;vector-effect:none;fill:#2b2b2b;fill-opacity:1;stroke:none;stroke-opacity:1;enable-background:accumulate;stop-color:#000000" d="m 825.46827,457.09061 c -0.19662,0.0692 -0.39019,0.14205 -0.58399,0.21875 -4.02301,1.59218 -7.16177,5.12538 -8.33007,9.70117 -27.641,108.25973 -37.85002,166.53863 -45.15625,242.82227 -2.94447,30.74303 -4.05416,92.95745 -2.0625,118.23632 6.53725,82.9728 26.96402,138.42684 65.09375,174.39648 26.14084,24.6599 57.60749,38.238 97.99218,42.4629 14.43006,1.5096 35.40076,0.6574 46.21094,-2.1328 19.25805,-4.9706 34.54277,-15.7729 45.57427,-32.2149 2.3977,-2.9745 3.0213,-7.0058 1.8535,-10.3789 -0.3196,-0.92297 -0.735,-1.80968 -1.2305,-2.66793 l -5.4531,6.54493 c -0.016,0.5906 -0.3025,1.1033 -0.9766,1.9062 l -0.1308,0.1563 -0.1114,0.168 c -10.1318,15.1724 -23.62562,24.7366 -41.37693,29.3183 -8.73693,2.255 -30.27552,3.3303 -43.58984,1.9375 -39.1627,-4.0971 -68.69625,-16.9183 -93.67969,-40.48631 -36.32813,-34.27011 -56.33012,-87.56331 -62.79297,-169.5918 -1.89764,-24.08543 -0.81845,-86.98986 2.05078,-116.94726 7.27807,-75.98966 17.36726,-133.63056 44.95898,-241.69727 0.27243,-1.06699 0.61486,-1.89236 1.06055,-2.55078 -0.33283,0.20599 -0.49023,0.3457 -0.49023,0.3457 l 1.17187,-9.54687 c -5.8e-4,2e-4 -0.001,-2.1e-4 -0.002,0 z" />
    </g>
    <path id="path3" style="fill:#2b2b2b;fill-opacity:1;fill-rule:nonzero;stroke:#047100;stroke-width:2.9;stroke-dasharray:none;stroke-opacity:1" d="m 122.43555,553.52646 c -3.014,0.18802 -5.40542,0.56287 -5.94922,1.04883 -0.53631,0.47931 -0.62994,1.63304 -0.73047,9.00586 -0.13244,9.71748 -0.37721,10.6964 -3.03711,12.1875 -1.3947,0.78184 -1.84082,0.82032 -9.88086,0.82617 -6.24596,0.004 -8.58368,0.1268 -9.05664,0.47265 -0.97132,0.71024 -1.33197,2.81447 -1.57422,9.20899 -0.21599,5.70122 0.23045,11.39107 0.99024,12.62304 0.26105,0.42333 2.03544,0.55752 9.25781,0.70508 9.92391,0.20281 9.97771,0.21636 11.8164,2.91797 0.7935,1.16611 0.82032,1.49642 0.82032,9.66602 0,6.57104 0.1126,8.60885 0.5,9.13867 0.36914,0.50483 1.19883,0.75195 3.19531,0.95312 2.93932,0.29614 15.47289,0.11068 17.40625,-0.25781 2.08368,-0.39715 2.26953,-1.2394 2.26953,-10.29492 0,-7.69259 0.0311,-8.04482 0.82422,-9.23828 0.45349,-0.68241 1.55667,-1.61061 2.45117,-2.0625 1.54149,-0.77874 2.05171,-0.82227 9.75781,-0.82227 8.03121,0 8.13534,-0.009 8.65821,-0.82031 1.59623,-2.47769 1.50453,-19.94477 -0.11328,-21.56641 -0.30002,-0.30075 -3.11801,-0.4908 -9.1543,-0.61718 -8.14017,-0.17042 -8.78886,-0.2339 -9.75,-0.95118 -2.33166,-1.74009 -2.47336,-2.37815 -2.67383,-12.11718 -0.14318,-6.95496 -0.2903,-8.93644 -0.68164,-9.17774 -0.27449,-0.16921 -2.82165,-0.5083 -5.66016,-0.7539 -3.03562,-0.26266 -6.67158,-0.26222 -9.68554,-0.0742 z" ns1:nodetypes="cssscsssssssssssssssssssssc" />
    <path style="fill:#2b2b2b;fill-opacity:1;stroke:#047100;stroke-width:2.70365;stroke-opacity:1" d="m 301.96413,733.27294 c 1.70034,-1.05164 2.69582,-2.14083 3.70485,-4.05359 1.23313,-2.33759 1.35092,-2.93657 1.10831,-5.63608 -0.41238,-4.58879 -3.02032,-8.04958 -6.87198,-9.11929 -2.37275,-0.65898 -29.33456,-0.65244 -31.71168,0.008 -2.34427,0.65101 -5.03952,3.04726 -6.13175,5.45152 -2.66624,5.86901 0.97308,13.3265 7.12201,14.59405 0.9707,0.2001 8.22022,0.32554 16.11004,0.27879 l 14.34512,-0.085 z" id="path24" />
    <path style="fill:#1f1f1f;fill-opacity:1;stroke:#047100;stroke-width:5;stroke-dasharray:none;stroke-opacity:1" d="m 216.97369,652.38104 c 7.29625,-2.33246 13.11738,-7.49126 16.52729,-14.64683 1.88623,-3.95822 2.27106,-5.88652 2.25857,-11.31742 -0.01,-4.3561 -0.0901,-4.92497 -1.0916,-7.75198 -1.37204,-3.87305 -2.856,-6.33836 -5.62139,-9.33886 -2.78053,-3.01692 -6.30994,-5.369 -10.32734,-6.88238 -2.62041,-0.98713 -3.75705,-1.21422 -6.80249,-1.35908 -8.3831,-0.39876 -14.58677,1.94998 -20.39692,7.72238 -9.72282,9.65965 -10.14528,24.28494 -1.02489,35.48118 2.5054,3.07564 7.17329,6.36521 10.9779,7.73641 4.91777,1.77237 10.65898,1.90445 15.50087,0.35658 z" id="path25" />
    <path style="display:inline;fill:#1f1f1f;fill-opacity:1;stroke:#047100;stroke-width:5;stroke-dasharray:none;stroke-opacity:1" d="m 366.4823,651.8366 c 7.29625,-2.33246 13.11738,-7.49126 16.52729,-14.64683 1.88623,-3.95822 2.27106,-5.88652 2.25857,-11.31742 -0.01,-4.3561 -0.0901,-4.92497 -1.0916,-7.75198 -1.37204,-3.87305 -2.856,-6.33836 -5.62139,-9.33886 -2.78053,-3.01692 -6.30994,-5.369 -10.32734,-6.88238 -2.62041,-0.98713 -3.75705,-1.21422 -6.80249,-1.35908 -8.3831,-0.39876 -14.58677,1.94998 -20.39692,7.72238 -9.72282,9.65965 -10.14528,24.28494 -1.02489,35.48118 2.5054,3.07564 7.17329,6.36521 10.9779,7.73641 4.91777,1.77237 10.65898,1.90445 15.50087,0.35658 z" id="path25-4" />
  </g>
  </svg>