<?xml version="1.0" encoding="UTF-8" standalone="no"?>
<!-- Created with Inkscape (http://www.inkscape.org/) -->

<svg
   version="1.1"
   id="svg1"
   width="1370.9014"
   height="986.0376"
   viewBox="0 0 1370.9014 986.0376"
   sodipodi:docname="scnovo-4.svg"
   inkscape:version="1.4.4 (dcaf3e7d9e, 2026-05-05)"
   xmlns:inkscape="http://www.inkscape.org/namespaces/inkscape"
   xmlns:sodipodi="http://sodipodi.sourceforge.net/DTD/sodipodi-0.dtd"
   xmlns="http://www.w3.org/2000/svg"
   xmlns:svg="http://www.w3.org/2000/svg">
  <defs
     id="defs1" />
  <sodipodi:namedview
     id="namedview1"
     pagecolor="#505050"
     bordercolor="#eeeeee"
     borderopacity="1"
     inkscape:showpageshadow="0"
     inkscape:pageopacity="0"
     inkscape:pagecheckerboard="0"
     inkscape:deskcolor="#505050"
     inkscape:zoom="0.76570677"
     inkscape:cx="711.76072"
     inkscape:cy="496.92652"
     inkscape:window-width="1625"
     inkscape:window-height="1182"
     inkscape:window-x="0"
     inkscape:window-y="0"
     inkscape:window-maximized="0"
     inkscape:current-layer="g1" />
  <g
     inkscape:groupmode="layer"
     inkscape:label="Image"
     id="g1"
     transform="translate(-33.923347,-55.346467)">
    <path
       id="path1-0"
       style="fill:#000000"
       d="m 278.55862,156.16644 c -7.7642,0.46274 -14.5131,1.38406 -18.4278,2.65821 -6.3812,2.077 -12.2445,8.7118 -13.7012,15.5039 -0.5883,2.7432 -1.0703,13.89551 -1.0703,24.78321 0,17.5835 -0.1955,19.972 -1.75,21.3789 -1.4634,1.3243 -5.4358,1.63765 -24.25,1.90625 -21.851,0.3119 -22.6285,0.39241 -26.9589,2.82031 -5.1454,2.8848 -9.8604,9.74672 -11.1524,16.22852 -1.707,8.5633 -2.2144,33.15701 -0.9258,44.84961 1.3053,11.8429 3.0025,16.7066 7.2032,20.62503 5.1121,4.7685 8.2847,5.2968 31.746,5.2968 21.5751,0 22.003,0.041 23.5313,2.2227 1.295,1.849 1.5566,5.9398 1.5566,24.3418 0,21.21892 0.094,22.30162 2.3243,26.52932 4.213,7.988 9.381,10.2208 27.1757,11.7441 11.1123,0.9512 24.4985,0.669 38.81644,-0.8183 9.8385,-1.022 15.94772,-4.4697 19.35742,-10.9258 2.2296,-4.2225 2.32617,-5.3178 2.32617,-26.11522 0,-20.4471 0.12007,-21.862 2.07227,-24.3438 l 2.07421,-2.6348 h 21.74805 c 21.7423,0 21.74984,-7e-4 27.17774,-2.75 10.3323,-5.2334 12.49283,-14.56109 11.67773,-50.39449 -0.4275,-18.7953 -0.66944,-21.06014 -2.71094,-25.27734 -2.4297,-5.019 -6.5757,-8.64425 -11.9375,-10.43945 -2.1063,-0.7052 -11.30253,-1.13868 -24.17773,-1.13868 h -20.77735 l -2.07421,-2.63476 c -1.9567,-2.4876 -2.07227,-3.88676 -2.07227,-25.03906 0,-20.346 -0.18086,-22.76145 -1.97656,-26.28125 -4.0548,-7.9482 -10.7792,-10.6093 -30.31247,-11.9961 -7.9697,-0.5658 -16.7476,-0.56234 -24.5117,-0.0996 z m 16.8007,3.71094 c 25.20113,1.9045 30.19344,3.32848 34.09964,9.73438 1.7079,2.8008 1.89648,5.28769 1.89648,25.40429 0.005,32.5548 -1.23117,31.20117 28.51563,31.20117 19.8571,0 21.32144,0.1291 25.52734,2.25 7.4691,3.7665 8.85716,7.87458 9.56446,28.29688 0.3229,9.3246 0.14155,22.22326 -0.40235,28.66406 -1.1608,13.7442 -2.88939,17.49205 -9.55469,20.71872 -3.9234,1.8992 -6.07321,2.0703 -25.94531,2.0703 H 337.3906 l -3.26562,2.9161 -3.26563,2.916 -0.5,23.334 c -0.4739,22.11802 -0.61861,23.52632 -2.78711,27.01362 -3.3399,5.3712 -8.71279,7.5143 -20.71292,8.2657 -5.5,0.3444 -12.25,0.7987 -15,1.0097 -2.75,0.2109 -11.1374,-0.1867 -18.6386,-0.8847 -15.9029,-1.48 -19.8851,-3.2103 -22.9571,-9.9746 -1.6243,-3.5764 -1.8618,-6.7943 -1.8808,-25.39462 -0.023,-22.3541 -0.6183,-25.8435 -4.7364,-27.8144 -0.9829,-0.4703 -12.2177,-1.0874 -24.9668,-1.3711 -21.5079,-0.4788 -23.3835,-0.6664 -26,-2.6074 -7.4759,-5.54605 -8.8924,-11.79526 -8.7031,-38.40826 0.186,-26.1419 2.5425,-34.37205 11.0449,-38.59375 3.3546,-1.6657 6.5517,-1.94034 25.3379,-2.18164 13.8107,-0.1774 22.3179,-0.6916 23.7852,-1.4375 1.2563,-0.6386 3.1688,-2.59239 4.25,-4.34179 1.7963,-2.9064 1.9648,-5.05231 1.9648,-24.87891 0,-14.0758 0.3951,-22.46581 1.1231,-23.88281 2.2651,-4.409 6.4251,-7.7871 11.3496,-9.2168 6.0544,-1.7577 24.8969,-3.38324 32.5273,-2.80664 z m -17.8925,12.15234 c -8.2539,0.5149 -14.8019,1.54225 -16.2911,2.87305 -1.4687,1.3126 -1.7247,4.46956 -2,24.66016 -0.3627,26.6115 -1.0322,29.2955 -8.3164,33.3789 -3.8194,2.1411 -5.0408,2.24377 -27.0586,2.25977 -17.1047,0.0122 -23.5094,0.34587 -24.8046,1.29297 -2.66,1.945 -3.6452,7.71115 -4.3086,25.22265 -0.5915,15.6129 0.6302,31.19261 2.7109,34.56641 0.7149,1.1593 5.5749,1.52949 25.3535,1.93359 27.1768,0.5554 27.3221,0.59184 32.3574,7.99026 2.173,3.1934 2.25,4.0942 2.25,26.4668 0,17.99492 0.3044,23.57642 1.3653,25.02732 1.0109,1.3825 3.2826,2.0605 8.75,2.6114 8.0494,0.811 42.3773,0.302 47.67184,-0.7071 5.7062,-1.0876 6.21289,-3.3927 6.21289,-28.19142 0,-21.0663 0.0858,-22.0305 2.25781,-25.2988 1.2419,-1.8688 4.26329,-4.41096 6.71289,-5.64846 4.2214,-2.1326 5.61545,-2.25 26.71875,-2.25 21.9936,0 22.28295,-0.0274 23.71485,-2.25 4.3713,-6.7852 4.11985,-54.61964 -0.31055,-59.06054 -0.8216,-0.8236 -8.53981,-1.34336 -25.07031,-1.68946 -22.292,-0.4667 -24.07103,-0.64116 -26.70313,-2.60546 -6.3853,-4.7653 -6.77131,-6.5131 -7.32031,-33.1836 -0.3921,-19.0463 -0.79353,-24.47006 -1.86523,-25.13086 -0.7517,-0.4634 -7.7267,-1.39185 -15.5,-2.06445 -8.3131,-0.7193 -18.2735,-0.71803 -26.5273,-0.20313 z m -9.1075,4.85157 c 5.7157,-1.1361 36.8874,-1.1334 43.50003,0 l 5,0.85742 0.5,23.48828 c 0.498,23.3971 0.51179,23.50764 3.24219,28.15234 1.5076,2.5646 4.4326,5.7146 6.5,7 3.5899,2.232 4.81391,2.36039 27.25781,2.83789 l 23.5,0.5 0.80469,5.5 c 1.028,7.0312 1.01943,34.6605 -0.0137,42.5 l -0.79102,6 -23,0.5 c -25.9517,0.5642 -28.16675,1.1082 -33.93555,8.3418 l -3.06445,3.84376 -0.85937,24.1562 c -0.4727,13.2867 -0.94995,24.25982 -1.06055,24.38482 -0.1106,0.125 -3.32393,0.6788 -7.14061,1.2305 v 0 c -11.7674,1.7008 -40.1495,0.9016 -45.8633,-1.291 -1.1889,-0.4561 -1.4995,-4.7701 -1.7598,-24.51962 l -0.3164,-23.9648 -3.1054,-3.84181 c -6.145,-7.5979 -6.9842,-7.80069 -33.5801,-8.15429 l -23.6856,-0.31446 -0.8144,-5.68554 c -1.047,-7.3131 -0.797,-38.31845 0.3555,-44.18555 l 0.8828,-4.5 24.4746,-0.5 c 23.4677,-0.4795 24.628,-0.59699 28.2324,-2.83789 2.0673,-1.2854 4.9923,-4.4354 6.5,-7 2.7302,-4.6444 2.7422,-4.75632 3.2402,-28.13672 l 0.5,-23.47265 z"
       inkscape:label="dpad" />
    <path
       id="path1-6"
       style="fill:#000000"
       d="m 720.44989,612.60896 c -39.0343,0.2915 -39.38466,0.313 -44.63086,2.6836 -10.6191,4.7985 -16.92371,15.6705 -15.97071,27.543 1.0343,12.8856 9.7657,23.0581 21.9043,25.5195 2.3942,0.4855 21.67852,0.8069 42.85352,0.7149 36.7732,-0.1598 38.7018,-0.2618 43,-2.2598 6.4839,-3.0141 10.71849,-6.9432 13.77929,-12.7871 2.2509,-4.2975 2.68517,-6.4059 2.70117,-13.1211 0.0234,-9.6854 -2.55511,-15.6346 -9.38281,-21.6445 -7.6616,-6.7437 -9.5979,-6.9821 -54.2539,-6.6485 z m -0.63477,3.9844 c 42.5771,-0.4024 45.63919,-0.033 52.71289,6.3574 11.5315,10.4181 10.1842,28.8081 -2.7793,37.9219 l -4.3125,3.0293 -41.66406,0.2793 -41.66601,0.2793 -5.16797,-2.5781 c -18.2199,-9.0876 -17.22893,-34.8543 1.66797,-43.3574 2.9354,-1.3209 9.58328,-1.6328 41.20898,-1.9317 z m -20.99609,20.0528 c -3.93246,-0.01 -6.48691,4.6916 -3.64844,7.8281 0.9598,1.0606 2.78624,1.9277 4.05664,1.9277 4.9435,0 5.68726,-8.382 0.85156,-9.5957 -0.43189,-0.1084 -0.85296,-0.1594 -1.25976,-0.1601 z m 23.36328,0.053 c -0.79721,0 -1.63417,0.2005 -2.44922,0.6367 -2.3765,1.2719 -2.91788,5.8751 -0.92578,7.8672 0.66,0.66 2.14383,1.1992 3.29883,1.1992 2.8881,0 4.5,-1.8696 4.5,-5.2207 0,-2.6768 -2.03219,-4.4825 -4.42383,-4.4824 z m 23,0 c -0.79721,0 -1.63417,0.2005 -2.44922,0.6367 -2.3765,1.2719 -2.91788,5.8751 -0.92578,7.8672 0.66,0.66 2.14383,1.1992 3.29883,1.1992 2.8881,0 4.5,-1.8696 4.5,-5.2207 0,-2.6768 -2.03219,-4.4825 -4.42383,-4.4824 z"
       inkscape:label="dots" />
    <path
       id="path1-61"
       style="fill:#000000"
       d="m 478.41645,145.90714 c -35.6123,-0.3227 -37.24506,-0.0948 -43.56446,6.0586 -4.3973,4.2818 -6.30917,9.03762 -6.32617,15.73242 -0.0243,9.484 5.57688,17.15136 15.05078,20.60156 2.9226,1.0649 10.49386,1.31471 34.25196,1.13281 27.588,-0.2113 30.8342,-0.41286 34,-2.10156 8.3793,-4.4698 12.33042,-10.93621 12.35742,-20.22461 0.0216,-7.5226 -3.19423,-13.63632 -9.45703,-17.97852 l -4.22657,-2.92968 z m -2.03516,3.5918 c 15.74371,0.005 31.52916,0.61914 34.10156,1.83984 7.1239,3.3804 11.37871,12.80692 9.28711,20.57422 -1.4365,5.3348 -7.22104,11.21412 -12.46484,12.66992 -6.1029,1.6943 -57.90137,1.41075 -62.82227,-0.34375 -7.5884,-2.7056 -11.9414,-8.91691 -11.9414,-17.04101 0,-7.6321 2.94433,-12.31301 9.98633,-15.87891 2.40775,-1.2193 18.1098,-1.82496 33.85351,-1.82031 z m -15.64648,8.13086 0.29687,6.72265 0.29688,6.72461 4,0.0605 c 3.6023,0.0553 4.0315,0.33395 4.3164,2.81055 l 0.31641,2.75 h 10.93359 10.9336 v -6.5 -6.5 h -4.4336 c -4.0932,0 -4.4578,-0.2111 -4.75,-2.75 l -0.3164,-2.75 -10.79688,-0.28321 z m 15.39453,2.16797 c 3.40772,0.006 3.69922,0.42695 3.69922,1.86132 0,1.7818 -0.6336,2.03907 -5,2.03907 -4.6667,0 -5,0.1667 -5,2.5 0,2.1169 -0.46445,2.5 -3.03125,2.5 -3.3528,0 -4.28463,-1.38767 -3.79493,-5.66407 0.3241,-2.8301 0.33908,-2.835 8.57618,-3.125 1.93317,-0.068 3.41487,-0.11321 4.55078,-0.11132 z m -0.30078,6.90039 c 2.2,0 4,0.45 4,1 0,0.55 -1.8,1 -4,1 -2.2,0 -4,-0.45 -4,-1 0,-0.55 1.8,-1 4,-1 z m 10,0 h 4 v 4 4 h -8.44141 c -4.6425,0 -8.71869,-0.45 -9.05859,-1 -1.1834,-1.9147 0.64629,-3 5.05859,-3 3.7743,0 4.44141,-0.3002 4.44141,-2 0,-1.6666 0.6667,-2 4,-2 z"
       inkscape:label="view" />
    <path
       id="path1-36"
       style="fill:#000000"
       d="m 975.57108,145.66404 c -34.1087,0 -36.26797,0.32852 -42.41797,6.47852 -5.9104,5.9104 -7.7362,13.39018 -5.375,22.02148 1.3246,4.8417 8.90384,12.5773 13.92774,14.2168 2.3297,0.7603 13.6448,1.07433 34.4668,0.95703 34.42715,-0.1939 33.97665,-0.11478 40.63865,-7.17188 4.1183,-4.3625 5.6927,-8.45925 5.7637,-15.00195 0.095,-8.7487 -5.0542,-16.57837 -13.1191,-19.94727 -3.0823,-1.2876 -8.8752,-1.55273 -33.88482,-1.55273 z m -0.38672,4 c 33.14124,0 33.34874,0.03 38.67584,5.66016 7.6085,8.0416 6.0071,20.87159 -3.3809,27.08789 l -4.1543,2.75195 -30.07618,0.18555 c -17.0028,0.1057 -31.48466,-0.23049 -33.31836,-0.77539 -6.5135,-1.9357 -12.23396,-10.19596 -12.25196,-17.69336 -0.007,-2.8964 2.55351,-9.07141 4.78321,-11.53711 0.9416,-1.0411 3.38127,-2.74561 5.42187,-3.78711 3.4013,-1.736 6.25718,-1.89258 34.30078,-1.89258 z m -0.26171,8.22266 c -12.3231,-0.2231 -15.25,-0.0145 -15.25,1.08398 0,0.7477 0.31255,1.66998 0.69335,2.05078 0.3808,0.3807 7.2433,0.56957 15.25,0.41797 12.151,-0.2301 14.55665,-0.52339 14.55665,-1.77539 0,-1.2557 -2.4838,-1.54624 -15.25,-1.77734 z m 0,8 c -12.3231,-0.2231 -15.25,-0.0145 -15.25,1.08398 0,0.7477 0.31255,1.66998 0.69335,2.05078 0.3808,0.3807 7.2433,0.56957 15.25,0.41797 12.151,-0.2301 14.55665,-0.52339 14.55665,-1.77539 0,-1.2557 -2.4838,-1.54624 -15.25,-1.77734 z m 0.32421,7.77734 c -12.3111,0 -15.57421,0.27793 -15.57421,1.33203 0,0.7333 0.31255,1.64459 0.69335,2.02539 0.3808,0.3807 7.23839,0.56957 15.23829,0.41797 12.9293,-0.2451 14.58226,-0.46979 14.88086,-2.02539 0.3082,-1.6061 -0.94519,-1.75 -15.23829,-1.75 z"
       inkscape:label="menu" />
    <path
       id="path1-18"
       style="fill:#000000"
       d="m 924.81481,276.80465 c -8.56393,0.3361 -17.20703,1.8341 -25.76563,4.5332 -36.4537,11.4963 -61.82421,40.653 -68.07031,78.2265 -5.0985,30.6702 4.96191,61.32788 27.82031,84.77738 14.138,14.5037 29.48787,23.1348 48.72657,27.3965 13.0576,2.8925 35.405,2.1284 47,-1.6055 30.7523,-9.9032 53.13705,-30.8282 64.43165,-60.23238 5.3443,-13.9131 6.8993,-23.5449 6.2617,-38.7676 -0.6488,-15.4883 -2.9331,-24.9637 -9.25,-38.3516 -5.6479,-11.9701 -11.3414,-19.8998 -20.57031,-28.6523 -19.90635,-18.8789 -44.89221,-28.3325 -70.58398,-27.3242 z m 8.1582,5.1093 c 19.8491,0.9758 37.64123,9.4168 51.83203,24.5879 20.38776,21.7962 26.63276,51.3624 16.84376,79.7618 -3.75601,10.897 -8.11336,18.1128 -16.09766,26.6582 -11.354,12.15198 -23.97665,19.73408 -39.43555,23.68748 -10.392,2.6575 -25.99954,2.6384 -36.92774,-0.047 -21.9831,-5.4016 -42.73572,-22.97938 -52.04492,-44.08198 -12.6941,-28.776 -6.89938,-62.4383 14.72852,-85.5586 16.6703,-17.8205 37.11166,-26.1873 61.10156,-25.0079 z m -42.03711,6.7188 c 0.0305,0 0.0517,0.01 0.0645,0.018 h 0.002 c 0.002,0 0.005,0.01 0.006,0.01 0.11235,0.2789 -2.64746,2.3518 -6.48242,4.8437 -13.4967,8.77 -24.83593,22.3083 -31.29883,37.3672 -13.5563,31.5872 -5.96417,66.5111 19.67383,90.49418 8.2663,7.7327 17.79623,13.4211 29.21093,17.4336 7.6373,2.6847 10.70307,3.1993 21.41407,3.5996 17.6467,0.6595 26.2668,-1.1048 41,-8.3906 10.447,-5.1662 12.42603,-6.6124 21.61523,-15.793 9.1187,-9.11028 10.6124,-11.13988 15.15429,-20.59568 6.7074,-13.9638 8.7514,-22.5841 8.6524,-36.4883 -0.058,-8.141 -0.6589,-13.0792 -2.3125,-19 -5.3453,-19.1385 -18.11822,-37.1099 -34.10942,-47.9922 -2.46963,-1.6806 -3.99993,-2.9175 -3.90625,-3.1211 5.2e-4,-9e-4 0.003,-0.01 0.004,-0.01 h 0.002 0.002 c 0.0345,-0.031 0.13805,-0.023 0.31054,0.035 3.4304,1.1628 14.94949,9.299 21.23829,15 25.31784,22.9512 36.12364,60.482 26.83794,93.2149 -9.383,33.07588 -34.93403,58.73808 -67.10943,67.39838 -8.8528,2.3828 -29.55695,3.4775 -37.71875,1.9941 -29.6805,-5.3943 -55.51592,-24.7633 -68.98242,-51.7187 -19.9777,-39.98868 -9.93274,-86.37518 24.88086,-114.90238 4.8383,-3.9646 20.22436,-13.3986 21.85156,-13.3984 z m 34.04102,6.3086 c -28.7753,1.613 -52.91201,21.4035 -59.94141,49.1504 -1.947,7.6854 -1.93927,23.4444 0.0156,31.0801 2.7979,10.929 8.6746,21.6155 16.2832,29.6074 10.1317,10.64208 22.35419,17.26968 36.55469,19.82618 6.874,1.2376 20.84852,0.4571 27.63672,-1.545 33.9048,-9.99988 54.50838,-45.39368 45.99804,-79.01748 -3.1777,-12.5549 -7.32762,-19.7629 -16.98242,-29.4903 -6.8137,-6.8648 -10.21392,-9.4148 -17.01562,-12.7676 -11.0824,-5.463 -20.78493,-7.5031 -32.54883,-6.8437 z m 3.02148,4.3555 c 20.03481,-0.22 39.13863,9.4547 51.04297,27.3613 8.2677,12.4365 11.84181,27.5586 9.72461,41.1445 -1.3864,8.8966 -5.95633,20.3111 -10.74023,26.8281 -8.3959,11.4375 -22.31394,21.15468 -35.05274,24.47268 -7.8656,2.0488 -23.23326,1.8807 -30.94726,-0.3398 -9.7963,-2.8199 -18.40922,-7.98098 -26.04102,-15.60158 -19.0636,-19.0355 -23.63927,-46.3249 -11.82617,-70.5293 4.8247,-9.8855 16.87525,-22.0353 26.53125,-26.748 8.90212,-4.3448 18.20186,-6.488 27.30859,-6.5879 z"
       inkscape:label="rstick" />
    <path
       id="path1-1"
       style="fill:#000000"
       d="m 1157.0573,145.30772 c -13.3629,-0.22157 -27.3755,5.96616 -35.7442,16.17969 -14.6734,17.9081 -13.3804,44.66634 2.9473,60.99414 5.5609,5.5608 15.0786,10.82069 22.332,12.34179 7.4761,1.5679 18.9499,0.44595 26.5527,-2.59765 17.6625,-7.0708 30.0683,-27.3208 27.9903,-45.6875 -2.3613,-20.8712 -17.9931,-37.44833 -38.4102,-40.73633 -1.8641,-0.30021 -3.759,-0.46249 -5.6679,-0.49414 z m 0.1425,4.81445 c 1.4986,0.0679 2.9818,0.23514 4.4375,0.50586 9.0151,1.6765 16.3115,5.45596 22.5196,11.66406 12.0808,12.0808 15.3091,30.08108 8.1582,45.48438 -1.1694,2.5189 -4.847,7.30201 -8.1739,10.62891 -6.2051,6.2051 -12.2035,9.66961 -19.7578,11.41211 -12.8943,2.9743 -26.8284,-1.33966 -36.6484,-11.34766 -15.6524,-15.9526 -15.6467,-40.67068 0.014,-56.58008 7.7249,-7.84779 18.961,-12.24276 29.4511,-11.76758 z m -18.7714,19.73438 1.9511,3.25 c 12.4528,20.7416 12.2129,20.16465 12.2129,29.28125 v 8.46875 h 3.5 3.5 v -8.60547 -8.60547 l 6.75,-11.11914 c 3.7125,-6.1153 6.8987,-11.46813 7.082,-11.89453 0.1834,-0.4265 -1.4184,-0.77539 -3.5605,-0.77539 -3.8527,0 -3.9468,0.0938 -8.6777,8.58984 -5.4205,9.7346 -4.5271,9.88246 -11.0254,-1.83984 -3.6491,-6.5827 -3.84,-6.75 -7.7364,-6.75 z m -61.836,54.82422 c -17.9135,0.0302 -32.549,9.38935 -40.8047,26.09375 -3.6433,7.3722 -3.6953,7.65135 -3.6953,19.53125 0,11.05137 0.2279,12.53837 2.7442,17.91017 6.1064,13.03555 14.5487,20.81335 27.5273,25.36135 5.6676,1.9861 8.1474,2.293 15.7285,1.9453 20.0654,-0.9202 35.0251,-12.3269 41.5313,-31.66605 3.0915,-9.1894 2.4778,-23.02001 -1.3946,-31.47851 -7.9976,-17.469 -23.4182,-27.72826 -41.6367,-27.69726 z m 156.5,4.67578 c -11.3981,0 -12.3351,0.16021 -18.6797,3.16601 -28.9049,13.694 -35.428,50.07258 -13.164,73.41413 5.8023,6.083 15.1159,11.3905 22.5605,12.8574 27.7877,5.4754 53.7832,-15.9913 53.7832,-44.41405 0,-18.07275 -10.0339,-34.38121 -25.7265,-41.81451 -6.4535,-3.0569 -7.3409,-3.20898 -18.7735,-3.20898 z m -156.4922,1 c 9.8592,0 10.9614,0.20937 17.1035,3.23437 8.0153,3.9474 15.9337,11.99527 19.6914,20.01367 2.3914,5.103 2.6973,6.93776 2.6973,16.25196 0,9.67039 -0.2461,11.01879 -3.1035,17.04879 -5.2661,11.11285 -13.0312,18.21385 -24.0703,22.01185 -10.5113,3.6164 -23.9847,2.0217 -33.709,-3.9883 -5.2866,-3.2673 -12.5233,-11.6358 -15.4375,-17.85355 -2.3988,-5.1179 -2.6797,-6.8741 -2.6797,-16.73832 0,-10.4453 0.1722,-11.37175 3.2969,-17.71875 4.1896,-8.5104 10.4578,-14.77835 18.9687,-18.96485 6.2953,-3.0967 7.343,-3.29687 17.2422,-3.29687 z m 154.9395,3.51562 c 6.1082,-0.10381 12.5846,1.00605 17.3047,3.20117 17.7446,8.252 27.3251,28.556 22.4121,47.4961 -3.0398,11.71855 -13.1116,23.04805 -24.1641,27.18165 -6.2689,2.3446 -15.6275,3.2343 -21.5,2.043 -20.7146,-4.2025 -35.5649,-25.39685 -32.0273,-45.71098 2.7741,-15.9304 12.8608,-27.77415 27.8359,-32.68555 2.9411,-0.96457 6.4737,-1.4631 10.1387,-1.52539 z m -141.7188,13.98438 c -3.5918,0 -3.9737,0.33352 -8.1152,7.04492 -2.3908,3.8744 -4.7508,6.91049 -5.2441,6.74609 -0.4934,-0.1645 -2.8074,-3.22252 -5.1407,-6.79492 -3.8375,-5.8757 -4.5996,-6.52594 -7.9863,-6.80664 -2.2418,-0.1859 -3.7422,0.13116 -3.7422,0.78906 0,0.6043 2.7,5.11369 6,10.02149 3.3,4.9078 6,9.3946 6,9.9707 0,0.908 -9.5359,16.28019 -12.2695,19.77929 v 0.01 c -0.7467,0.9559 0,1.25 3.1601,1.25 4.0634,0 4.22,-0.1337 9.0352,-7.6817 l 4.9023,-7.6836 4.836,7.6778 c 4.7987,7.6183 4.8674,7.6716 9.1152,7.6816 h 4.2813 l -3.6758,-5.75 c -2.0214,-3.1625 -5.1453,-7.935 -6.9434,-10.60741 l -3.2695,-4.85938 6.4141,-9.91601 c 3.5277,-5.4536 6.414,-10.12903 6.414,-10.39063 0,-0.2616 -1.6981,-0.47656 -3.7715,-0.47656 z m 129.7696,4.5 v 20.75 20.75004 h 9.4805 c 14.7138,0 20.5215,-3.39555 20.5215,-12.00005 0,-3.7829 -2.3277,-8.52719 -4.6133,-9.40429 -1.5378,-0.5901 -1.5099,-0.84359 0.3242,-2.87109 2.6538,-2.9336 3.3197,-6.02603 2.1836,-10.14063 -1.4958,-5.4175 -2.9967,-6.03358 -16.0449,-6.58398 z m 12.2656,5.51562 c 2.5827,0.0491 5.3124,0.2688 6.2305,0.6211 2.7468,1.054 3.8022,5.25954 2.0078,7.99804 -1.3385,2.0429 -2.3503,2.36524 -7.4297,2.36524 h -5.8809 l -0.3457,-5.08399 c -0.1908,-2.7961 -0.1589,-5.2711 0.07,-5.5 0.329,-0.3286 2.7649,-0.44951 5.3477,-0.40039 z m 3.7539,17.12107 c 2.6693,0.055 4.0093,0.4839 5.0976,1.4688 2.3972,2.1695 2.4243,6.5957 0.055,8.7402 -1.3216,1.196 -3.7011,1.6543 -8.58,1.6543 h -6.752 l 0.332,-5.75 0.3301,-5.75 6.3652,-0.3008 c 1.2252,-0.058 2.2626,-0.081 3.1524,-0.062 z m -82.5195,33.08795 c -7.6257,0.3988 -10.4492,1.0314 -15.8204,3.5449 -24.2321,11.3396 -33.4255,40.1658 -20.5273,64.3653 5.2906,9.9263 15.8884,18.3119 26.8731,21.2637 12.6832,3.4083 26.5889,1.0467 37.7558,-6.4102 25.9674,-17.3404 26.5258,-55.7792 1.082,-74.5098 -8.7742,-6.4592 -17.386,-8.8804 -29.3632,-8.2539 z m 2.2421,4.791 c 10.3476,-0.1672 20.9031,3.7434 29.1368,12.4493 19.4723,20.5891 13.2163,52.885 -12.6114,65.1035 -7.622,3.6058 -20.3046,4.3814 -27.7793,1.6992 -20.8061,-7.4662 -31.7031,-26.7164 -27.0253,-47.7422 4.3659,-19.6241 21.0332,-31.2311 38.2792,-31.5098 z m 0.7598,16.9844 c -1.2403,0 -2.7028,0.5625 -3.248,1.25 -0.5451,0.6875 -3.4897,7.775 -6.545,15.75 -3.0554,7.975 -6.4734,16.6375 -7.5957,19.25 l -2.041,4.75 h 3.7578 c 3.5116,0 3.8591,-0.2784 5.3047,-4.25 l 1.5469,-4.25 8.543,-0.2871 c 8.3734,-0.2815 8.5527,-0.2369 9.166,2.207 0.3442,1.3712 1.0181,3.5249 1.498,4.7871 0.6889,1.8119 1.5821,2.2677 4.2422,2.1622 1.8532,-0.073 3.2647,-0.6133 3.1367,-1.1993 -0.6167,-2.8233 -13.6966,-37.8283 -14.5429,-38.9199 -0.5329,-0.6875 -1.9824,-1.25 -3.2227,-1.25 z m 0.3184,10.5156 c 0.018,0 0.033,0 0.047,0.018 1.0442,1.0442 4.9649,13.9272 4.4786,14.7168 -0.6762,1.0981 -10.3438,0.9193 -10.3438,-0.1914 0,-1.9531 5.0459,-14.4922 5.8184,-14.543 z"
       inkscape:label="abxy" />
    <path
       id="path1-5"
       style="fill:#000000"
       d="m 517.71559,277.3899 c -17.0342,0.1125 -24.17021,1.4829 -38.25781,7.3476 -15.4302,6.4236 -33.27703,20.9403 -41.95703,34.127 -19.3052,29.3287 -22.49936,62.4011 -9.03516,93.5527 14.2824,33.0444 44.591,56.31 78.4961,60.2539 10.3607,1.2055 10.3468,1.2047 20.2539,0.029 11.6904,-1.387 19.94938,-3.8521 31.01758,-9.2617 11.0503,-5.4008 19.01141,-11.3317 28.19531,-21 12.3779,-13.0307 21.2353,-28.4492 25.3711,-44.1641 2.6929,-10.2325 3.64433,-29.686 1.96093,-40.1211 -6.0657,-37.6009 -34.37872,-68.4846 -72.04492,-78.5859 -7.2359,-1.9405 -10.8051,-2.2647 -24,-2.1777 z m -0.5332,4.7539 c 7.7071,-0.083 15.3424,0.5874 20.0332,2.039 18.6889,5.7833 34.69155,17.7551 45.15235,33.7813 8.4402,12.9305 12.34765,26.3277 12.34765,42.3398 0,21.7399 -8.22981,40.6348 -24.66211,56.6231 -11.1039,10.8038 -21.15789,16.3913 -35.83789,19.914 -16.9192,4.0599 -35.37973,1.7055 -51.36523,-6.5507 -15.8791,-8.2012 -27.13631,-19.7118 -35.22461,-36.0157 -21.2444,-42.8231 2.10794,-94.9882 49.08984,-109.6582 4.9808,-1.5552 12.7597,-2.39 20.4668,-2.4726 z m 38.18945,6.7988 c 2.20409,-0.08 16.24004,8.8413 23.17383,14.832 13.6782,11.818 24.2039,28.4782 29.375,46.5 1.9704,6.8668 2.28552,10.1956 2.22852,23.5 -0.0598,13.9336 -0.34254,16.4047 -2.80274,24.4492 -5.3202,17.3968 -14.39881,32.2384 -27.29101,44.6192 -12.7313,12.2262 -25.37194,19.2783 -42.20704,23.5488 -19.0557,4.8339 -40.69431,2.4281 -58.63281,-6.5176 -19.637,-9.7927 -35.0806,-25.2577 -44.5332,-44.5996 -7.863,-16.0893 -9.47145,-23.1656 -9.43945,-41.5 0.0317,-18.0405 1.67158,-25.3773 9.05078,-40.5 8.1238,-16.6487 22.82293,-32.1046 38.45703,-40.4375 8.2781,-4.4122 8.20074,-3.7784 -0.22266,1.8555 -22.4891,15.0416 -36.82964,41.6473 -36.80664,68.2891 0.0374,44.2352 40.65243,82.0165 85.45313,79.4921 11.8376,-0.667 19.40032,-2.5176 29.23242,-7.1542 31.3396,-14.779 49.71096,-44.4177 48.03906,-77.5 -1.332,-26.3573 -17.05639,-52.995 -38.52539,-65.2618 -2.9125,-1.6642 -5.06636,-3.2559 -4.78516,-3.5371 0.0489,-0.049 0.12793,-0.074 0.23633,-0.078 z m -35.29297,6.1074 c -1.94194,-0.062 -3.89803,-0.032 -5.86328,0.092 -10.9923,0.6942 -17.76139,2.6017 -27.27929,7.6895 -9.2958,4.969 -15.2291,9.9154 -20.9043,17.4277 -20.8255,27.5662 -17.79923,63.9963 7.26367,87.4414 9.8337,9.1989 20.73693,14.6552 34.17773,17.1055 6.5045,1.1859 20.59019,0.3571 27.24219,-1.6035 17.1749,-5.0619 32.65747,-18.0087 40.57227,-33.9278 6.6836,-13.4428 8.89332,-28.9825 6.04492,-42.5 -6.17119,-29.2863 -32.1247,-50.7876 -61.25391,-51.7246 z m -1.79882,4.4453 c 5.56877,0 11.03244,0.5647 14.93554,1.7051 10.1175,2.9563 19.41258,8.4779 27.05078,16.0684 11.917,11.8425 17.75646,26.0386 17.68946,43.0058 -0.1061,26.9242 -19.77587,52.1782 -45.88477,58.9141 v 0 c -7.5719,1.953 -21.91457,1.9592 -29.35547,0.014 -26.2384,-6.8604 -46,-32.1984 -46,-58.9805 0,-27.1206 19.3459,-51.9339 46,-59.0019 4.3218,-1.1463 9.99568,-1.7228 15.56446,-1.7266 z"
       inkscape:label="lstick" />
    <path
       id="path1-2"
       style="fill:#000000"
       d="m 726.40183,216.64057 c -16.71627,-0.77324 -33.45644,7.09119 -43.40429,21.98828 -13.5905,20.3518 -9.90177,48.60135 8.46093,64.78905 5.585,4.9234 10.47084,7.6555 18.42774,10.3067 7.7276,2.5748 23.21944,2.0412 31.24414,-1.0762 26.2858,-10.2112 38.80539,-41.93182 26.67969,-67.59572 -3.5766,-7.5701 -12.85673,-18.09336 -19.26953,-21.85156 -6.94754,-4.07153 -14.54037,-6.20907 -22.13868,-6.56055 z m -3.82812,3.94727 c 21.39742,-0.55932 41.75491,16.0776 45.27539,38.98633 2.9305,19.0695 -7.73048,38.81603 -25.76758,47.73043 -6.6588,3.291 -8.36835,3.6993 -16.56055,3.9629 -14.3748,0.4626 -25.53794,-4.2477 -34.99804,-14.7695 -3.9837,-4.4309 -10.28137,-15.6307 -9.32617,-16.5859 0.2202,-0.22024 3.72802,0.8683 7.79492,2.4179 5.6548,2.1545 7.46702,3.3165 7.70312,4.9395 0.8227,5.6558 9.62668,10.17 16.17188,8.2929 4.684,-1.3433 8.94373,-5.7301 9.67383,-9.9628 0.4751,-2.7544 1.94386,-4.6553 6.60156,-8.54301 7.547,-6.2995 7.50294,-6.27443 11.96484,-6.98633 10.9053,-1.7398 16.74344,-15.92642 10.46094,-25.41992 -2.7985,-4.2288 -9.57154,-8.09375 -14.18164,-8.09375 -7.1247,0 -14.69601,6.58635 -16.13281,14.03515 -0.3675,1.9053 -3.06891,6.81697 -6.00391,10.91407 -4.7022,6.5644 -5.86454,7.58267 -9.77734,8.57617 -4.189,1.0636 -5.06811,0.8765 -15.53711,-3.3125 l -11.09571,-4.43945 0.65821,-3.63672 c 3.1901,-17.6273 16.58927,-32.17145 33.88867,-36.78125 3.05321,-0.81359 6.13072,-1.24432 9.1875,-1.32422 z m 14.41797,21.09765 c 7.38,-0.28577 14.34946,7.07334 11.97461,15 -0.6137,2.0484 -2.49153,4.88138 -4.17383,6.29688 -5.3531,4.5044 -14.19878,2.77386 -17.39258,-3.40234 -3.0724,-5.9412 -1.10536,-13.06138 4.52734,-16.38868 1.63697,-0.96699 3.36138,-1.43991 5.06446,-1.50586 z m 0.85937,3.98243 c -3.33475,-0.0287 -6.66598,1.97173 -8.02148,5.53711 -1.231,3.2375 1.17992,9.06788 4.26172,10.30468 3.1488,1.2638 4.56452,1.23922 7.11132,-0.11718 5.2826,-2.8135 6.35472,-9.25466 2.22852,-13.38086 -1.57774,-1.57774 -3.57923,-2.32656 -5.58008,-2.34375 z m -27.94726,26.88867 c 4.5381,0 8.98242,4.69428 8.98242,9.48831 0,4.6872 -1.34777,7.1234 -4.98047,9.0019 -4.2395,2.1923 -7.52629,1.8611 -10.71289,-1.0781 -2.1829,-2.0133 -2.36254,-2.4364 -0.80664,-1.9024 1.1,0.3775 3.63616,0.9204 5.63476,1.2051 7.0881,1.0095 10.63676,-7.0331 5.41016,-12.25973 -1.35,-1.35 -3.12195,-2.45508 -3.93945,-2.45508 -0.8176,0 -1.76557,-0.45 -2.10547,-1 -0.3618,-0.5854 0.68158,-1 2.51758,-1 z"
       inkscape:label="steam" />
    <path
       style="fill:#c8c8c8;stroke:#1a1a1a;stroke-width:7.404;fill-opacity:1"
       d="M 167.4943,984.05195 C 127.7206,979.89096 97.220868,966.69177 71.658725,942.57773 34.429793,907.45784 14.214711,853.0841 7.7146609,770.58346 5.770006,745.90131 6.8638135,683.34169 9.7706677,652.99148 17.062814,576.85483 34.348981,485.5923 61.965339,377.42908 90.586618,265.32995 131.46089,132.87607 143.86415,112.03443 c 5.67189,-9.53071 20.40678,-24.442401 31.13757,-31.511204 19.49204,-12.840199 49.83794,-24.754791 81.62393,-32.047698 82.08199,-18.832704 188.50457,-23.881431 476.88628,-22.623663 175.00044,0.763259 231.95942,2.359165 293.64367,8.22746 105.2699,10.014792 176.2722,34.959903 204.0321,71.682205 9.0397,11.95824 13.4641,22.38353 27.6583,65.17223 16.2572,49.00747 27.7264,89.40569 45.0918,158.82694 33.2298,132.8428 50.0207,219.31977 59.63,307.10929 3.4533,31.54914 4.9464,111.39624 2.59,138.5079 -6.7164,77.27594 -26.4365,130.46459 -61.4361,165.70394 -29.3153,29.5162 -66.1799,43.41622 -114.9712,43.3507 -32.0047,-0.043 -46.5027,-4.95134 -62.6886,-21.22347 -10.5998,-10.65618 -15.2298,-19.48474 -27.3963,-52.23991 -11.8469,-31.8947 -18.8527,-47.72819 -27.9063,-63.07013 -14.0682,-23.83951 -29.2975,-38.48046 -48.6564,-46.77693 l -10.3131,-4.41977 -121.45643,-1.04626 c -158.25582,-1.36325 -517.34612,-0.36064 -526.73938,1.4707 -9.66021,1.88339 -26.75504,10.51392 -36.35718,18.35536 -10.60912,8.66377 -23.29835,25.78111 -32.9389,44.43342 -7.19442,13.91966 -10.89941,22.82598 -28.14555,67.65854 -3.38476,8.79887 -8.43771,19.4177 -11.22879,23.5974 -10.58565,15.85211 -24.9935,26.06193 -43.52934,30.84614 -9.77355,2.52261 -31.02774,3.48559 -44.89993,2.03433 z m -14.04834,-113.9408 c 0.3102,-0.89786 1.19704,-17.50017 1.97078,-36.89402 4.75924,-119.291 27.56132,-291.39298 48.94317,-369.40557 13.35705,-48.73374 39.66438,-78.59077 82.95634,-94.14982 18.60105,-6.68519 35.89902,-9.38945 70.93946,-11.09027 12.79909,-0.62126 23.65438,-1.51287 24.12286,-1.98135 3.42329,-3.42328 -12.42931,-4.18938 -41.22868,-1.99242 -49.48381,3.77489 -81.08457,16.56626 -106.86786,43.25807 -22.90895,23.71618 -32.28255,46.22581 -44.94241,107.92397 -13.92504,67.86408 -28.5808,177.1058 -35.78142,266.70918 -2.66057,33.10748 -5.21163,91.7194 -4.17232,95.86038 0.89619,3.5707 3.10417,4.52884 4.06008,1.76185 z m 1067.00564,-7.8359 c 1.1778,-12.58334 -1.2907,-74.43763 -4.6258,-115.90598 -10.4304,-129.69241 -28.4384,-251.38839 -44.1678,-298.48065 -16.1572,-48.37311 -52.9408,-79.49956 -105.5266,-89.29707 -32.8209,-6.11503 -75.94577,-7.24925 -70.5521,-1.85559 0.37501,0.37501 11.0634,1.21442 23.752,1.86535 60.184,3.08749 90.2389,13.71057 117.1822,41.41884 25.5757,26.3018 34.3585,49.41247 47.3058,124.47873 16.6797,96.70593 32.034,250.31409 32.048,320.61632 0,15.84689 1.0886,26.62843 2.6809,26.62843 0.5594,0 1.4159,-4.26077 1.9034,-9.46838 z M 515.21028,755.30013 c 16.7027,-4.18935 36.19375,-21.8496 41.91138,-37.97465 2.00333,-5.64981 9.01793,-47.02614 21.97694,-129.63315 11.80559,-75.25449 12.78136,-83.37207 11.1275,-92.5725 -3.39588,-18.89142 -17.35629,-37.5292 -34.35823,-45.86981 -8.89793,-4.36504 -13.3769,-5.23863 -100.26507,-19.55588 C 343.51044,411.2238 342.48092,411.0936 330.29169,413.84627 c -12.83404,2.8983 -23.15196,8.7729 -32.4921,18.49969 -10.88677,11.33745 -15.18083,21.01135 -19.00348,42.81219 -7.22267,41.19135 -25.28653,161.42368 -27.36858,182.16427 -2.38244,23.73294 12.257,49.3875 34.97733,61.29519 7.20763,3.7775 14.74361,5.29294 118.62404,23.85437 91.12288,16.28191 94.73479,16.70244 110.18138,12.82815 z m 402.24275,-2.98953 c 15.08411,-2.57691 57.39796,-9.99401 94.03077,-16.48242 60.1505,-10.65387 67.5393,-12.23511 76.2447,-16.31673 16.5788,-7.77314 30.1081,-24.04215 34.7209,-41.75195 3.6294,-13.93431 3.9275,-11.16489 -14.4038,-133.81759 -11.7863,-78.86079 -14.0821,-90.52988 -19.695,-100.10762 -5.6035,-9.56166 -16.5671,-19.46647 -27.5625,-24.90068 -8.9002,-4.39871 -11.0213,-4.90377 -22.3851,-5.33016 -11.2347,-0.42153 -22.0194,1.1247 -102.6662,14.7196 -49.56206,8.35484 -94.52052,16.09187 -99.9077,17.19341 -22.44402,4.58921 -39.72828,19.36322 -47.15815,40.3092 -3.85835,10.87735 -3.50965,25.1495 1.4205,58.14092 9.97983,66.78286 25.00371,160.68359 26.83202,167.70294 5.42253,20.81852 19.8305,36.10155 41.07718,43.57202 11.15361,3.92168 22.66117,3.35436 59.45238,-2.93094 z M 737.27452,609.87388 c 4.65641,-2.87995 7.38255,-5.8627 10.14579,-11.10085 3.37696,-6.40153 3.69952,-8.04183 3.03514,-15.4345 -1.12933,-12.56647 -8.27122,-22.04392 -18.81904,-24.97334 -6.49783,-1.80463 -80.33325,-1.78672 -86.84301,0.0211 -6.41984,1.78279 -13.80083,8.34497 -16.79193,14.92907 -7.30153,16.07239 2.6648,36.49487 19.50376,39.96607 2.65829,0.54799 22.51123,0.89154 44.11763,0.76347 l 39.28438,-0.23287 z M 510.01504,414.07632 c 27.36363,-8.74761 49.19496,-28.095 61.98335,-54.931 7.0741,-14.84477 8.51733,-22.07661 8.47047,-42.44445 -0.0376,-16.33696 -0.338,-18.47043 -4.0939,-29.07276 -5.14562,-14.52533 -10.71103,-23.77118 -21.08223,-35.0241 -10.42803,-11.31457 -23.66457,-20.13571 -38.73132,-25.81147 -9.82748,-3.7021 -14.09029,-4.55377 -25.51181,-5.09706 -31.43968,-1.49548 -54.70571,7.31316 -76.49588,28.96175 -36.46414,36.22724 -38.04852,91.07741 -3.84372,133.0674 9.39617,11.53477 26.90242,23.87187 41.17114,29.01435 18.44341,6.64705 39.97503,7.14237 58.1339,1.33734 z m 412.00893,0.60605 c 27.52332,-9.30716 48.1901,-27.48628 60.16744,-52.92509 7.1674,-15.22293 9.2611,-24.77248 9.19921,-41.95859 -0.0668,-18.56224 -2.4795,-29.12734 -10.25097,-44.88928 -5.02991,-10.20155 -8.09982,-14.40292 -17.27116,-23.63676 -19.46018,-19.59277 -39.04843,-28.53191 -64.89822,-29.6164 -18.83857,-0.79036 -30.73353,1.71676 -48.12237,10.14285 -29.16859,14.13416 -47.48334,38.13477 -53.66416,70.32435 -4.73936,24.68248 0.1935,48.77338 14.52646,70.94388 14.35345,22.20215 36.50623,37.97444 61.33941,43.6723 11.85949,2.72111 38.10382,1.61867 48.97436,-2.05726 z m 215.48723,-73.80501 c 31.0813,-10.87983 40.13,-52.55896 16.4148,-75.60756 -9.2695,-9.00893 -16.1972,-11.82603 -30.3925,-12.35887 -10.7643,-0.40407 -12.8089,-0.0906 -19.5897,3.00405 -19.1423,8.73593 -30.3522,29.48673 -26.6751,49.37821 3.4843,18.84809 16.3198,33.09593 33.776,37.49227 6.3836,1.60771 19.0265,0.69622 26.4665,-1.9081 z m -854.24581,-20.431 c 6.88234,-1.47538 12.58289,-5.29198 15.01364,-10.05187 1.22108,-2.3911 1.95944,-10.54298 2.3472,-25.91409 0.37077,-14.69812 1.10371,-23.07386 2.12703,-24.30689 1.20453,-1.45138 6.60221,-2.02679 23.62092,-2.51812 26.59637,-0.7678 30.24218,-2.02477 35.3831,-12.19896 3.18102,-6.29544 3.26496,-7.18338 3.26496,-34.54018 0,-31.80801 -0.83029,-35.33325 -9.60741,-40.79139 -4.33858,-2.69797 -6.77173,-3.01665 -27.57801,-3.61203 -22.74563,-0.65088 -22.82496,-0.66358 -24.46793,-3.91795 -1.12716,-2.23264 -1.65441,-10.12042 -1.66757,-24.94704 -0.0181,-20.32764 -0.20389,-21.95929 -2.97496,-26.11966 -4.03862,-6.06345 -10.29159,-8.80269 -23.97404,-10.50233 -12.68999,-1.576348 -38.69816,-0.72155 -46.56749,1.53051 -6.41141,1.83482 -13.50961,8.13496 -15.11424,13.41491 -0.69855,2.29854 -1.64006,13.87079 -2.09224,25.71611 -0.45217,11.84531 -1.41404,22.12993 -2.13748,22.85469 -0.72394,0.72529 -11.41595,1.63148 -23.78065,2.01551 -24.46907,0.75998 -28.40067,1.79372 -33.28196,8.75093 -5.00368,7.13164 -6.02655,13.2169 -6.09512,36.26073 -0.0423,14.23916 0.54611,24.57719 1.64082,28.82519 1.84916,7.17569 6.39832,13.04149 11.66803,15.04502 1.82828,0.69511 13.5476,1.63361 26.04292,2.08554 14.09092,0.50965 23.07047,1.36285 23.64491,2.24665 0.5094,0.78373 1.22098,12.10899 1.5813,25.16727 0.58854,21.32877 0.92922,24.11674 3.35137,27.42564 3.97544,5.43082 10.87907,8.28241 23.04331,9.51817 12.13569,1.23288 37.85551,0.44026 46.60959,-1.43636 z m 930.45941,-58.63922 c 19.1006,-7.14644 29.8553,-22.63181 29.9019,-43.05499 0.041,-17.71624 -8.749,-32.76376 -24.0367,-41.15039 -6.4045,-3.51346 -8.0698,-3.83292 -20.0446,-3.84511 -11.7466,-0.012 -13.7541,0.35004 -19.9632,3.60009 -14.1105,7.38594 -22.1758,17.97939 -25.0948,32.9612 -4.3075,22.10849 10.5386,46.17164 32.6511,52.92235 6.4753,1.97682 19.3235,1.28424 26.5863,-1.43315 z m -503.15746,-5.74443 c 23.68694,-11.81693 34.08999,-38.68928 24.69681,-63.79481 -3.66517,-9.79608 -15.91166,-23.06705 -25.08365,-27.18203 -5.76974,-2.58857 -9.06498,-3.10322 -19.98859,-3.12177 -12.16385,-0.0207 -13.68994,0.27785 -21.79009,4.26216 -9.70276,4.77261 -18.67076,13.6991 -22.98621,22.87983 -12.91658,27.47883 1.22904,60.14494 30.15115,69.62724 9.01739,2.9564 26.37623,1.63189 35.00058,-2.67062 z m 351.39976,0.29557 c 9.0788,-4.17067 16.841,-11.96576 21.6339,-21.72582 3.1957,-6.50736 3.6298,-8.87536 3.6298,-19.79826 0,-10.89644 -0.438,-13.29868 -3.5977,-19.73273 -4.8643,-9.90494 -15.3105,-19.57116 -25.1669,-23.28767 -6.3773,-2.40465 -9.7118,-2.84563 -18.2508,-2.41359 -17.7915,0.90019 -30.368,9.53058 -39.0252,26.78032 -2.95772,5.89344 -3.41921,8.4588 -3.41921,19.00682 0,10.38814 0.48337,13.16382 3.26421,18.74418 5.214,10.46325 11.5682,16.86585 21.9187,22.0858 9.0368,4.55742 9.8836,4.73249 20.5265,4.2437 8.4176,-0.38659 12.8861,-1.32994 18.4867,-3.90275 z m 80.7013,-81.009 c 15.8327,-8.01861 25.5262,-24.60396 24.6582,-42.18974 -1.4261,-28.89356 -29.4625,-49.575037 -56.682,-41.812366 -23.5028,6.702731 -37.3173,28.181516 -33.0326,51.359446 5.7085,30.87988 37.2692,46.71577 65.0564,32.64266 z M 480.8918,130.52293 c 12.01038,-7.85317 13.23664,-25.16999 2.47111,-34.896008 l -5.04984,-4.562223 -26.6078,-0.933033 c -29.0374,-1.018229 -43.34453,0.190018 -48.64633,4.108211 -5.9531,4.399532 -9.02641,11.584133 -8.36532,19.555983 0.94507,11.3963 8.03837,18.70016 19.6835,20.2678 3.74132,0.50364 19.14393,0.62817 34.22803,0.27672 26.31232,-0.61305 27.62298,-0.76802 32.28665,-3.81745 z m 499.93451,-1.23062 c 6.40255,-6.09147 8.16073,-10.49261 7.55223,-18.90506 -0.35717,-4.9378 -1.52035,-8.77029 -3.50975,-11.564154 -5.26493,-7.393924 -8.99024,-8.442195 -32.34097,-9.100485 -29.01872,-0.818078 -44.95713,0.482357 -50.33567,4.10695 -9.95985,6.711949 -12.70434,21.086329 -5.76343,30.186329 7.57469,9.93091 7.66574,9.94978 46.08099,9.55014 l 34.19858,-0.35577 z M 696.80127,120.2098 c 6.65164,-6.65164 2.16468,-17.69014 -7.19073,-17.69014 -8.67197,0 -12.78085,12.06788 -6.07329,17.83746 4.57576,3.93591 9.23252,3.88418 13.26402,-0.14732 z"
       id="path126"
       inkscape:label="steamcontrollerbody"
       transform="translate(33.923347,55.346467)" />
    <path
       style="fill:#666666;stroke:#1a1a1a;stroke-width:7.404;fill-opacity:1"
       d="m 178.06891,67.150819 c 1.58117,-8.118024 8.50694,-20.262891 15.03998,-26.373786 13.41365,-12.546907 37.93205,-21.739759 74.61762,-27.976903 20.03154,-3.4056877 79.86859,-3.4209637 89.60256,-0.02287 7.15047,2.496196 18.35517,11.087727 16.59446,12.724272 -0.58597,0.544638 -11.05616,1.965311 -23.2671,3.157051 -70.36601,6.867445 -116.18386,17.113651 -154.75899,34.608618 -8.26034,3.746311 -15.8466,7.157025 -16.85836,7.579367 -1.4621,0.610326 -1.66117,-0.148016 -0.97017,-3.695744 z"
       id="path127"
       transform="translate(33.923347,55.346467)"
       inkscape:label="lb" />
    <path
       style="fill:#666666;stroke:#1a1a1a;stroke-width:7.404"
       d="m 1189.7505,66.703359 c -35.0222,-17.92282 -96.601,-31.971183 -169.5145,-38.672424 -14.3168,-1.315802 -17.2991,-1.945661 -16.9778,-3.585692 0.508,-2.59345 11.6354,-10.228831 17.7833,-12.202583 6.9107,-2.218642 56.4763,-3.0136483 72.5755,-1.164075 54.7868,6.294211 90.8729,22.131494 101.8727,44.709289 3.6907,7.57548 5.6845,15.424695 3.8924,15.323965 -0.6285,-0.03533 -4.9627,-2.019143 -9.6316,-4.40848 z"
       id="path128"
       transform="translate(33.923347,55.346467)"
       inkscape:label="rb" />
    <path
       style="fill:#666666;stroke:#1a1a1a;stroke-width:7.404"
       d="m 481.90771,740.32382 c -1.79572,-0.34504 -37.64495,-6.5118 -79.66496,-13.7039 -42.02,-7.1921 -82.13696,-14.18152 -89.14879,-15.53202 -14.89418,-2.86866 -26.18722,-8.32661 -33.13057,-16.01206 -6.52564,-7.2231 -12.35061,-20.2559 -13.11925,-29.35299 -0.46275,-5.4768 2.7472,-29.58535 11.86745,-89.13137 18.64195,-121.71298 18.36122,-120.37493 27.87778,-132.87449 4.80971,-6.31733 17.58334,-14.28666 25.8728,-16.14176 8.50883,-1.90419 13.01985,-1.40434 67.16328,7.44218 108.34146,17.70197 145.53867,24.70435 152.3692,28.68353 7.03742,4.09969 14.24455,12.43923 18.55615,21.47173 5.83248,12.21862 5.08577,20.61637 -10.10288,113.62052 -16.56909,101.45713 -17.92783,108.72935 -21.70878,116.19071 -4.19891,8.28617 -12.75291,16.48505 -22.16868,21.24836 -6.77712,3.42846 -9.54809,4.04279 -19.64394,4.3552 -6.46462,0.20003 -13.22308,0.0814 -15.01881,-0.26364 z"
       id="path129"
       transform="translate(33.923347,55.346467)"
       inkscape:label="lpad" />
    <path
       style="fill:#666666;stroke:#1a1a1a;stroke-width:7.404"
       d="M 868.47867,740.73742 C 854.06857,736.57336 843.74708,728.5806 837.50339,716.75079 832.801,707.84124 832.35585,705.46486 817.60888,610.54704 802.01152,510.1558 801.64052,507.43802 802.52431,500.04523 c 2.20995,-18.48592 17.33833,-35.68085 34.82514,-39.58229 19.78578,-4.41436 191.37365,-33.15446 198.31005,-33.21592 16.1118,-0.14277 32.8528,10.83279 40.726,26.70023 4.0977,8.25858 4.3788,9.88011 20.6924,119.37927 13.5204,90.75037 13.8693,96.07783 7.1683,109.45171 -4.8453,9.67025 -15.0225,20.026 -23.4799,23.89184 -7.3154,3.34382 -37.6191,9.06085 -130.66369,24.65071 -65.69447,11.00728 -73.14495,11.86681 -81.62394,9.41664 z"
       id="path130"
       transform="translate(33.923347,55.346467)"
       inkscape:label="rpad" />
  </g>
</svg>
