<svg xmlns="http://www.w3.org/2000/svg" id="svg2" width="446" height="345" viewBox="0 0 446 345"><g id="controller" style="opacity:1" transform="translate(-225.71241,-543.40319)"><path id="path4166-6" d="M435.234 565.161c-33.027.491-66.573-.174-97.155 1.539-21.44 1.289-28.585 1.452-47.954 12.208-9.856 5.474-18.586 14.266-22.628 22.643-8.952 26.336-34.342 128.464-38.684 176.66-.88 28.383-4.039 60.341 14.185 79.697 14.179 13.256 23.197 19.655 39.649 25.506 17.385.082 23.386.907 36.113-14.9 15.582-26.805 32.677-59.662 46.467-79.297 9.601-4.421 18.442-4.81 32.325-5.05 17.601-.388 1.394-.686 37.682-1.006" style="fill:#000;fill-opacity:.13855423;fill-rule:evenodd;stroke:#000;stroke-width:4;stroke-linecap:butt;stroke-linejoin:miter;stroke-miterlimit:4;stroke-dasharray:none;stroke-opacity:1"/><path id="path4166" d="M435.234 565.161c33.027.491 65.624-.395 96.206 1.318 21.44 1.289 56.491 1.673 75.86 12.43 9.856 5.473 18.586 14.265 22.628 22.642 8.952 26.336 34.342 128.464 38.684 176.66.88 28.383 4.039 60.341-14.186 79.697-14.178 13.256-23.196 19.655-39.648 25.506-17.385.082-23.386.907-36.113-14.9-15.582-26.805-32.677-59.662-46.467-79.297-9.602-4.421-18.443-4.81-32.325-5.05-44.744-.924-27.815-1.222-64.639-1.006" style="fill:#000;fill-opacity:.13855423;fill-rule:evenodd;stroke:#000;stroke-width:4;stroke-linecap:butt;stroke-linejoin:miter;stroke-miterlimit:4;stroke-dasharray:none;stroke-opacity:1"/><path id="RB" d="M617.45 585.57c-2.4-8.585-4.59-23.28-34.285-27.556-12.326-1.707-29.296-4.658-45.178-3.393-5.897.712-8.12 7.991-9.652 11.36 28.864 1.839 67.851 1.537 89.116 19.589z" style="fill:#000;fill-opacity:.31372549;fill-rule:evenodd;stroke:#000;stroke-width:3;stroke-linecap:butt;stroke-linejoin:miter;stroke-miterlimit:4;stroke-dasharray:none;stroke-opacity:1"/><path id="RT" d="M610.343 569.589c-6.44-13.888-8.947-13.304-16.355-15.435-14.41-3.348-30.243-4.657-45.242-4.782-5.518.081-5.657 1.047-7.19 4.416 26.073 2.442 57.23 2.785 68.787 15.8z" style="fill:#000;fill-opacity:.31372549;fill-rule:evenodd;stroke:#000;stroke-width:2;stroke-linecap:butt;stroke-linejoin:miter;stroke-miterlimit:4;stroke-dasharray:none;stroke-opacity:1"/><path id="LB" d="M277.833 585.57c2.4-8.585 4.59-23.28 34.285-27.556 12.326-1.707 29.296-4.658 45.179-3.393 5.897.712 8.12 7.991 9.652 11.36-28.865 1.839-67.852 1.537-89.116 19.589z" LT="path4420-4" style="fill:#000;fill-opacity:.31372549;fill-rule:evenodd;stroke:#000;stroke-width:3;stroke-linecap:butt;stroke-linejoin:miter;stroke-miterlimit:4;stroke-dasharray:none;stroke-opacity:1"/><path id="LT" d="M284.94 569.589c6.44-13.888 8.947-13.304 16.355-15.435 14.41-3.348 30.243-4.657 45.242-4.782 5.518.081 5.658 1.047 7.19 4.416-26.073 2.442-57.229 2.785-68.787 15.8z" style="fill:#000;fill-opacity:.31372549;fill-rule:evenodd;stroke:#000;stroke-width:2;stroke-linecap:butt;stroke-linejoin:miter;stroke-miterlimit:4;stroke-dasharray:none;stroke-opacity:1"/><g id="g4196" transform="translate(0.327185,-2.9513229)"><path id="LGRIP" d="M390.633 648.816c-11.79-4.488-85.693-15.798-102.138-17.144-17.908 8.568-28.075 22.583-29.828 42.52l.635 47.596c-.559 14.598 4.674 40.284 23.798 44.74l116.136-13.326c12.126-5.503 10.145-8.915 6.346-12.058-10.815-8.852-23.79-28.7-23.164-39.347.503-14.432 1.575-25.116 19.696-38.587 4.02-2.3-1.13-9.937-11.481-14.394z" style="opacity:0;fill:#000;fill-opacity:.1372549;fill-rule:evenodd;stroke:#000;stroke-width:7.10775232px;stroke-linecap:butt;stroke-linejoin:miter;stroke-opacity:.28638497"/><path id="RGRIP" d="M504.506 648.816c11.79-4.488 85.693-15.798 102.139-17.144 17.907 8.568 28.074 22.583 29.827 42.52l-.635 47.596c.559 14.598-4.674 40.284-23.798 44.74l-116.136-13.326c-12.126-5.503-10.145-8.915-6.346-12.058 10.815-8.852 23.79-28.7 23.164-39.347-.503-14.432-1.575-25.116-19.696-38.587-4.02-2.3 1.13-9.937 11.481-14.394z" style="opacity:0;fill:#000;fill-opacity:.1372549;fill-rule:evenodd;stroke:#000;stroke-width:7.10775232px;stroke-linecap:butt;stroke-linejoin:miter;stroke-opacity:.28638497"/><circle id="RPAD_press" cx="573.41" cy="652.534" r="25.803" style="color:#000;display:inline;overflow:visible;visibility:visible;opacity:0;fill:#000;fill-opacity:.33333333;fill-rule:evenodd;stroke:#000;stroke-width:.90192062;stroke-linecap:butt;stroke-linejoin:miter;stroke-miterlimit:4;stroke-dasharray:none;stroke-dashoffset:0;stroke-opacity:1;marker:none"/><circle id="LPAD_press" cx="325.417" cy="652.534" r="25.803" style="color:#000;display:inline;overflow:visible;visibility:visible;opacity:0;fill:#000;fill-opacity:.33333333;fill-rule:evenodd;stroke:#000;stroke-width:.90192062;stroke-linecap:butt;stroke-linejoin:miter;stroke-miterlimit:4;stroke-dasharray:none;stroke-dashoffset:0;stroke-opacity:1;marker:none"/></g><g id="g4316"><g id="LPAD"><circle id="circle4232" cx="325.744" cy="649.583" r="57.573" style="color:#000;display:inline;overflow:visible;visibility:visible;opacity:1;fill:#000;fill-opacity:.60335197;fill-rule:evenodd;stroke:#000;stroke-width:2.01240349;stroke-linecap:butt;stroke-linejoin:miter;stroke-miterlimit:4;stroke-dasharray:none;stroke-dashoffset:0;stroke-opacity:1;marker:none"/><path id="rect4249" d="M325.744 600.833a10.157 10.157 0 0 0-10.178 10.178v28.394h-28.393a10.156 10.156 0 0 0-10.179 10.178c0 5.639 4.54 10.178 10.18 10.178h28.392v28.394c0 5.639 4.54 10.178 10.178 10.178a10.156 10.156 0 0 0 10.18-10.178v-28.394h28.392c5.639 0 10.178-4.54 10.178-10.178 0-5.64-4.54-10.178-10.178-10.178h-28.393v-28.394c0-5.638-4.54-10.178-10.179-10.178z" style="color:#000;display:inline;overflow:visible;visibility:visible;opacity:.39899998;fill:#b8b8b8;fill-opacity:1;fill-rule:evenodd;stroke:#000;stroke-width:1;stroke-linecap:butt;stroke-linejoin:miter;stroke-miterlimit:4;stroke-dasharray:none;stroke-dashoffset:0;stroke-opacity:1;marker:none"/></g></g><g id="g4340"><g id="g4337"><circle id="RPAD" cx="573.737" cy="649.583" r="57.573" style="color:#000;display:inline;overflow:visible;visibility:visible;opacity:1;fill:#000;fill-opacity:.60335197;fill-rule:evenodd;stroke:#000;stroke-width:2.01240349;stroke-linecap:butt;stroke-linejoin:miter;stroke-miterlimit:4;stroke-dasharray:none;stroke-dashoffset:0;stroke-opacity:1;marker:none"/></g></g><g id="g4384"><g id="g4365"><g id="STICK"><path id="path4168-1" d="M432.93 718.948a35.702 35.255 0 0 1-35.702 35.255 35.702 35.255 0 0 1-35.701-35.255 35.702 35.255 0 0 1 35.701-35.255 35.702 35.255 0 0 1 35.702 35.255z" style="color:#000;display:inline;overflow:visible;visibility:visible;opacity:1;fill:#000;fill-opacity:.60335197;fill-rule:evenodd;stroke:#000;stroke-width:1.24009871;stroke-linecap:butt;stroke-linejoin:miter;stroke-miterlimit:4;stroke-dasharray:none;stroke-dashoffset:0;stroke-opacity:1;marker:none"/></g><circle id="path4231-3-6-5" cx="397.228" cy="718.502" r="6.3" style="color:#000;clip-rule:nonzero;display:inline;overflow:visible;visibility:visible;opacity:0;isolation:auto;mix-blend-mode:normal;color-interpolation:sRGB;color-interpolation-filters:linearRGB;solid-color:#000;solid-opacity:1;fill:#001789;fill-opacity:1;fill-rule:evenodd;stroke:#28bac1;stroke-width:.89698792;stroke-linecap:butt;stroke-linejoin:miter;stroke-miterlimit:4;stroke-dasharray:none;stroke-dashoffset:0;stroke-opacity:1;color-rendering:auto;image-rendering:auto;shape-rendering:auto;text-rendering:auto"/><circle id="STICKPRESS" cx="397.228" cy="718.502" r="19.916" style="color:#000;clip-rule:nonzero;display:inline;overflow:visible;visibility:visible;opacity:1;isolation:auto;mix-blend-mode:normal;color-interpolation:sRGB;color-interpolation-filters:linearRGB;solid-color:#000;solid-opacity:1;fill:#000;fill-opacity:.60392157;fill-rule:evenodd;stroke:#000;stroke-width:.91900003;stroke-linecap:butt;stroke-linejoin:miter;stroke-miterlimit:4;stroke-dasharray:none;stroke-dashoffset:0;stroke-opacity:1;color-rendering:auto;image-rendering:auto;shape-rendering:auto;text-rendering:auto"/></g></g></g><g id="layer2" style="display:none"><rect id="AREA_BACK" width="31.259" height="18.786" x="170.21" y="95.287" ry="0" style="color:#000;display:inline;overflow:visible;visibility:visible;opacity:1;fill:none;fill-opacity:1;fill-rule:evenodd;stroke:#ed00b4;stroke-width:1;stroke-linecap:butt;stroke-linejoin:miter;stroke-miterlimit:4;stroke-dasharray:none;stroke-dashoffset:0;stroke-opacity:1;marker:none"/><rect id="AREA_START" width="31.259" height="18.786" x="246.282" y="95.287" ry="0" style="color:#000;display:inline;overflow:visible;visibility:visible;opacity:1;fill:none;fill-opacity:1;fill-rule:evenodd;stroke:#ed00b4;stroke-width:1;stroke-linecap:butt;stroke-linejoin:miter;stroke-miterlimit:4;stroke-dasharray:none;stroke-dashoffset:0;stroke-opacity:1;marker:none"/><rect id="AREA_C" width="36.616" height="36.643" x="205.215" y="80.263" ry="0" style="color:#000;display:inline;overflow:visible;visibility:visible;opacity:1;fill:none;fill-opacity:1;fill-rule:evenodd;stroke:#ed00b4;stroke-width:1;stroke-linecap:butt;stroke-linejoin:miter;stroke-miterlimit:4;stroke-dasharray:none;stroke-dashoffset:0;stroke-opacity:1;marker:none"/><rect id="AREA_X" width="25.984" height="25.984" x="239.478" y="162.003" ry="0" style="color:#000;display:inline;overflow:visible;visibility:visible;opacity:1;fill:none;fill-opacity:1;fill-rule:evenodd;stroke:#ed00b4;stroke-width:1.01631224;stroke-linecap:butt;stroke-linejoin:miter;stroke-miterlimit:4;stroke-dasharray:none;stroke-dashoffset:0;stroke-opacity:1;marker:none"/><rect id="AREA_Y" width="26.011" height="26.011" x="265.465" y="136.167" ry="0" style="color:#000;display:inline;overflow:visible;visibility:visible;opacity:1;fill:none;fill-opacity:1;fill-rule:evenodd;stroke:#ed00b4;stroke-width:.98868507;stroke-linecap:butt;stroke-linejoin:miter;stroke-miterlimit:4;stroke-dasharray:none;stroke-dashoffset:0;stroke-opacity:1;marker:none"/><rect id="AREA_B" width="25.981" height="25.981" x="291.479" y="162.004" ry="0" style="color:#000;display:inline;overflow:visible;visibility:visible;opacity:1;fill:none;fill-opacity:1;fill-rule:evenodd;stroke:#ed00b4;stroke-width:1.01858723;stroke-linecap:butt;stroke-linejoin:miter;stroke-miterlimit:4;stroke-dasharray:none;stroke-dashoffset:0;stroke-opacity:1;marker:none"/><rect id="AREA_A" width="25.973" height="25.973" x="265.484" y="188.186" ry="0" style="color:#000;display:inline;overflow:visible;visibility:visible;opacity:1;fill:none;fill-opacity:1;fill-rule:evenodd;stroke:#ed00b4;stroke-width:1.02703249;stroke-linecap:butt;stroke-linejoin:miter;stroke-miterlimit:4;stroke-dasharray:none;stroke-dashoffset:0;stroke-opacity:1;marker:none"/><g id="g4481" transform="translate(-225.71241,-503.40319)"><rect id="AREA_LT_1" width="14.625" height="5.58" x="304.272" y="512.033" ry="0" style="color:#000;display:inline;overflow:visible;visibility:visible;opacity:1;fill:none;fill-opacity:1;fill-rule:evenodd;stroke:#ed00b4;stroke-width:1;stroke-linecap:butt;stroke-linejoin:miter;stroke-miterlimit:4;stroke-dasharray:none;stroke-dashoffset:0;stroke-opacity:1;marker:none"/><rect id="AREA_LT_2" width="70.797" height="7.933" x="284.286" y="506.855" ry="0" style="color:#000;display:inline;overflow:visible;visibility:visible;opacity:1;fill:none;fill-opacity:1;fill-rule:evenodd;stroke:#ed00b4;stroke-width:1;stroke-linecap:butt;stroke-linejoin:miter;stroke-miterlimit:4;stroke-dasharray:none;stroke-dashoffset:0;stroke-opacity:1;marker:none"/><rect id="AREA_LT_3" width="10.188" height="9.322" x="283.968" y="514.707" ry="0" style="color:#000;display:inline;overflow:visible;visibility:visible;opacity:1;fill:none;fill-opacity:1;fill-rule:evenodd;stroke:#ed00b4;stroke-width:1;stroke-linecap:butt;stroke-linejoin:miter;stroke-miterlimit:4;stroke-dasharray:none;stroke-dashoffset:0;stroke-opacity:1;marker:none"/><rect id="AREA_LT_4" width="10.061" height="5.534" x="293.981" y="515.064" ry="0" style="color:#000;display:inline;overflow:visible;visibility:visible;opacity:1;fill:none;fill-opacity:1;fill-rule:evenodd;stroke:#ed00b4;stroke-width:1;stroke-linecap:butt;stroke-linejoin:miter;stroke-miterlimit:4;stroke-dasharray:none;stroke-dashoffset:0;stroke-opacity:1;marker:none"/></g><g id="g4385" transform="translate(-225.71241,-543.40319)"><rect id="AREA_LB_1" width="49.547" height="11.147" x="318.009" y="555.831" ry="0" style="color:#000;display:inline;overflow:visible;visibility:visible;opacity:1;fill:none;fill-opacity:1;fill-rule:evenodd;stroke:#ed00b4;stroke-width:1;stroke-linecap:butt;stroke-linejoin:miter;stroke-miterlimit:4;stroke-dasharray:none;stroke-dashoffset:0;stroke-opacity:1;marker:none"/><rect id="AREA_LB_2" width="14.1" height="11.861" x="304.17" y="558.51" ry="0" style="color:#000;display:inline;overflow:visible;visibility:visible;opacity:1;fill:none;fill-opacity:1;fill-rule:evenodd;stroke:#ed00b4;stroke-width:1;stroke-linecap:butt;stroke-linejoin:miter;stroke-miterlimit:4;stroke-dasharray:none;stroke-dashoffset:0;stroke-opacity:1;marker:none"/><rect id="AREA_LB_3" width="9.725" height="12.219" x="294.689" y="561.401" ry="0" style="color:#000;display:inline;overflow:visible;visibility:visible;opacity:1;fill:none;fill-opacity:1;fill-rule:evenodd;stroke:#ed00b4;stroke-width:1;stroke-linecap:butt;stroke-linejoin:miter;stroke-miterlimit:4;stroke-dasharray:none;stroke-dashoffset:0;stroke-opacity:1;marker:none"/><rect id="AREA_LB_4" width="16.332" height="15.611" x="279.511" y="564.972" ry="0" style="color:#000;display:inline;overflow:visible;visibility:visible;opacity:1;fill:none;fill-opacity:1;fill-rule:evenodd;stroke:#ed00b4;stroke-width:1;stroke-linecap:butt;stroke-linejoin:miter;stroke-miterlimit:4;stroke-dasharray:none;stroke-dashoffset:0;stroke-opacity:1;marker:none"/></g><g id="g4456" transform="translate(-111.71241,-543.40319)"><rect id="AREA_RT_1" width="14.625" height="5.58" x="461.736" y="552.033" ry="0" style="color:#000;display:inline;overflow:visible;visibility:visible;opacity:1;fill:none;fill-opacity:1;fill-rule:evenodd;stroke:#ed00b4;stroke-width:1;stroke-linecap:butt;stroke-linejoin:miter;stroke-miterlimit:4;stroke-dasharray:none;stroke-dashoffset:0;stroke-opacity:1;marker:none"/><rect id="AREA_RT_2" width="70.797" height="7.933" x="426.286" y="546.855" ry="0" style="color:#000;display:inline;overflow:visible;visibility:visible;opacity:1;fill:none;fill-opacity:1;fill-rule:evenodd;stroke:#ed00b4;stroke-width:1;stroke-linecap:butt;stroke-linejoin:miter;stroke-miterlimit:4;stroke-dasharray:none;stroke-dashoffset:0;stroke-opacity:1;marker:none"/><rect id="AREA_RT_3" width="10.188" height="9.322" x="486.86" y="554.707" ry="0" style="color:#000;display:inline;overflow:visible;visibility:visible;opacity:1;fill:none;fill-opacity:1;fill-rule:evenodd;stroke:#ed00b4;stroke-width:1;stroke-linecap:butt;stroke-linejoin:miter;stroke-miterlimit:4;stroke-dasharray:none;stroke-dashoffset:0;stroke-opacity:1;marker:none"/><rect id="AREA_RT_4" width="10.061" height="5.534" x="476.338" y="555.064" ry="0" style="color:#000;display:inline;overflow:visible;visibility:visible;opacity:1;fill:none;fill-opacity:1;fill-rule:evenodd;stroke:#ed00b4;stroke-width:1;stroke-linecap:butt;stroke-linejoin:miter;stroke-miterlimit:4;stroke-dasharray:none;stroke-dashoffset:0;stroke-opacity:1;marker:none"/></g><g id="g4446" transform="translate(-225.71241,-543.40319)"><rect id="AREA_RB_1" width="49.547" height="11.147" x="526.978" y="555.831" ry="0" style="color:#000;display:inline;overflow:visible;visibility:visible;opacity:1;fill:none;fill-opacity:1;fill-rule:evenodd;stroke:#ed00b4;stroke-width:1;stroke-linecap:butt;stroke-linejoin:miter;stroke-miterlimit:4;stroke-dasharray:none;stroke-dashoffset:0;stroke-opacity:1;marker:none"/><rect id="AREA_RB_2" width="17.636" height="12.24" x="572.866" y="558.636" ry="0" style="color:#000;display:inline;overflow:visible;visibility:visible;opacity:1;fill:none;fill-opacity:1;fill-rule:evenodd;stroke:#ed00b4;stroke-width:1;stroke-linecap:butt;stroke-linejoin:miter;stroke-miterlimit:4;stroke-dasharray:none;stroke-dashoffset:0;stroke-opacity:1;marker:none"/><rect id="AREA_RB_3" width="14.018" height="12.471" x="587.659" y="561.148" ry="0" style="color:#000;display:inline;overflow:visible;visibility:visible;opacity:1;fill:none;fill-opacity:1;fill-rule:evenodd;stroke:#ed00b4;stroke-width:1;stroke-linecap:butt;stroke-linejoin:miter;stroke-miterlimit:4;stroke-dasharray:none;stroke-dashoffset:0;stroke-opacity:1;marker:none"/><rect id="AREA_RB_4" width="16.332" height="15.611" x="600.521" y="564.972" ry="0" style="color:#000;display:inline;overflow:visible;visibility:visible;opacity:1;fill:none;fill-opacity:1;fill-rule:evenodd;stroke:#ed00b4;stroke-width:1;stroke-linecap:butt;stroke-linejoin:miter;stroke-miterlimit:4;stroke-dasharray:none;stroke-dashoffset:0;stroke-opacity:1;marker:none"/></g><g id="g4321"><rect id="AREA_LPAD_1" width="115.902" height="60" x="42" y="75" ry="0" style="color:#000;display:inline;overflow:visible;visibility:visible;opacity:1;fill:none;fill-opacity:1;fill-rule:evenodd;stroke:#ed00b4;stroke-width:1;stroke-linecap:butt;stroke-linejoin:miter;stroke-miterlimit:4;stroke-dasharray:none;stroke-dashoffset:0;stroke-opacity:1;marker:none"/><rect id="AREA_LPAD_2" width="103.759" height="31.286" x="48.835" y="47.035" ry="0" style="color:#000;display:inline;overflow:visible;visibility:visible;opacity:1;fill:none;fill-opacity:1;fill-rule:evenodd;stroke:#ed00b4;stroke-width:1;stroke-linecap:butt;stroke-linejoin:miter;stroke-miterlimit:4;stroke-dasharray:none;stroke-dashoffset:0;stroke-opacity:1;marker:none"/><rect id="AREA_LPAD_3" width="104.264" height="13.608" x="46.562" y="130.292" ry="0" style="color:#000;display:inline;overflow:visible;visibility:visible;opacity:1;fill:none;fill-opacity:1;fill-rule:evenodd;stroke:#ed00b4;stroke-width:1;stroke-linecap:butt;stroke-linejoin:miter;stroke-miterlimit:4;stroke-dasharray:none;stroke-dashoffset:0;stroke-opacity:1;marker:none"/><rect id="AREA_LPAD_4" width="89.869" height="12.093" x="52.04" y="140.458" ry="0" style="color:#000;display:inline;overflow:visible;visibility:visible;opacity:1;fill:none;fill-opacity:1;fill-rule:evenodd;stroke:#ed00b4;stroke-width:1;stroke-linecap:butt;stroke-linejoin:miter;stroke-miterlimit:4;stroke-dasharray:none;stroke-dashoffset:0;stroke-opacity:1;marker:none"/><rect id="AREA_LPAD_5" width="70.171" height="13.608" x="64.414" y="151.318" ry="0" style="color:#000;display:inline;overflow:visible;visibility:visible;opacity:1;fill:none;fill-opacity:1;fill-rule:evenodd;stroke:#ed00b4;stroke-width:1;stroke-linecap:butt;stroke-linejoin:miter;stroke-miterlimit:4;stroke-dasharray:none;stroke-dashoffset:0;stroke-opacity:1;marker:none"/><rect id="AREA_LPADTEST" width="115.902" height="118" x="42" y="46.5" ry="0" style="color:#000;display:inline;overflow:visible;visibility:visible;opacity:1;fill:none;fill-opacity:1;fill-rule:evenodd;stroke:#00b400;stroke-width:1;stroke-linecap:butt;stroke-linejoin:miter;stroke-miterlimit:4;stroke-dasharray:none;stroke-dashoffset:0;stroke-opacity:1;marker:none"/></g><g id="g4321-8" style="display:inline" transform="translate(248)"><rect id="AREA_RPAD_1" width="118.045" height="55.929" x="40.725" y="76.091" ry="0" style="color:#000;display:inline;overflow:visible;visibility:visible;opacity:1;fill:none;fill-opacity:1;fill-rule:evenodd;stroke:#ed00b4;stroke-width:1;stroke-linecap:butt;stroke-linejoin:miter;stroke-miterlimit:4;stroke-dasharray:none;stroke-dashoffset:0;stroke-opacity:1;marker:none"/><rect id="AREA_RPAD_2" width="102.496" height="31.034" x="46.562" y="48.046" ry="0" style="color:#000;display:inline;overflow:visible;visibility:visible;opacity:1;fill:none;fill-opacity:1;fill-rule:evenodd;stroke:#ed00b4;stroke-width:1;stroke-linecap:butt;stroke-linejoin:miter;stroke-miterlimit:4;stroke-dasharray:none;stroke-dashoffset:0;stroke-opacity:1;marker:none"/><rect id="AREA_RPAD_3" width="102.749" height="13.608" x="48.077" y="130.292" ry="0" style="color:#000;display:inline;overflow:visible;visibility:visible;opacity:1;fill:none;fill-opacity:1;fill-rule:evenodd;stroke:#ed00b4;stroke-width:1;stroke-linecap:butt;stroke-linejoin:miter;stroke-miterlimit:4;stroke-dasharray:none;stroke-dashoffset:0;stroke-opacity:1;marker:none"/><rect id="AREA_RPAD_4" width="88.354" height="12.093" x="53.555" y="140.458" ry="0" style="color:#000;display:inline;overflow:visible;visibility:visible;opacity:1;fill:none;fill-opacity:1;fill-rule:evenodd;stroke:#ed00b4;stroke-width:1;stroke-linecap:butt;stroke-linejoin:miter;stroke-miterlimit:4;stroke-dasharray:none;stroke-dashoffset:0;stroke-opacity:1;marker:none"/><rect id="AREA_RPAD_5" width="65.121" height="14.114" x="69.465" y="150.812" ry="0" style="color:#000;display:inline;overflow:visible;visibility:visible;opacity:1;fill:none;fill-opacity:1;fill-rule:evenodd;stroke:#ed00b4;stroke-width:1;stroke-linecap:butt;stroke-linejoin:miter;stroke-miterlimit:4;stroke-dasharray:none;stroke-dashoffset:0;stroke-opacity:1;marker:none"/><rect id="AREA_RPADTEST" width="118.045" height="118" x="40.725" y="46.5" ry="0" style="color:#000;display:inline;overflow:visible;visibility:visible;opacity:1;fill:none;fill-opacity:1;fill-rule:evenodd;stroke:#00b400;stroke-width:1;stroke-linecap:butt;stroke-linejoin:miter;stroke-miterlimit:4;stroke-dasharray:none;stroke-dashoffset:0;stroke-opacity:1;marker:none"/></g><g id="g4464"><rect id="AREA_STICK_1" width="35.813" height="9.62" x="152.272" y="139.297" ry="0" style="color:#000;display:inline;overflow:visible;visibility:visible;opacity:1;fill:none;fill-opacity:1;fill-rule:evenodd;stroke:#ed00b4;stroke-width:1;stroke-linecap:butt;stroke-linejoin:miter;stroke-miterlimit:4;stroke-dasharray:none;stroke-dashoffset:0;stroke-opacity:1;marker:none"/><rect id="AREA_STICK_2" width="52.598" height="11.406" x="146.379" y="145.368" ry="0" style="color:#000;display:inline;overflow:visible;visibility:visible;opacity:1;fill:none;fill-opacity:1;fill-rule:evenodd;stroke:#ed00b4;stroke-width:1;stroke-linecap:butt;stroke-linejoin:miter;stroke-miterlimit:4;stroke-dasharray:none;stroke-dashoffset:0;stroke-opacity:1;marker:none"/><rect id="AREA_STICK_3" width="60.813" height="11.227" x="143.522" y="150.19" ry="0" style="color:#000;display:inline;overflow:visible;visibility:visible;opacity:1;fill:none;fill-opacity:1;fill-rule:evenodd;stroke:#ed00b4;stroke-width:1;stroke-linecap:butt;stroke-linejoin:miter;stroke-miterlimit:4;stroke-dasharray:none;stroke-dashoffset:0;stroke-opacity:1;marker:none"/><rect id="AREA_STICK_4" width="69.384" height="14.977" x="137.987" y="153.851" ry="0" style="color:#000;display:inline;overflow:visible;visibility:visible;opacity:1;fill:none;fill-opacity:1;fill-rule:evenodd;stroke:#ed00b4;stroke-width:1;stroke-linecap:butt;stroke-linejoin:miter;stroke-miterlimit:4;stroke-dasharray:none;stroke-dashoffset:0;stroke-opacity:1;marker:none"/><rect id="AREA_STICK_5" width="71.884" height="34.263" x="135.844" y="163.94" ry="0" style="color:#000;display:inline;overflow:visible;visibility:visible;opacity:1;fill:none;fill-opacity:1;fill-rule:evenodd;stroke:#ed00b4;stroke-width:1;stroke-linecap:butt;stroke-linejoin:miter;stroke-miterlimit:4;stroke-dasharray:none;stroke-dashoffset:0;stroke-opacity:1;marker:none"/><rect id="AREA_STICK_6" width="55.098" height="33.906" x="143.344" y="177.69" ry="0" style="color:#000;display:inline;overflow:visible;visibility:visible;opacity:1;fill:none;fill-opacity:1;fill-rule:evenodd;stroke:#ed00b4;stroke-width:1;stroke-linecap:butt;stroke-linejoin:miter;stroke-miterlimit:4;stroke-dasharray:none;stroke-dashoffset:0;stroke-opacity:1;marker:none"/><rect id="AREA_STICKTEST" width="71.884" height="73" x="135" y="138" ry="0" style="color:#000;display:inline;overflow:visible;visibility:visible;opacity:1;fill:none;fill-opacity:1;fill-rule:evenodd;stroke:#00b400;stroke-width:1;stroke-linecap:butt;stroke-linejoin:miter;stroke-miterlimit:4;stroke-dasharray:none;stroke-dashoffset:0;stroke-opacity:1;marker:none"/></g></g></svg>