<svg xmlns="http://www.w3.org/2000/svg" id="svg1" width="685.451" height="538.019" viewBox="0 -45 685.451 538.019"><g id="scaler" transform="scale(0.5)"><g id="art" transform="translate(-33.923347,-55.346467)"><path id="DPAD" d="M278.559 156.166c-7.765.463-14.513 1.384-18.428 2.659-6.381 2.077-12.245 8.711-13.701 15.504-.589 2.743-1.07 13.895-1.07 24.783 0 17.583-.196 19.972-1.75 21.379-1.464 1.324-5.436 1.637-24.25 1.906-21.852.312-22.63.392-26.96 2.82-5.145 2.885-9.86 9.747-11.152 16.229-1.707 8.563-2.214 33.157-.926 44.85 1.306 11.842 3.003 16.706 7.203 20.624 5.113 4.769 8.285 5.297 31.746 5.297 21.576 0 22.003.041 23.532 2.223 1.295 1.849 1.556 5.94 1.556 24.342 0 21.219.094 22.301 2.325 26.529 4.213 7.988 9.38 10.22 27.175 11.744 11.113.951 24.499.67 38.817-.818 9.838-1.022 15.947-4.47 19.357-10.926 2.23-4.223 2.326-5.318 2.326-26.115 0-20.447.12-21.862 2.073-24.344l2.074-2.635h21.748c21.742 0 21.75 0 27.178-2.75 10.332-5.233 12.492-14.56 11.677-50.394-.427-18.796-.67-21.06-2.71-25.278-2.43-5.019-6.576-8.644-11.938-10.44-2.106-.704-11.303-1.138-24.178-1.138h-20.777l-2.074-2.635c-1.957-2.487-2.073-3.886-2.073-25.039 0-20.346-.18-22.761-1.976-26.28-4.055-7.95-10.78-10.61-30.313-11.997-7.97-.566-16.747-.562-24.511-.1m16.8 3.711c25.201 1.905 30.194 3.329 34.1 9.735 1.708 2.8 1.896 5.287 1.896 25.404.005 32.555-1.23 31.201 28.516 31.201 19.857 0 21.322.13 25.527 2.25 7.47 3.767 8.858 7.875 9.565 28.297.323 9.325.141 22.223-.402 28.664-1.161 13.744-2.89 17.492-9.555 20.719-3.924 1.9-6.073 2.07-25.945 2.07h-21.67l-3.266 2.916-3.266 2.916-.5 23.334c-.474 22.118-.618 23.527-2.787 27.014-3.34 5.371-8.713 7.514-20.713 8.266-5.5.344-12.25.798-15 1.01-2.75.21-11.137-.187-18.638-.885-15.903-1.48-19.885-3.21-22.957-9.975-1.625-3.576-1.862-6.794-1.881-25.395-.023-22.354-.618-25.843-4.737-27.814-.982-.47-12.217-1.087-24.966-1.371-21.508-.479-23.384-.667-26-2.608-7.476-5.546-8.893-11.795-8.703-38.408.186-26.142 2.542-34.372 11.044-38.594 3.355-1.665 6.552-1.94 25.338-2.181 13.811-.178 22.318-.692 23.786-1.438 1.256-.638 3.168-2.592 4.25-4.341 1.796-2.907 1.964-5.053 1.964-24.88 0-14.075.395-22.465 1.123-23.882 2.266-4.41 6.426-7.787 11.35-9.217 6.054-1.758 24.897-3.383 32.527-2.807m-17.892 12.153c-8.254.515-14.802 1.542-16.291 2.873-1.469 1.312-1.725 4.47-2 24.66-.363 26.611-1.032 29.295-8.317 33.379-3.82 2.14-5.04 2.244-27.058 2.26-17.105.012-23.51.345-24.805 1.293-2.66 1.945-3.645 7.71-4.308 25.222-.592 15.613.63 31.193 2.71 34.567.715 1.159 5.575 1.53 25.354 1.933 27.177.556 27.322.592 32.357 7.99 2.173 3.194 2.25 4.095 2.25 26.467 0 17.995.305 23.577 1.366 25.028 1.01 1.382 3.282 2.06 8.75 2.611 8.049.811 42.377.302 47.671-.707 5.707-1.088 6.213-3.393 6.213-28.192 0-21.066.086-22.03 2.258-25.298 1.242-1.87 4.263-4.411 6.713-5.649 4.221-2.132 5.616-2.25 26.719-2.25 21.993 0 22.283-.027 23.715-2.25 4.371-6.785 4.12-54.62-.31-59.06-.822-.824-8.54-1.344-25.071-1.69-22.292-.466-24.071-.64-26.703-2.605-6.386-4.766-6.772-6.513-7.32-33.184-.393-19.046-.794-24.47-1.866-25.13-.752-.464-7.727-1.393-15.5-2.065-8.313-.72-18.273-.718-26.527-.203m-9.108 4.851c5.716-1.136 36.888-1.133 43.5 0l5 .858.5 23.488c.498 23.397.512 23.508 3.243 28.152 1.507 2.565 4.432 5.715 6.5 7 3.59 2.232 4.813 2.36 27.257 2.838l23.5.5.805 5.5c1.028 7.031 1.02 34.66-.014 42.5l-.79 6-23 .5c-25.952.564-28.167 1.108-33.936 8.342l-3.065 3.844-.859 24.156c-.473 13.287-.95 24.26-1.06 24.385s-3.325.679-7.141 1.23c-11.768 1.701-40.15.902-45.864-1.29-1.188-.457-1.499-4.77-1.76-24.52l-.316-23.965-3.105-3.842c-6.145-7.598-6.984-7.8-33.58-8.154l-23.686-.315-.814-5.685c-1.047-7.313-.797-38.319.355-44.186l.883-4.5 24.475-.5c23.467-.48 24.628-.597 28.232-2.838 2.067-1.285 4.992-4.435 6.5-7 2.73-4.644 2.742-4.756 3.24-28.136l.5-23.473z" style="fill:#000"/><path id="RSTICK" d="M924.815 276.805c-8.564.336-17.207 1.834-25.766 4.533-36.454 11.496-61.824 40.653-68.07 78.226-5.099 30.67 4.962 61.328 27.82 84.778 14.138 14.503 29.488 23.135 48.727 27.396 13.057 2.893 35.405 2.129 47-1.605 30.752-9.903 53.137-30.828 64.431-60.233 5.345-13.913 6.9-23.545 6.262-38.767-.649-15.489-2.933-24.964-9.25-38.352-5.648-11.97-11.341-19.9-20.57-28.652-19.907-18.88-44.892-28.333-70.584-27.324m8.158 5.109c19.85.976 37.641 9.417 51.832 24.588 20.388 21.796 26.633 51.362 16.844 79.762-3.756 10.897-8.114 18.112-16.098 26.658-11.354 12.152-23.977 19.734-39.435 23.687-10.392 2.658-26 2.639-36.928-.047-21.983-5.401-42.736-22.98-52.045-44.082-12.694-28.776-6.9-62.438 14.728-85.558 16.67-17.82 37.112-26.188 61.102-25.008m-42.037 6.719c.03 0 .052.01.064.018h.002c.002 0 .005.01.006.01.113.279-2.647 2.352-6.482 4.843-13.497 8.77-24.836 22.309-31.299 37.368-13.556 31.587-5.964 66.51 19.674 90.494 8.266 7.733 17.796 13.42 29.21 17.433 7.638 2.685 10.704 3.2 21.415 3.6 17.647.66 26.267-1.105 41-8.39 10.447-5.167 12.426-6.613 21.615-15.794 9.119-9.11 10.613-11.14 15.154-20.595 6.708-13.964 8.752-22.584 8.653-36.489-.058-8.14-.659-13.079-2.313-19-5.345-19.138-18.118-37.11-34.109-47.992-2.47-1.68-4-2.917-3.906-3.12l.004-.01h.004c.034-.032.138-.024.31.034 3.43 1.163 14.95 9.3 21.239 15 25.317 22.951 36.123 60.482 26.837 93.215-9.383 33.076-34.934 58.738-67.109 67.398-8.853 2.383-29.557 3.478-37.719 1.995-29.68-5.395-55.516-24.764-68.982-51.72-19.978-39.988-9.933-86.374 24.88-114.902 4.84-3.964 20.225-13.398 21.852-13.398zm34.04 6.308c-28.774 1.613-52.911 21.404-59.94 49.15-1.947 7.686-1.94 23.445.015 31.08 2.798 10.93 8.675 21.616 16.283 29.608 10.132 10.642 22.354 17.27 36.555 19.826 6.874 1.238 20.849.458 27.637-1.545 33.905-10 54.508-45.393 45.998-79.017-3.178-12.555-7.328-19.763-16.983-29.49-6.813-6.865-10.214-9.415-17.015-12.768-11.083-5.463-20.785-7.503-32.55-6.844m3.022 4.356c20.035-.22 39.139 9.455 51.043 27.361 8.268 12.437 11.842 27.559 9.725 41.145-1.386 8.896-5.956 20.31-10.74 26.828-8.396 11.437-22.314 21.154-35.053 24.472-7.866 2.05-23.233 1.881-30.947-.34-9.797-2.82-18.41-7.98-26.041-15.6-19.064-19.036-23.64-46.326-11.826-70.53 4.824-9.886 16.875-22.036 26.53-26.748 8.903-4.345 18.203-6.488 27.31-6.588" style="fill:#000"/><path id="STICK" d="M517.716 277.39c-17.035.112-24.17 1.483-38.258 7.348-15.43 6.423-33.277 20.94-41.957 34.127-19.305 29.328-22.5 62.4-9.035 93.552 14.282 33.045 44.59 56.31 78.496 60.254 10.36 1.206 10.346 1.205 20.254.03 11.69-1.388 19.949-3.853 31.017-9.263 11.05-5.4 19.012-11.331 28.195-21 12.378-13.03 21.236-28.449 25.372-44.164 2.692-10.232 3.644-29.686 1.96-40.12-6.065-37.602-34.378-68.485-72.044-78.587-7.236-1.94-10.806-2.264-24-2.177m-.534 4.754c7.707-.083 15.343.587 20.034 2.039 18.688 5.783 34.691 17.755 45.152 33.781 8.44 12.93 12.348 26.328 12.348 42.34 0 21.74-8.23 40.635-24.663 56.623-11.103 10.804-21.157 16.391-35.837 19.914-16.92 4.06-35.38 1.706-51.366-6.55-15.879-8.202-27.136-19.712-35.224-36.016-21.245-42.823 2.108-94.989 49.09-109.659 4.98-1.555 12.76-2.39 20.466-2.472m38.19 6.799c2.204-.08 16.24 8.84 23.174 14.832 13.678 11.818 24.204 28.478 29.375 46.5 1.97 6.866 2.285 10.195 2.228 23.5-.06 13.933-.342 16.404-2.803 24.449-5.32 17.397-14.398 32.238-27.29 44.619-12.732 12.226-25.373 19.278-42.208 23.549-19.055 4.834-40.694 2.428-58.632-6.518-19.637-9.793-35.081-25.258-44.534-44.6-7.863-16.089-9.471-23.165-9.44-41.5.033-18.04 1.673-25.377 9.052-40.5 8.124-16.648 22.823-32.104 38.457-40.437 8.278-4.412 8.2-3.778-.223 1.856-22.489 15.041-36.83 41.647-36.807 68.289.038 44.235 40.653 82.016 85.454 79.492 11.837-.667 19.4-2.518 29.232-7.154 31.34-14.78 49.711-44.418 48.04-77.5-1.333-26.358-17.057-52.995-38.526-65.262-2.913-1.664-5.067-3.256-4.785-3.537q.072-.074.236-.078m-35.293 6.107a62 62 0 0 0-5.863.092c-10.993.694-17.762 2.602-27.28 7.69-9.295 4.968-15.229 9.915-20.904 17.427-20.825 27.566-17.8 63.996 7.264 87.442 9.833 9.198 20.737 14.655 34.177 17.105 6.505 1.186 20.59.357 27.243-1.603 17.174-5.062 32.657-18.01 40.572-33.928 6.683-13.443 8.893-28.983 6.045-42.5-6.171-29.287-32.125-50.788-61.254-51.725m-1.799 4.445c5.569 0 11.032.565 14.936 1.705 10.117 2.957 19.412 8.478 27.05 16.069 11.917 11.842 17.757 26.038 17.69 43.006-.106 26.924-19.776 52.178-45.885 58.914-7.572 1.953-21.915 1.959-29.355.014-26.239-6.86-46-32.199-46-58.98 0-27.121 19.345-51.935 46-59.003 4.321-1.146 9.995-1.723 15.564-1.726z" style="fill:#000"/><path id="path1" d="M167.494 984.052c-39.773-4.161-70.273-17.36-95.835-41.474-37.23-35.12-57.444-89.494-63.944-171.995-1.945-24.682-.851-87.241 2.056-117.592 7.292-76.136 24.578-167.399 52.194-275.562 28.622-112.099 69.496-244.553 81.9-265.395 5.671-9.53 20.406-24.442 31.137-31.51 19.492-12.841 49.838-24.756 81.624-32.048 82.082-18.833 188.504-23.882 476.886-22.624 175 .763 231.96 2.359 293.644 8.227 105.27 10.015 176.272 34.96 204.032 71.683 9.04 11.958 13.464 22.383 27.658 65.172 16.257 49.007 27.726 89.405 45.092 158.827 33.23 132.843 50.02 219.32 59.63 307.109 3.453 31.55 4.946 111.396 2.59 138.508-6.717 77.276-26.437 130.464-61.436 165.704-29.316 29.516-66.18 43.416-114.971 43.35-32.005-.042-46.503-4.95-62.69-21.223-10.599-10.656-15.229-19.485-27.395-52.24-11.847-31.895-18.853-47.728-27.907-63.07-14.068-23.84-29.297-38.48-48.656-46.777l-10.313-4.42-121.457-1.046c-158.255-1.363-517.346-.36-526.739 1.47-9.66 1.884-26.755 10.515-36.357 18.356-10.61 8.664-23.299 25.781-32.94 44.434-7.194 13.92-10.898 22.826-28.145 67.658-3.384 8.799-8.437 19.418-11.228 23.597-10.586 15.853-24.994 26.062-43.53 30.847-9.773 2.522-31.028 3.485-44.9 2.034zm-14.048-113.94c.31-.899 1.197-17.501 1.97-36.895 4.76-119.29 27.562-291.393 48.944-369.405 13.357-48.734 39.664-78.591 82.956-94.15 18.601-6.685 35.9-9.39 70.94-11.09 12.799-.622 23.654-1.513 24.123-1.982 3.423-3.423-12.43-4.19-41.23-1.992-49.483 3.775-81.084 16.566-106.867 43.258-22.909 23.716-32.283 46.226-44.942 107.924-13.925 67.864-28.581 177.106-35.782 266.709-2.66 33.107-5.211 91.72-4.172 95.86.896 3.571 3.104 4.53 4.06 1.762zm1067.006-7.837c1.177-12.583-1.291-74.437-4.626-115.906-10.43-129.692-28.439-251.388-44.168-298.48-16.157-48.373-52.94-79.5-105.527-89.297-32.82-6.115-75.945-7.25-70.552-1.856.375.375 11.064 1.214 23.752 1.865 60.184 3.088 90.24 13.71 117.183 41.42 25.575 26.3 34.358 49.412 47.305 124.478 16.68 96.706 32.034 250.314 32.048 320.616 0 15.847 1.089 26.629 2.681 26.629.56 0 1.416-4.261 1.904-9.469zM515.21 755.3c16.703-4.19 36.194-21.85 41.912-37.975 2.003-5.65 9.018-47.026 21.977-129.633 11.805-75.254 12.781-83.372 11.127-92.572-3.396-18.892-17.356-37.53-34.358-45.87-8.898-4.365-13.377-5.239-100.265-19.556-112.093-18.47-113.122-18.6-125.311-15.848-12.834 2.899-23.152 8.773-32.492 18.5-10.887 11.337-15.181 21.011-19.004 42.812-7.223 41.191-25.286 161.424-27.368 182.164-2.383 23.733 12.257 49.388 34.977 61.296 7.207 3.777 14.743 5.293 118.624 23.854 91.123 16.282 94.735 16.702 110.181 12.828zm402.243-2.99c15.084-2.576 57.398-9.993 94.03-16.482 60.151-10.654 67.54-12.235 76.246-16.317 16.578-7.773 30.108-24.042 34.72-41.751 3.63-13.935 3.928-11.165-14.403-133.818-11.787-78.86-14.083-90.53-19.695-100.108-5.604-9.561-16.568-19.466-27.563-24.9-8.9-4.4-11.021-4.904-22.385-5.33-11.235-.422-22.02 1.124-102.666 14.72-49.562 8.354-94.52 16.09-99.908 17.192-22.444 4.59-39.728 19.364-47.158 40.31-3.858 10.877-3.51 25.15 1.42 58.14 9.98 66.783 25.004 160.684 26.832 167.704 5.423 20.818 19.831 36.101 41.078 43.572 11.153 3.921 22.66 3.354 59.452-2.931zM737.275 609.875c4.656-2.88 7.382-5.863 10.145-11.101 3.377-6.402 3.7-8.042 3.035-15.434-1.129-12.567-8.27-22.044-18.819-24.974-6.497-1.804-80.333-1.787-86.843.021-6.42 1.783-13.8 8.345-16.792 14.93-7.301 16.072 2.665 36.494 19.504 39.965 2.659.548 22.511.892 44.118.764l39.284-.233zm-227.26-195.798c27.364-8.747 49.195-28.095 61.983-54.93 7.074-14.845 8.518-22.077 8.47-42.445-.037-16.337-.337-18.47-4.093-29.073-5.146-14.525-10.711-23.771-21.082-35.024-10.428-11.315-23.665-20.136-38.732-25.811-9.827-3.703-14.09-4.554-25.511-5.098-31.44-1.495-54.706 7.314-76.496 28.962-36.464 36.227-38.049 91.078-3.844 133.068 9.396 11.534 26.902 23.871 41.171 29.014 18.444 6.647 39.975 7.142 58.134 1.337zm412.009.606c27.523-9.307 48.19-27.486 60.167-52.925 7.168-15.223 9.262-24.772 9.2-41.958-.067-18.563-2.48-29.128-10.251-44.89-5.03-10.201-8.1-14.403-17.272-23.636-19.46-19.593-39.048-28.532-64.898-29.617-18.838-.79-30.733 1.717-48.122 10.143-29.169 14.134-47.483 38.135-53.664 70.324-4.74 24.683.193 48.774 14.526 70.944 14.354 22.202 36.506 37.975 61.34 43.673 11.86 2.72 38.103 1.618 48.974-2.058zm215.487-73.805c31.081-10.88 40.13-52.559 16.415-75.607-9.27-9.01-16.197-11.826-30.392-12.36-10.765-.403-12.81-.09-19.59 3.005-19.142 8.736-30.352 29.487-26.675 49.378 3.484 18.848 16.32 33.096 33.776 37.492 6.383 1.608 19.026.697 26.466-1.908zm-854.246-20.43c6.883-1.476 12.583-5.293 15.014-10.053 1.221-2.39 1.96-10.542 2.347-25.914.371-14.698 1.104-23.073 2.127-24.306 1.205-1.452 6.602-2.027 23.621-2.519 26.597-.767 30.242-2.024 35.383-12.199 3.181-6.295 3.265-7.183 3.265-34.54 0-31.808-.83-35.333-9.607-40.791-4.339-2.698-6.772-3.017-27.578-3.612-22.746-.651-22.825-.664-24.468-3.918-1.127-2.233-1.655-10.12-1.668-24.947-.018-20.328-.204-21.96-2.975-26.12-4.038-6.063-10.291-8.803-23.974-10.502-12.69-1.576-38.698-.722-46.567 1.53-6.412 1.835-13.51 8.135-15.114 13.415-.699 2.299-1.64 13.871-2.093 25.716-.452 11.846-1.414 22.13-2.137 22.855s-11.416 1.632-23.78 2.016c-24.47.76-28.401 1.793-33.283 8.75-5.003 7.132-6.026 13.217-6.095 36.261-.042 14.24.546 24.577 1.641 28.825 1.85 7.176 6.398 13.042 11.668 15.045 1.828.696 13.548 1.634 26.043 2.086 14.09.51 23.07 1.363 23.645 2.247.51.783 1.22 12.109 1.581 25.167.589 21.329.93 24.117 3.351 27.426 3.976 5.43 10.88 8.282 23.044 9.518 12.135 1.233 37.855.44 46.61-1.437zm930.46-58.64c19.1-7.146 29.855-22.632 29.902-43.055.04-17.716-8.75-32.764-24.037-41.15-6.404-3.514-8.07-3.833-20.045-3.845-11.746-.012-13.754.35-19.963 3.6-14.11 7.386-22.176 17.98-25.095 32.96-4.307 22.11 10.539 46.173 32.651 52.923 6.476 1.977 19.324 1.285 26.587-1.433zm-503.158-5.744c23.687-11.817 34.09-38.69 24.697-63.795-3.665-9.796-15.912-23.067-25.084-27.182-5.77-2.589-9.064-3.103-19.988-3.122-12.164-.02-13.69.278-21.79 4.262-9.703 4.773-18.67 13.7-22.986 22.88-12.917 27.479 1.229 60.145 30.15 69.627 9.018 2.957 26.377 1.632 35.001-2.67zm351.4.295c9.079-4.17 16.841-11.965 21.634-21.726 3.196-6.507 3.63-8.875 3.63-19.798 0-10.896-.438-13.298-3.598-19.733-4.864-9.904-15.31-19.57-25.167-23.287-6.377-2.405-9.712-2.846-18.25-2.414-17.792.9-30.369 9.53-39.026 26.78-2.958 5.894-3.419 8.46-3.419 19.007 0 10.388.483 13.164 3.264 18.745 5.214 10.463 11.568 16.865 21.919 22.085 9.037 4.558 9.883 4.733 20.526 4.244 8.418-.387 12.886-1.33 18.487-3.903zm80.701-81.009c15.833-8.018 25.527-24.604 24.659-42.19-1.427-28.893-29.463-49.574-56.682-41.812-23.503 6.703-37.318 28.182-33.033 51.36 5.708 30.88 37.27 46.715 65.056 32.642zm-661.776-44.826c12.01-7.853 13.236-25.17 2.47-34.896l-5.049-4.562-26.608-.933c-29.037-1.019-43.344.19-48.646 4.108-5.953 4.4-9.026 11.584-8.365 19.556.945 11.396 8.038 18.7 19.683 20.268 3.741.503 19.144.628 34.228.276 26.312-.613 27.623-.768 32.287-3.817zm499.934-1.23c6.403-6.092 8.161-10.493 7.553-18.906-.358-4.938-1.52-8.77-3.51-11.564-5.265-7.394-8.99-8.442-32.341-9.1-29.019-.818-44.957.482-50.336 4.107-9.96 6.712-12.704 21.086-5.763 30.186 7.574 9.93 7.665 9.95 46.08 9.55l34.2-.356zm-284.025-9.083c6.652-6.652 2.165-17.69-7.19-17.69-8.672 0-12.781 12.068-6.074 17.837 4.576 3.936 9.233 3.884 13.264-.147z" style="fill:#b8b8b8;fill-opacity:1;stroke:#1a1a1a;stroke-width:7.404" transform="translate(33.923347,55.346467)"/><path id="LB" d="M178.069 67.15c1.581-8.117 8.507-20.262 15.04-26.373 13.414-12.547 37.932-21.74 74.618-27.977 20.031-3.406 79.868-3.42 89.602-.023 7.15 2.496 18.355 11.088 16.595 12.725-.586.544-11.057 1.965-23.268 3.157-70.366 6.867-116.183 17.113-154.759 34.608-8.26 3.747-15.846 7.157-16.858 7.58-1.462.61-1.661-.148-.97-3.696z" style="fill:#666;fill-opacity:1;stroke:#1a1a1a;stroke-width:7.404" transform="translate(33.923347,55.346467)"/><path id="RB" d="M1189.75 66.703c-35.022-17.922-96.6-31.97-169.514-38.672-14.317-1.316-17.3-1.946-16.978-3.586.508-2.593 11.636-10.229 17.784-12.202 6.91-2.219 56.476-3.014 72.575-1.164 54.787 6.294 90.873 22.131 101.873 44.709 3.69 7.575 5.684 15.425 3.892 15.324-.628-.035-4.963-2.02-9.632-4.409z" style="fill:#666;stroke:#1a1a1a;stroke-width:7.404" transform="translate(33.923347,55.346467)"/><path id="LPAD" d="M481.908 740.324c-1.796-.345-37.645-6.512-79.665-13.704s-82.137-14.182-89.149-15.532c-14.894-2.869-26.187-8.327-33.13-16.012-6.526-7.223-12.351-20.256-13.12-29.353-.463-5.477 2.747-29.585 11.868-89.132 18.642-121.712 18.36-120.374 27.877-132.874 4.81-6.317 17.584-14.287 25.873-16.142 8.509-1.904 13.02-1.404 67.163 7.442 108.342 17.702 145.54 24.705 152.37 28.684 7.037 4.1 14.244 12.44 18.556 21.472 5.832 12.218 5.086 20.616-10.103 113.62-16.57 101.457-17.928 108.73-21.709 116.19-4.199 8.287-12.753 16.486-22.169 21.25-6.777 3.428-9.548 4.042-19.643 4.354-6.465.2-13.224.082-15.02-.263z" style="fill:#666;stroke:#1a1a1a;stroke-width:7.404" transform="translate(33.923347,55.346467)"/><path id="RPAD" d="M868.479 740.737c-14.41-4.164-24.732-12.156-30.976-23.986-4.702-8.91-5.147-11.286-19.894-106.204-15.597-100.391-15.968-103.109-15.085-110.502 2.21-18.486 17.339-35.68 34.825-39.582 19.786-4.414 191.374-33.155 198.31-33.216 16.112-.143 32.853 10.833 40.726 26.7 4.098 8.259 4.38 9.88 20.693 119.38 13.52 90.75 13.87 96.077 7.168 109.451-4.845 9.67-15.022 20.026-23.48 23.892-7.315 3.344-37.619 9.06-130.663 24.65-65.695 11.008-73.145 11.868-81.624 9.417z" style="fill:#666;stroke:#1a1a1a;stroke-width:7.404" transform="translate(33.923347,55.346467)"/><g id="LGRIPTOUCH" transform="translate(-733.54339,-5.5408165)"><path id="path4" d="M820.14 467.926c7.404-29.001 92.122 23.999 103.052 85.725s11.018 49.248.115 98.781c-18.518 84.13-19.316 72.223-27.945 155.048-2.624 25.185-.723 108.629 25.866 129.817 34.933 26.636 114.599 53.686 100.007 71.068-10.586 15.852-24.993 26.062-43.53 30.846-9.773 2.523-31.028 3.486-44.9 2.035-39.773-4.16-70.274-17.36-95.836-41.474-37.229-35.12-57.443-89.494-63.943-171.995-1.945-24.682-.85-87.241 2.057-117.591 7.292-76.137 17.44-134.097 45.056-242.26" style="baseline-shift:baseline;display:inline;overflow:visible;vector-effect:none;fill:#c8c8c8;stop-color:#000"/><path id="path5" d="M825.468 457.09q-.293.105-.584.22c-4.023 1.592-7.161 5.125-8.33 9.7-27.64 108.26-37.85 166.54-45.156 242.823-2.945 30.743-4.054 92.957-2.063 118.236 6.538 82.973 26.964 138.427 65.094 174.397 26.141 24.66 57.608 38.238 97.992 42.462 14.43 1.51 35.401.658 46.211-2.132 19.258-4.97 34.543-15.773 45.575-32.215 2.397-2.975 3.02-7.006 1.853-10.38a15.5 15.5 0 0 0-1.23-2.667l-5.453 6.545c-.016.59-.303 1.103-.977 1.906l-.13.156-.112.168c-10.132 15.173-23.626 24.737-41.377 29.319-8.737 2.255-30.276 3.33-43.59 1.937-39.163-4.097-68.696-16.918-93.68-40.486-36.328-34.27-56.33-87.563-62.793-169.592-1.897-24.085-.818-86.99 2.051-116.947 7.278-75.99 17.367-133.63 44.959-241.697.272-1.067.615-1.893 1.06-2.551-.332.206-.49.345-.49.345l1.172-9.546z" style="baseline-shift:baseline;display:inline;overflow:visible;vector-effect:none;fill:#1a1a1a;stop-color:#000"/></g><g id="RGRIPTOUCH" transform="matrix(-1,0,0,1,2175.122,-5.5408165)"><path id="path6" d="M820.14 467.926c7.404-29.001 92.122 23.999 103.052 85.725s11.018 49.248.115 98.781c-18.518 84.13-19.316 72.223-27.945 155.048-2.624 25.185-.723 108.629 25.866 129.817 34.933 26.636 114.599 53.686 100.007 71.068-10.586 15.852-24.993 26.062-43.53 30.846-9.773 2.523-31.028 3.486-44.9 2.035-39.773-4.16-70.274-17.36-95.836-41.474-37.229-35.12-57.443-89.494-63.943-171.995-1.945-24.682-.85-87.241 2.057-117.591 7.292-76.137 17.44-134.097 45.056-242.26" style="baseline-shift:baseline;display:inline;overflow:visible;vector-effect:none;fill:#c8c8c8;stop-color:#000"/><path id="path7" d="M825.468 457.09q-.293.105-.584.22c-4.023 1.592-7.161 5.125-8.33 9.7-27.64 108.26-37.85 166.54-45.156 242.823-2.945 30.743-4.054 92.957-2.063 118.236 6.538 82.973 26.964 138.427 65.094 174.397 26.141 24.66 57.608 38.238 97.992 42.462 14.43 1.51 35.401.658 46.211-2.132 19.258-4.97 34.543-15.773 45.575-32.215 2.397-2.975 3.02-7.006 1.853-10.38a15.5 15.5 0 0 0-1.23-2.667l-5.453 6.545c-.016.59-.303 1.103-.977 1.906l-.13.156-.112.168c-10.132 15.173-23.626 24.737-41.377 29.319-8.737 2.255-30.276 3.33-43.59 1.937-39.163-4.097-68.696-16.918-93.68-40.486-36.328-34.27-56.33-87.563-62.793-169.592-1.897-24.085-.818-86.99 2.051-116.947 7.278-75.99 17.367-133.63 44.959-241.697.272-1.067.615-1.893 1.06-2.551-.332.206-.49.345-.49.345l1.172-9.546z" style="baseline-shift:baseline;display:inline;overflow:visible;vector-effect:none;fill:#1a1a1a;stop-color:#000"/></g></g></g><g id="RGRIP" transform="matrix(0.23391414,0,0,0.23391414,410.62356,166.93414)"><path id="RGRIP-5" d="M792.307 360.744c74.663-9.988 149.245 47.282 174.577 115.856 8.441 22.85 9.82 47.327 8.782 71.471-1.927 44.818-26.638 89.12-60.783 116.785-21.232 17.201-49.043 29.843-75.792 33.513-56.947 7.813-115.558-11.598-155.241-55.003-66.86-73.128-58.5-195.883 24.244-253.157 25.682-17.777 53.882-25.407 84.213-29.465m-7.486 18.106c14.914-1.994 31.863.917 46.785 4.718 4.379 1.115 7.772 2.59 12.164 3.951 6.457 2.002 6.946.11 14.035 3.172 34.032 14.704 64.814 40.313 81.585 74.473 31.948 65.075 14.447 150.252-45.093 192.46-19.38 13.737-42.265 21.434-65.498 24.545-6.123.82-17.853 1.619-23.393 1.166-4.438-.362-4.697-2.291-10.292-2.748-4.329-.354-6.48.051-10.293-.46-7.436-.997-16.907-2.465-24.328-4.637-7.798-2.283-15.298-4.722-22.457-8.009-12.995-5.966-25.627-14.261-36.492-24.067-12.924-11.664-23.956-25.137-32.35-40.072-1.644-2.926-2.889-5.546-4.373-8.576-19.268-39.343-21.98-86.377-4.161-126.743 2.349-5.321 4.828-10.178 7.438-15.247 1.983-3.85 3.787-7.039 6.073-10.483 9.747-14.686 21.415-27.56 35.794-37.479 5.244-3.616 11.09-7.43 16.843-10.4 18.54-9.575 37.584-12.832 58.013-15.564m69.242 10.078-3.743 3.812c16.766 12.157 33.64 20.666 47.31 37.165 19.043 22.985 30.939 51.771 35.414 81.001.945 6.173 1.488 12.707 1.488 19.06 0 3.374 0 5.512-.397 8.576-.789 6.1-1.962 15.101-3.348 21.918-4.299 21.135-13.094 41.418-25.295 59.083-15.252 22.082-37.186 39.278-61.722 49.362-9.267 3.809-19.248 6.686-29.007 8.353-2.165.37-8.923 1.212-10.27 1.449-2.858.502-3.608 1.23-4.7 1.825m48.655-290.651 1.872 2.859" style="fill:#6c6c6c;fill-opacity:1;stroke:#1a1a1a;stroke-width:12;stroke-dasharray:none;stroke-opacity:1;opacity:0"/><text xml:space="preserve" id="text2-0" x="714.955" y="571.23" style="font-size:149.333px;line-height:1.25;font-family:&quot;Bitstream Vera Sans Mono&quot;;-inkscape-font-specification:&quot;Bitstream Vera Sans Mono&quot;;letter-spacing:14.933px;word-spacing:0;fill:#1a1a1a;opacity:0"><tspan id="tspan2-5" x="714.955" y="571.23" style="font-style:normal;font-variant:normal;font-weight:700;font-stretch:normal;font-size:149.333px;font-family:&quot;Apolonia Nova OT&quot;;-inkscape-font-specification:&quot;Apolonia Nova OT Bold&quot;;fill:#1a1a1a">R4</tspan></text></g><g id="RGRIP2" transform="matrix(0.23391414,0,0,0.23391414,404.6299,153.08091)"><path id="RGRIP2-0" d="M783.822 792.904c20.648-2.73 45.444 1.422 65.317 8.068 39.235 13.122 73.566 39.62 95.835 74.723 16.783 26.454 26.915 57.162 29.037 88.1.318 4.64.888 6.966.888 11.747 0 5.053-.69 7.603-.938 12.726-3.802 78.55-66.151 143.158-143.345 152.428-118.4 14.219-216.164-121.357-183.55-231.719 12.27-41.52 37.612-77.747 76.313-98.39 13.71-7.311 28.701-12.366 43.87-15.354 5.34-1.051 11.419-1.647 16.573-2.329m40.945 27.973c7.311-6.632 15.76-1.578 24.372 1.772 21.34 8.302 40.47 22.198 56.543 38.362 48.487 48.762 62.674 127.301 30.33 188.928-12.84 24.464-32.868 45.971-57.627 58.49-11.702 5.918-25.198 11.312-38.02 13.493-6.169 1.05-6.15-.787-11.698-.149-2.827.326-6.894.79-9.75 1.167-4.69.62-10.057.416-14.622.416-2.93 0-4.777.032-7.8 0-9.48-.113-22.723-2.602-32.17-5.31-7.96-2.28-15.251-5.527-22.423-9.128-4.612-2.316-8.349-4.227-12.673-7.098-18.004-11.954-33.821-28.013-45.819-46.004-5.644-8.464-11.02-17.37-15.023-26.43-1.483-3.355-2.583-6.388-3.938-9.79-9.772-24.53-13.973-51.586-12.148-78.311 1.084-15.886 6.086-32.489 12.312-46.987 1.476-3.437 2.696-6.401 4.426-9.79 3.314-6.49 7.29-12.72 11.447-18.598 14.165-20.03 35.372-37.454 58.492-45.672 13.972-4.966 30.263-8.167 44.844-8.168h9.749c4.564 0 9.276.537 13.648 1.36 3.56.67 8.698 1.214 12.582 3.05 3.287 1.556 3.917 3.204 4.966 4.4m-2.925-3.915c2.002-.953 2.885-1.875 6.825 0m-2.925 2.937c19.658 12.268 39.37 19.546 56.505 36.306 20.785 20.328 35.1 47.88 42.933 75.284 2.429 8.5 5.328 20.607 5.814 29.367.139 2.492.262 4.3.596 6.852.367 2.805.414 4.79.414 7.831 0 3.362-.155 5.716-.561 8.81-1.756 13.388-3.531 26.706-7.891 40.135-9.106 28.049-24.903 53.475-48.091 71.998-8.231 6.575-17.588 12.035-27.297 16.092-3.091 1.291-9.295 3.577-11.674 4.675-2.96 1.366-3.715 2.258-4.899 3.167" style="fill:#6c6c6c;fill-opacity:1;stroke:#1a1a1a;stroke-width:12;stroke-dasharray:none;stroke-opacity:1;opacity:0"/><text xml:space="preserve" id="text2-0-2" x="710.223" y="1004.972" style="font-size:149.333px;line-height:1.25;font-family:&quot;Bitstream Vera Sans Mono&quot;;-inkscape-font-specification:&quot;Bitstream Vera Sans Mono&quot;;letter-spacing:14.933px;word-spacing:0;fill:#1a1a1a;opacity:0"><tspan id="tspan2-5-2" x="710.223" y="1004.972" style="font-style:normal;font-variant:normal;font-weight:700;font-stretch:normal;font-size:149.333px;font-family:&quot;Apolonia Nova OT&quot;;-inkscape-font-specification:&quot;Apolonia Nova OT Bold&quot;;fill:#1a1a1a">R5</tspan></text></g><g id="LGRIP2" transform="matrix(0.23391414,0,0,0.23391414,2.1424689,154.79522)"><path id="LGRIP2-9" d="M418.15 785.575c-20.647-2.73-45.443 1.422-65.316 8.069-39.235 13.122-73.566 39.62-95.836 74.722-16.783 26.454-26.914 57.162-29.036 88.1-.318 4.64-.888 6.966-.888 11.748 0 5.052.69 7.602.937 12.725 3.803 78.55 66.152 143.159 143.345 152.429 118.4 14.218 216.165-121.357 183.55-231.72-12.27-41.52-37.611-77.747-76.313-98.39-13.709-7.311-28.7-12.366-43.87-15.353-5.34-1.052-11.418-1.648-16.572-2.33m-40.945 27.973c-7.312-6.632-15.76-1.577-24.372 1.773-21.34 8.301-40.47 22.197-56.543 38.362-48.487 48.762-62.674 127.3-30.33 188.927 12.84 24.464 32.868 45.971 57.626 58.491 11.703 5.918 25.199 11.311 38.02 13.492 6.17 1.05 6.151-.787 11.7-.148 2.825.325 6.893.789 9.748 1.167 4.691.62 10.058.415 14.623.415 2.93 0 4.777.032 7.8 0 9.48-.113 22.723-2.602 32.17-5.31 7.96-2.28 15.25-5.527 22.422-9.128 4.613-2.315 8.35-4.226 12.674-7.098 18.004-11.954 33.82-28.013 45.818-46.004 5.644-8.463 11.02-17.37 15.024-26.43 1.482-3.355 2.583-6.388 3.938-9.79 9.772-24.53 13.973-51.586 12.148-78.311-1.084-15.886-6.086-32.489-12.312-46.987-1.476-3.436-2.696-6.4-4.426-9.789-3.314-6.491-7.29-12.72-11.447-18.599-14.166-20.03-35.372-37.454-58.492-45.671-13.972-4.967-30.264-8.167-44.844-8.168h-9.75c-4.563 0-9.275.537-13.648 1.36-3.56.669-8.698 1.213-12.581 3.05-3.287 1.555-3.917 3.203-4.966 4.4m2.924-3.916c-2.001-.952-2.884-1.875-6.824 0m2.925 2.937c-19.659 12.268-39.37 19.546-56.505 36.307-20.785 20.328-35.101 47.879-42.933 75.283-2.43 8.5-5.329 20.607-5.815 29.367-.138 2.492-.262 4.301-.595 6.852-.367 2.805-.414 4.79-.414 7.832 0 3.361.155 5.715.561 8.81 1.756 13.387 3.53 26.705 7.89 40.134 9.107 28.049 24.903 53.475 48.092 71.998 8.231 6.575 17.588 12.035 27.297 16.092 3.09 1.292 9.295 3.577 11.674 4.675 2.96 1.366 3.715 2.258 4.898 3.167" style="fill:#6c6c6c;fill-opacity:1;stroke:#1a1a1a;stroke-width:12;stroke-dasharray:none;stroke-opacity:1;opacity:0"/><text xml:space="preserve" id="text2-3" x="327.878" y="998.578" style="font-size:149.333px;line-height:1.25;font-family:&quot;Bitstream Vera Sans Mono&quot;;-inkscape-font-specification:&quot;Bitstream Vera Sans Mono&quot;;letter-spacing:14.933px;word-spacing:0;fill:#1a1a1a;opacity:0"><tspan id="tspan2-0" x="327.878" y="998.578" style="font-style:normal;font-variant:normal;font-weight:700;font-stretch:normal;font-size:149.333px;font-family:&quot;Apolonia Nova OT&quot;;-inkscape-font-specification:&quot;Apolonia Nova OT Bold&quot;;fill:#1a1a1a">L5</tspan></text></g><g id="LGRIP" transform="matrix(1.1060296,0,0,1.1060296,-33.696232,-32.921155)"><path id="LGRIP-9" d="M113.88 256.99c-15.79-2.113-31.563 10-36.92 24.502-1.786 4.833-2.078 10.01-1.858 15.116.407 9.478 5.633 18.848 12.855 24.698 4.49 3.638 10.372 6.312 16.03 7.088 12.043 1.652 24.438-2.453 32.831-11.632 14.14-15.466 12.372-41.428-5.127-53.54-5.432-3.76-11.396-5.374-17.81-6.232m1.583 3.83c-3.154-.423-6.739.193-9.895.997-.926.236-1.644.548-2.572.836-1.366.423-1.47.023-2.969.67-7.197 3.11-13.707 8.526-17.254 15.75-6.757 13.763-3.056 31.778 9.537 40.704 4.098 2.905 8.938 4.533 13.852 5.191 1.295.173 3.775.342 4.947.247.939-.077.994-.485 2.177-.582.915-.074 1.37.011 2.177-.097 1.572-.21 3.575-.521 5.145-.98 1.649-.483 3.235-1 4.75-1.694a31 31 0 0 0 7.717-5.09c2.733-2.467 5.066-5.316 6.841-8.475.348-.619.612-1.173.925-1.814 4.075-8.32 4.65-18.268.88-26.805-.496-1.125-1.02-2.152-1.573-3.224a22 22 0 0 0-1.284-2.217c-2.061-3.106-4.529-5.829-7.57-7.927-1.109-.765-2.346-1.571-3.562-2.2-3.921-2.024-7.949-2.713-12.27-3.29m-14.643 2.13.791.807c-3.546 2.57-7.114 4.37-10.005 7.86-4.028 4.86-6.544 10.949-7.49 17.13a27 27 0 0 0-.315 4.031c0 .714 0 1.166.084 1.814.167 1.29.415 3.194.708 4.636.91 4.47 2.77 8.76 5.35 12.495 3.226 4.67 7.864 8.307 13.054 10.44 1.96.805 4.07 1.414 6.134 1.766.458.079 1.887.257 2.172.307.605.106.763.26.994.386m-10.29-61.47-.396.605" style="fill:#6c6c6c;fill-opacity:1;stroke:#1a1a1a;stroke-width:2.53788;stroke-dasharray:none;stroke-opacity:1;opacity:0"/><text x="98.911" y="301.325" style="font-size:31.5824px;line-height:1.25;font-family:&quot;Bitstream Vera Sans Mono&quot;;letter-spacing:3.158px;word-spacing:0;fill:#1a1a1a;opacity:0"><tspan x="98.911" y="301.325" style="font-style:normal;font-variant:normal;font-weight:700;font-stretch:normal;font-size:31.5824px;font-family:&quot;Apolonia Nova OT&quot;;-inkscape-font-specification:&quot;Apolonia Nova OT Bold&quot;;fill:#1a1a1a">L4</tspan></text></g><g id="controller"/><g id="layerAreas" style="display:none"><rect id="AREA_A" width="52.027" height="46.604" x="534.961" y="126.054" style="fill:none;stroke:none"/><rect id="AREA_B" width="49.304" height="47.457" x="572.531" y="87.005" style="fill:none;stroke:none"/><rect id="AREA_X" width="45.311" height="45.61" x="499.085" y="84.652" style="fill:none;stroke:none"/><rect id="AREA_Y" width="48.287" height="45.653" x="536.358" y="44.87" style="fill:none;stroke:none"/><rect id="AREA_C" width="55.264" height="50.216" x="317.742" y="80.26" style="fill:none;stroke:none"/><rect id="AREA_BACK" width="47.853" height="22.015" x="197.289" y="45.119" style="fill:none;stroke:none"/><rect id="AREA_START" width="48.626" height="21.896" x="445.747" y="45.159" style="fill:none;stroke:none"/><rect id="AREA_DOTS" width="62.696" height="28.443" x="312.397" y="278.464" style="fill:none;stroke:none"/><rect id="AREA_LB" width="101.95" height="34.1" x="86.95" y="3.25" style="fill:none;stroke:none"/><rect id="AREA_RB" width="102.1" height="34.25" x="499.75" y="3.15" style="fill:none;stroke:none"/><rect id="AREA_STICK" width="97.15" height="98.1" x="193.15" y="111" style="fill:none;stroke:none"/><rect id="AREA_RSTICK" width="97.85" height="98.4" x="397.9" y="110.7" style="fill:none;stroke:none"/><rect id="AREA_LPAD" width="157.25" height="160.7" x="131.55" y="211.5" style="fill:none;stroke:none"/><rect id="AREA_RPAD" width="156.8" height="161" x="399.3" y="211.75" style="fill:none;stroke:none"/><rect id="AREA_DPAD" width="109.85" height="110.9" x="72.85" y="50.25" style="fill:none;stroke:none"/><rect id="AREA_LT" width="60" height="32" x="20" y="5" style="fill:none;stroke:none"/><rect id="AREA_RT" width="60" height="32" x="605" y="5" style="fill:none;stroke:none"/><rect id="AREA_LGRIPTOUCH" width="129.151" height="294.288" x=".431" y="198.101" style="fill:none;stroke:none"/><rect id="AREA_RGRIPTOUCH" width="129.151" height="294.288" x="557.285" y="198.101" style="fill:none;stroke:none"/><rect id="AREA_LPADTEST" width="157.25" height="160.7" x="131.55" y="211.5" style="fill:none;stroke:none"/><rect id="AREA_RPADTEST" width="156.8" height="161" x="399.3" y="211.75" style="fill:none;stroke:none"/><rect id="AREA_STICKTEST" width="97.15" height="98.1" x="193.15" y="111" style="fill:none;stroke:none"/><rect id="AREA_RSTICKTEST" width="97.85" height="98.4" x="397.9" y="110.7" style="fill:none;stroke:none"/><rect id="AREA_DPADTEST" width="109.85" height="110.9" x="72.85" y="50.25" style="fill:none;stroke:none"/></g><path id="LT" d="M108.548-11.764c-4.24-.064-8.635.332-12.58 1.886-3.17 1.25-6.674 2.864-8.43 5.785-2.107 3.508-2.413 8.241-1.38 12.202.923 3.542 6.405 8.918 6.405 8.918s4.755-4.13 7.48-5.663c5.155-2.9 10.869-4.717 16.498-6.53 5.381-1.735 9.49-3.046 16.448-4.138s25.244-1.643 25.244-1.643-11.738-2.69-17.61-4.026c-6.098-1.39-12.542-3.093-18.867-4.402-4.38-.907-8.734-2.322-13.208-2.39z" style="fill:#6c6c6c;fill-opacity:1;stroke:#1a1a1a;stroke-width:3.81946;stroke-dasharray:none;stroke-opacity:1"/><path id="RT" d="M580.46-11.764c-4.473.067-8.826 1.482-13.207 2.39-6.325 1.308-12.771 3.014-18.87 4.403-5.87 1.337-17.61 4.026-17.61 4.026s18.287.549 25.245 1.641 11.067 2.406 16.448 4.14c5.63 1.813 11.345 3.628 16.5 6.528 2.725 1.533 7.478 5.665 7.478 5.665s5.484-5.376 6.407-8.918c1.032-3.96.723-8.693-1.385-12.202-1.755-2.921-5.255-4.538-8.426-5.787-3.944-1.554-8.34-1.95-12.58-1.886z" style="fill:#6c6c6c;fill-opacity:1;stroke:#1a1a1a;stroke-width:3.81946;stroke-dasharray:none;stroke-opacity:1"/><circle id="STICKPRESS" cx="241.87" cy="152.51" r="31.247" style="fill:#6c6c6c;fill-opacity:1;stroke:#1a1a1a;stroke-width:1.80271;stroke-opacity:1"/><circle id="LSTICKTOUCH" cx="241.87" cy="152.51" r="14.061" style="fill:#6c6c6c;fill-opacity:1;opacity:0"/><circle id="RSTICKPRESS" cx="447.249" cy="152.365" r="31.456" style="fill:#6c6c6c;fill-opacity:1;stroke:#1a1a1a;stroke-width:1.81479;stroke-opacity:1"/><circle id="RSTICKTOUCH" cx="447.249" cy="152.365" r="14.155" style="fill:#6c6c6c;fill-opacity:1;opacity:0"/></svg>